G04 #@! TF.FileFunction,Legend,Top*
%FSLAX46Y46*%
G04 Gerber Fmt 4.6, Leading zero omitted, Abs format (unit mm)*
G04 Created by KiCad (PCBNEW 4.0.4+dfsg1-stable) date Mon Jul 31 00:00:22 2017*
%MOMM*%
%LPD*%
G01*
G04 APERTURE LIST*
%ADD10C,0.100000*%
%ADD11C,0.150000*%
G04 APERTURE END LIST*
D10*
D11*
X73914000Y-45974000D02*
X73914000Y-39878000D01*
X77978000Y-39878000D02*
X77978000Y-45974000D01*
X73914000Y-45974000D02*
G75*
G03X75946000Y-48006000I2032000J0D01*
G01*
X75946000Y-48006000D02*
G75*
G03X77978000Y-45974000I0J2032000D01*
G01*
X75946000Y-37846000D02*
G75*
G03X73914000Y-39878000I0J-2032000D01*
G01*
X77978000Y-39878000D02*
G75*
G03X75946000Y-37846000I-2032000J0D01*
G01*
X77470000Y-45974000D02*
X77470000Y-39878000D01*
X74422000Y-39878000D02*
X74422000Y-45974000D01*
X75946000Y-38354000D02*
G75*
G03X74422000Y-39878000I0J-1524000D01*
G01*
X77470000Y-39878000D02*
G75*
G03X75946000Y-38354000I-1524000J0D01*
G01*
X74422000Y-45974000D02*
G75*
G03X75946000Y-47498000I1524000J0D01*
G01*
X75946000Y-47498000D02*
G75*
G03X77470000Y-45974000I0J1524000D01*
G01*
X44180000Y-58396000D02*
X44180000Y-50396000D01*
X44180000Y-50396000D02*
X36180000Y-50396000D01*
X36180000Y-50396000D02*
X36180000Y-58396000D01*
X36180000Y-58396000D02*
X44180000Y-58396000D01*
X61722000Y-28956000D02*
X51562000Y-28956000D01*
X51562000Y-28956000D02*
X51562000Y-26416000D01*
X51562000Y-26416000D02*
X61722000Y-26416000D01*
X61722000Y-28956000D02*
X61722000Y-26416000D01*
X45370000Y-47406000D02*
X46070000Y-47406000D01*
X46070000Y-48606000D02*
X45370000Y-48606000D01*
X61855000Y-38018000D02*
X57355000Y-38018000D01*
X57355000Y-38018000D02*
X57355000Y-30118000D01*
X57355000Y-30118000D02*
X61855000Y-30118000D01*
X61855000Y-30118000D02*
X61855000Y-38018000D01*
X57355000Y-35568000D02*
X57855000Y-35568000D01*
X57855000Y-35568000D02*
X57855000Y-37518000D01*
X57855000Y-37518000D02*
X61355000Y-37518000D01*
X61355000Y-37518000D02*
X61355000Y-30618000D01*
X61355000Y-30618000D02*
X57855000Y-30618000D01*
X57855000Y-30618000D02*
X57855000Y-32568000D01*
X57855000Y-32568000D02*
X57355000Y-32568000D01*
X58555000Y-38018000D02*
X58555000Y-37518000D01*
X59855000Y-38018000D02*
X59855000Y-37518000D01*
X58555000Y-30618000D02*
X58555000Y-30118000D01*
X59855000Y-30618000D02*
X59855000Y-30118000D01*
X57355000Y-36368000D02*
X57155000Y-36368000D01*
X57155000Y-36368000D02*
X57155000Y-36668000D01*
X57155000Y-36668000D02*
X57355000Y-36668000D01*
X57255000Y-36368000D02*
X57255000Y-36668000D01*
X61355000Y-35168000D02*
X60855000Y-35168000D01*
X60855000Y-35168000D02*
X60855000Y-34968000D01*
X60855000Y-34968000D02*
X61355000Y-34968000D01*
X61355000Y-35068000D02*
X60855000Y-35068000D01*
X61355000Y-33168000D02*
X60855000Y-33168000D01*
X60855000Y-33168000D02*
X60855000Y-32968000D01*
X60855000Y-32968000D02*
X61355000Y-32968000D01*
X61355000Y-33068000D02*
X60855000Y-33068000D01*
X42095564Y-64480000D02*
G75*
G03X42095564Y-64480000I-2015564J0D01*
G01*
X37830000Y-67730000D02*
X42330000Y-67730000D01*
X36580000Y-63730000D02*
X36580000Y-65230000D01*
X42330000Y-61230000D02*
X37830000Y-61230000D01*
X43580000Y-65230000D02*
X43580000Y-63730000D01*
X46990000Y-38100000D02*
X46990000Y-40640000D01*
X46990000Y-40640000D02*
X44450000Y-40640000D01*
X44450000Y-40640000D02*
X44450000Y-38100000D01*
X44450000Y-38100000D02*
X46990000Y-38100000D01*
X61722000Y-76581000D02*
X51562000Y-76581000D01*
X60706000Y-69342000D02*
X60706000Y-68961000D01*
X60198000Y-69342000D02*
X60198000Y-68961000D01*
X58166000Y-69342000D02*
X58166000Y-68961000D01*
X57658000Y-69342000D02*
X57658000Y-68961000D01*
X55626000Y-69342000D02*
X55626000Y-68961000D01*
X55118000Y-69342000D02*
X55118000Y-68961000D01*
X52578000Y-69342000D02*
X52578000Y-68961000D01*
X53086000Y-69342000D02*
X53086000Y-68961000D01*
X61722000Y-69342000D02*
X61722000Y-76568000D01*
X59182000Y-69342000D02*
X59182000Y-76568000D01*
X59182000Y-69342000D02*
X56642000Y-69342000D01*
X56642000Y-69342000D02*
X56642000Y-76568000D01*
X59182000Y-69342000D02*
X59182000Y-71882000D01*
X61722000Y-69342000D02*
X59182000Y-69342000D01*
X54102000Y-69342000D02*
X51562000Y-69342000D01*
X51562000Y-69342000D02*
X51562000Y-76568000D01*
X54102000Y-69342000D02*
X54102000Y-76568000D01*
X56642000Y-69342000D02*
X54102000Y-69342000D01*
X56642000Y-69342000D02*
X56642000Y-71882000D01*
X63428000Y-76117000D02*
X63428000Y-75917000D01*
X63428000Y-73523000D02*
X63428000Y-73703000D01*
X66655744Y-73833357D02*
G75*
G03X63428000Y-73517000I-1727744J-1003643D01*
G01*
X65980006Y-73703932D02*
G75*
G03X63877000Y-73703000I-1052006J-1133068D01*
G01*
X63440780Y-76143726D02*
G75*
G03X66678000Y-75797000I1497220J1306726D01*
G01*
X63914111Y-75916253D02*
G75*
G03X65962000Y-75897000I1013889J1079253D01*
G01*
X52063000Y-63073000D02*
X52288000Y-63073000D01*
X52063000Y-57323000D02*
X52363000Y-57323000D01*
X60713000Y-57323000D02*
X60413000Y-57323000D01*
X60713000Y-63073000D02*
X60413000Y-63073000D01*
X52063000Y-63073000D02*
X52063000Y-57323000D01*
X60713000Y-63073000D02*
X60713000Y-57323000D01*
X52288000Y-63073000D02*
X52288000Y-64673000D01*
X59468011Y-47929800D02*
G75*
G03X59468011Y-47929800I-540011J0D01*
G01*
X60267000Y-49218000D02*
X60267000Y-48768000D01*
X53017000Y-49218000D02*
X53017000Y-48693000D01*
X53017000Y-41968000D02*
X53017000Y-42493000D01*
X60267000Y-41968000D02*
X60267000Y-42493000D01*
X60267000Y-49218000D02*
X59742000Y-49218000D01*
X60267000Y-41968000D02*
X59742000Y-41968000D01*
X53017000Y-41968000D02*
X53542000Y-41968000D01*
X53017000Y-49218000D02*
X53542000Y-49218000D01*
X71539000Y-49466000D02*
G75*
G03X69939000Y-49466000I-800000J0D01*
G01*
X72339000Y-48966000D02*
X72339000Y-49466000D01*
X72339000Y-49466000D02*
X69139000Y-49466000D01*
X72339000Y-43466000D02*
X72339000Y-47466000D01*
X69139000Y-41466000D02*
X72339000Y-41466000D01*
X72339000Y-41466000D02*
X72339000Y-41966000D01*
X69139000Y-41966000D02*
X69139000Y-41466000D01*
X69139000Y-47466000D02*
X69139000Y-43466000D01*
X69139000Y-49466000D02*
X69139000Y-48966000D01*
X36100000Y-49030000D02*
X43600000Y-49030000D01*
X36100000Y-37330000D02*
X43600000Y-37330000D01*
X43600000Y-37330000D02*
X43600000Y-49030000D01*
X36100000Y-37330000D02*
X36100000Y-49030000D01*
X45220000Y-46061000D02*
X46220000Y-46061000D01*
X46220000Y-47411000D02*
X45220000Y-47411000D01*
X38727000Y-72303000D02*
X37727000Y-72303000D01*
X37727000Y-70953000D02*
X38727000Y-70953000D01*
X43807000Y-72303000D02*
X42807000Y-72303000D01*
X42807000Y-70953000D02*
X43807000Y-70953000D01*
X48887000Y-72303000D02*
X47887000Y-72303000D01*
X47887000Y-70953000D02*
X48887000Y-70953000D01*
X65397000Y-72303000D02*
X64397000Y-72303000D01*
X64397000Y-70953000D02*
X65397000Y-70953000D01*
X76192000Y-60238000D02*
X75192000Y-60238000D01*
X75192000Y-58888000D02*
X76192000Y-58888000D01*
X70112000Y-58888000D02*
X71112000Y-58888000D01*
X71112000Y-60238000D02*
X70112000Y-60238000D01*
X66286000Y-41061000D02*
X65286000Y-41061000D01*
X65286000Y-39711000D02*
X66286000Y-39711000D01*
X75115564Y-54320000D02*
G75*
G03X75115564Y-54320000I-2015564J0D01*
G01*
X70850000Y-57570000D02*
X75350000Y-57570000D01*
X69600000Y-53570000D02*
X69600000Y-55070000D01*
X75350000Y-51070000D02*
X70850000Y-51070000D01*
X76600000Y-55070000D02*
X76600000Y-53570000D01*
X75115564Y-64480000D02*
G75*
G03X75115564Y-64480000I-2015564J0D01*
G01*
X70850000Y-67730000D02*
X75350000Y-67730000D01*
X69600000Y-63730000D02*
X69600000Y-65230000D01*
X75350000Y-61230000D02*
X70850000Y-61230000D01*
X76600000Y-65230000D02*
X76600000Y-63730000D01*
X49917000Y-65958000D02*
X45417000Y-65958000D01*
X45417000Y-65958000D02*
X45417000Y-52058000D01*
X45417000Y-52058000D02*
X49917000Y-52058000D01*
X49917000Y-52058000D02*
X49917000Y-65958000D01*
X45417000Y-63508000D02*
X45917000Y-63508000D01*
X45917000Y-63508000D02*
X45917000Y-65458000D01*
X45917000Y-65458000D02*
X49417000Y-65458000D01*
X49417000Y-65458000D02*
X49417000Y-52558000D01*
X49417000Y-52558000D02*
X45917000Y-52558000D01*
X45917000Y-52558000D02*
X45917000Y-54508000D01*
X45917000Y-54508000D02*
X45417000Y-54508000D01*
X46617000Y-65958000D02*
X46617000Y-65458000D01*
X47917000Y-65958000D02*
X47917000Y-65458000D01*
X46617000Y-52558000D02*
X46617000Y-52058000D01*
X47917000Y-52558000D02*
X47917000Y-52058000D01*
X45417000Y-64308000D02*
X45217000Y-64308000D01*
X45217000Y-64308000D02*
X45217000Y-64608000D01*
X45217000Y-64608000D02*
X45417000Y-64608000D01*
X45317000Y-64308000D02*
X45317000Y-64608000D01*
X49417000Y-63108000D02*
X48917000Y-63108000D01*
X48917000Y-63108000D02*
X48917000Y-62908000D01*
X48917000Y-62908000D02*
X49417000Y-62908000D01*
X49417000Y-63008000D02*
X48917000Y-63008000D01*
X49417000Y-61108000D02*
X48917000Y-61108000D01*
X48917000Y-61108000D02*
X48917000Y-60908000D01*
X48917000Y-60908000D02*
X49417000Y-60908000D01*
X49417000Y-61008000D02*
X48917000Y-61008000D01*
X49417000Y-59108000D02*
X48917000Y-59108000D01*
X48917000Y-59108000D02*
X48917000Y-58908000D01*
X48917000Y-58908000D02*
X49417000Y-58908000D01*
X49417000Y-59008000D02*
X48917000Y-59008000D01*
X49417000Y-57108000D02*
X48917000Y-57108000D01*
X48917000Y-57108000D02*
X48917000Y-56908000D01*
X48917000Y-56908000D02*
X49417000Y-56908000D01*
X49417000Y-57008000D02*
X48917000Y-57008000D01*
X49417000Y-55108000D02*
X48917000Y-55108000D01*
X48917000Y-55108000D02*
X48917000Y-54908000D01*
X48917000Y-54908000D02*
X49417000Y-54908000D01*
X49417000Y-55008000D02*
X48917000Y-55008000D01*
X67697000Y-65958000D02*
X63197000Y-65958000D01*
X63197000Y-65958000D02*
X63197000Y-52058000D01*
X63197000Y-52058000D02*
X67697000Y-52058000D01*
X67697000Y-52058000D02*
X67697000Y-65958000D01*
X63197000Y-63508000D02*
X63697000Y-63508000D01*
X63697000Y-63508000D02*
X63697000Y-65458000D01*
X63697000Y-65458000D02*
X67197000Y-65458000D01*
X67197000Y-65458000D02*
X67197000Y-52558000D01*
X67197000Y-52558000D02*
X63697000Y-52558000D01*
X63697000Y-52558000D02*
X63697000Y-54508000D01*
X63697000Y-54508000D02*
X63197000Y-54508000D01*
X64397000Y-65958000D02*
X64397000Y-65458000D01*
X65697000Y-65958000D02*
X65697000Y-65458000D01*
X64397000Y-52558000D02*
X64397000Y-52058000D01*
X65697000Y-52558000D02*
X65697000Y-52058000D01*
X63197000Y-64308000D02*
X62997000Y-64308000D01*
X62997000Y-64308000D02*
X62997000Y-64608000D01*
X62997000Y-64608000D02*
X63197000Y-64608000D01*
X63097000Y-64308000D02*
X63097000Y-64608000D01*
X67197000Y-63108000D02*
X66697000Y-63108000D01*
X66697000Y-63108000D02*
X66697000Y-62908000D01*
X66697000Y-62908000D02*
X67197000Y-62908000D01*
X67197000Y-63008000D02*
X66697000Y-63008000D01*
X67197000Y-61108000D02*
X66697000Y-61108000D01*
X66697000Y-61108000D02*
X66697000Y-60908000D01*
X66697000Y-60908000D02*
X67197000Y-60908000D01*
X67197000Y-61008000D02*
X66697000Y-61008000D01*
X67197000Y-59108000D02*
X66697000Y-59108000D01*
X66697000Y-59108000D02*
X66697000Y-58908000D01*
X66697000Y-58908000D02*
X67197000Y-58908000D01*
X67197000Y-59008000D02*
X66697000Y-59008000D01*
X67197000Y-57108000D02*
X66697000Y-57108000D01*
X66697000Y-57108000D02*
X66697000Y-56908000D01*
X66697000Y-56908000D02*
X67197000Y-56908000D01*
X67197000Y-57008000D02*
X66697000Y-57008000D01*
X67197000Y-55108000D02*
X66697000Y-55108000D01*
X66697000Y-55108000D02*
X66697000Y-54908000D01*
X66697000Y-54908000D02*
X67197000Y-54908000D01*
X67197000Y-55008000D02*
X66697000Y-55008000D01*
X55886000Y-38018000D02*
X51386000Y-38018000D01*
X51386000Y-38018000D02*
X51386000Y-30118000D01*
X51386000Y-30118000D02*
X55886000Y-30118000D01*
X55886000Y-30118000D02*
X55886000Y-38018000D01*
X51386000Y-35568000D02*
X51886000Y-35568000D01*
X51886000Y-35568000D02*
X51886000Y-37518000D01*
X51886000Y-37518000D02*
X55386000Y-37518000D01*
X55386000Y-37518000D02*
X55386000Y-30618000D01*
X55386000Y-30618000D02*
X51886000Y-30618000D01*
X51886000Y-30618000D02*
X51886000Y-32568000D01*
X51886000Y-32568000D02*
X51386000Y-32568000D01*
X52586000Y-38018000D02*
X52586000Y-37518000D01*
X53886000Y-38018000D02*
X53886000Y-37518000D01*
X52586000Y-30618000D02*
X52586000Y-30118000D01*
X53886000Y-30618000D02*
X53886000Y-30118000D01*
X51386000Y-36368000D02*
X51186000Y-36368000D01*
X51186000Y-36368000D02*
X51186000Y-36668000D01*
X51186000Y-36668000D02*
X51386000Y-36668000D01*
X51286000Y-36368000D02*
X51286000Y-36668000D01*
X55386000Y-35168000D02*
X54886000Y-35168000D01*
X54886000Y-35168000D02*
X54886000Y-34968000D01*
X54886000Y-34968000D02*
X55386000Y-34968000D01*
X55386000Y-35068000D02*
X54886000Y-35068000D01*
X55386000Y-33168000D02*
X54886000Y-33168000D01*
X54886000Y-33168000D02*
X54886000Y-32968000D01*
X54886000Y-32968000D02*
X55386000Y-32968000D01*
X55386000Y-33068000D02*
X54886000Y-33068000D01*
X67824000Y-38018000D02*
X63324000Y-38018000D01*
X63324000Y-38018000D02*
X63324000Y-30118000D01*
X63324000Y-30118000D02*
X67824000Y-30118000D01*
X67824000Y-30118000D02*
X67824000Y-38018000D01*
X63324000Y-35568000D02*
X63824000Y-35568000D01*
X63824000Y-35568000D02*
X63824000Y-37518000D01*
X63824000Y-37518000D02*
X67324000Y-37518000D01*
X67324000Y-37518000D02*
X67324000Y-30618000D01*
X67324000Y-30618000D02*
X63824000Y-30618000D01*
X63824000Y-30618000D02*
X63824000Y-32568000D01*
X63824000Y-32568000D02*
X63324000Y-32568000D01*
X64524000Y-38018000D02*
X64524000Y-37518000D01*
X65824000Y-38018000D02*
X65824000Y-37518000D01*
X64524000Y-30618000D02*
X64524000Y-30118000D01*
X65824000Y-30618000D02*
X65824000Y-30118000D01*
X63324000Y-36368000D02*
X63124000Y-36368000D01*
X63124000Y-36368000D02*
X63124000Y-36668000D01*
X63124000Y-36668000D02*
X63324000Y-36668000D01*
X63224000Y-36368000D02*
X63224000Y-36668000D01*
X67324000Y-35168000D02*
X66824000Y-35168000D01*
X66824000Y-35168000D02*
X66824000Y-34968000D01*
X66824000Y-34968000D02*
X67324000Y-34968000D01*
X67324000Y-35068000D02*
X66824000Y-35068000D01*
X67324000Y-33168000D02*
X66824000Y-33168000D01*
X66824000Y-33168000D02*
X66824000Y-32968000D01*
X66824000Y-32968000D02*
X67324000Y-32968000D01*
X67324000Y-33068000D02*
X66824000Y-33068000D01*
X49917000Y-38018000D02*
X45417000Y-38018000D01*
X45417000Y-38018000D02*
X45417000Y-30118000D01*
X45417000Y-30118000D02*
X49917000Y-30118000D01*
X49917000Y-30118000D02*
X49917000Y-38018000D01*
X45417000Y-35568000D02*
X45917000Y-35568000D01*
X45917000Y-35568000D02*
X45917000Y-37518000D01*
X45917000Y-37518000D02*
X49417000Y-37518000D01*
X49417000Y-37518000D02*
X49417000Y-30618000D01*
X49417000Y-30618000D02*
X45917000Y-30618000D01*
X45917000Y-30618000D02*
X45917000Y-32568000D01*
X45917000Y-32568000D02*
X45417000Y-32568000D01*
X46617000Y-38018000D02*
X46617000Y-37518000D01*
X47917000Y-38018000D02*
X47917000Y-37518000D01*
X46617000Y-30618000D02*
X46617000Y-30118000D01*
X47917000Y-30618000D02*
X47917000Y-30118000D01*
X45417000Y-36368000D02*
X45217000Y-36368000D01*
X45217000Y-36368000D02*
X45217000Y-36668000D01*
X45217000Y-36668000D02*
X45417000Y-36668000D01*
X45317000Y-36368000D02*
X45317000Y-36668000D01*
X49417000Y-35168000D02*
X48917000Y-35168000D01*
X48917000Y-35168000D02*
X48917000Y-34968000D01*
X48917000Y-34968000D02*
X49417000Y-34968000D01*
X49417000Y-35068000D02*
X48917000Y-35068000D01*
X49417000Y-33168000D02*
X48917000Y-33168000D01*
X48917000Y-33168000D02*
X48917000Y-32968000D01*
X48917000Y-32968000D02*
X49417000Y-32968000D01*
X49417000Y-33068000D02*
X48917000Y-33068000D01*
X46918000Y-76117000D02*
X46918000Y-75917000D01*
X46918000Y-73523000D02*
X46918000Y-73703000D01*
X50145744Y-73833357D02*
G75*
G03X46918000Y-73517000I-1727744J-1003643D01*
G01*
X49470006Y-73703932D02*
G75*
G03X47367000Y-73703000I-1052006J-1133068D01*
G01*
X46930780Y-76143726D02*
G75*
G03X50168000Y-75797000I1497220J1306726D01*
G01*
X47404111Y-75916253D02*
G75*
G03X49452000Y-75897000I1013889J1079253D01*
G01*
X41838000Y-76117000D02*
X41838000Y-75917000D01*
X41838000Y-73523000D02*
X41838000Y-73703000D01*
X45065744Y-73833357D02*
G75*
G03X41838000Y-73517000I-1727744J-1003643D01*
G01*
X44390006Y-73703932D02*
G75*
G03X42287000Y-73703000I-1052006J-1133068D01*
G01*
X41850780Y-76143726D02*
G75*
G03X45088000Y-75797000I1497220J1306726D01*
G01*
X42324111Y-75916253D02*
G75*
G03X44372000Y-75897000I1013889J1079253D01*
G01*
X36758000Y-76117000D02*
X36758000Y-75917000D01*
X36758000Y-73523000D02*
X36758000Y-73703000D01*
X39985744Y-73833357D02*
G75*
G03X36758000Y-73517000I-1727744J-1003643D01*
G01*
X39310006Y-73703932D02*
G75*
G03X37207000Y-73703000I-1052006J-1133068D01*
G01*
X36770780Y-76143726D02*
G75*
G03X40008000Y-75797000I1497220J1306726D01*
G01*
X37244111Y-75916253D02*
G75*
G03X39292000Y-75897000I1013889J1079253D01*
G01*
X68508000Y-76117000D02*
X68508000Y-75917000D01*
X68508000Y-73523000D02*
X68508000Y-73703000D01*
X71735744Y-73833357D02*
G75*
G03X68508000Y-73517000I-1727744J-1003643D01*
G01*
X71060006Y-73703932D02*
G75*
G03X68957000Y-73703000I-1052006J-1133068D01*
G01*
X68520780Y-76143726D02*
G75*
G03X71758000Y-75797000I1497220J1306726D01*
G01*
X68994111Y-75916253D02*
G75*
G03X71042000Y-75897000I1013889J1079253D01*
G01*
X73588000Y-76117000D02*
X73588000Y-75917000D01*
X73588000Y-73523000D02*
X73588000Y-73703000D01*
X76815744Y-73833357D02*
G75*
G03X73588000Y-73517000I-1727744J-1003643D01*
G01*
X76140006Y-73703932D02*
G75*
G03X74037000Y-73703000I-1052006J-1133068D01*
G01*
X73600780Y-76143726D02*
G75*
G03X76838000Y-75797000I1497220J1306726D01*
G01*
X74074111Y-75916253D02*
G75*
G03X76122000Y-75897000I1013889J1079253D01*
G01*
X70477000Y-72303000D02*
X69477000Y-72303000D01*
X69477000Y-70953000D02*
X70477000Y-70953000D01*
X75557000Y-72303000D02*
X74557000Y-72303000D01*
X74557000Y-70953000D02*
X75557000Y-70953000D01*
X65563000Y-42580000D02*
X66263000Y-42580000D01*
X66263000Y-43780000D02*
X65563000Y-43780000D01*
X65563000Y-46390000D02*
X66263000Y-46390000D01*
X66263000Y-47590000D02*
X65563000Y-47590000D01*
X65563000Y-45120000D02*
X66263000Y-45120000D01*
X66263000Y-46320000D02*
X65563000Y-46320000D01*
X62484000Y-66421000D02*
X62230000Y-66421000D01*
X62230000Y-66421000D02*
X62230000Y-68707000D01*
X62230000Y-68707000D02*
X62484000Y-68707000D01*
X62484000Y-66421000D02*
X62484000Y-68707000D01*
X62484000Y-68707000D02*
X64135000Y-68707000D01*
X65913000Y-66421000D02*
X67564000Y-66421000D01*
X67564000Y-66421000D02*
X67564000Y-68707000D01*
X67564000Y-68707000D02*
X65913000Y-68707000D01*
X64135000Y-66421000D02*
X62484000Y-66421000D01*
X50800000Y-68707000D02*
X51054000Y-68707000D01*
X51054000Y-68707000D02*
X51054000Y-66421000D01*
X51054000Y-66421000D02*
X50800000Y-66421000D01*
X50800000Y-68707000D02*
X50800000Y-66421000D01*
X50800000Y-66421000D02*
X49149000Y-66421000D01*
X47371000Y-68707000D02*
X45720000Y-68707000D01*
X45720000Y-68707000D02*
X45720000Y-66421000D01*
X45720000Y-66421000D02*
X47371000Y-66421000D01*
X49149000Y-68707000D02*
X50800000Y-68707000D01*
X45370000Y-44612000D02*
X46070000Y-44612000D01*
X46070000Y-45812000D02*
X45370000Y-45812000D01*
X45370000Y-43342000D02*
X46070000Y-43342000D01*
X46070000Y-44542000D02*
X45370000Y-44542000D01*
X66263000Y-48860000D02*
X65563000Y-48860000D01*
X65563000Y-47660000D02*
X66263000Y-47660000D01*
X49184000Y-40228000D02*
X49184000Y-39528000D01*
X50384000Y-39528000D02*
X50384000Y-40228000D01*
X47914000Y-40228000D02*
X47914000Y-39528000D01*
X49114000Y-39528000D02*
X49114000Y-40228000D01*
X65563000Y-43850000D02*
X66263000Y-43850000D01*
X66263000Y-45050000D02*
X65563000Y-45050000D01*
X65286000Y-41108000D02*
X66286000Y-41108000D01*
X66286000Y-42458000D02*
X65286000Y-42458000D01*
X53078000Y-39537000D02*
X52078000Y-39537000D01*
X52078000Y-38187000D02*
X53078000Y-38187000D01*
X46744000Y-70446000D02*
X47744000Y-70446000D01*
X47744000Y-68746000D02*
X46744000Y-68746000D01*
X66540000Y-68746000D02*
X65540000Y-68746000D01*
X65540000Y-70446000D02*
X66540000Y-70446000D01*
X71874000Y-38267000D02*
X70874000Y-38267000D01*
X70874000Y-36917000D02*
X71874000Y-36917000D01*
X70874000Y-38695000D02*
X71874000Y-38695000D01*
X71874000Y-40045000D02*
X70874000Y-40045000D01*
X46124762Y-55181333D02*
X46172381Y-55038476D01*
X46172381Y-54800380D01*
X46124762Y-54705142D01*
X46077143Y-54657523D01*
X45981905Y-54609904D01*
X45886667Y-54609904D01*
X45791429Y-54657523D01*
X45743810Y-54705142D01*
X45696190Y-54800380D01*
X45648571Y-54990857D01*
X45600952Y-55086095D01*
X45553333Y-55133714D01*
X45458095Y-55181333D01*
X45362857Y-55181333D01*
X45267619Y-55133714D01*
X45220000Y-55086095D01*
X45172381Y-54990857D01*
X45172381Y-54752761D01*
X45220000Y-54609904D01*
X45172381Y-54276571D02*
X46172381Y-54038476D01*
X45458095Y-53847999D01*
X46172381Y-53657523D01*
X45172381Y-53419428D01*
X45267619Y-53086095D02*
X45220000Y-53038476D01*
X45172381Y-52943238D01*
X45172381Y-52705142D01*
X45220000Y-52609904D01*
X45267619Y-52562285D01*
X45362857Y-52514666D01*
X45458095Y-52514666D01*
X45600952Y-52562285D01*
X46172381Y-53133714D01*
X46172381Y-52514666D01*
X38552619Y-69159381D02*
X38219285Y-68683190D01*
X37981190Y-69159381D02*
X37981190Y-68159381D01*
X38362143Y-68159381D01*
X38457381Y-68207000D01*
X38505000Y-68254619D01*
X38552619Y-68349857D01*
X38552619Y-68492714D01*
X38505000Y-68587952D01*
X38457381Y-68635571D01*
X38362143Y-68683190D01*
X37981190Y-68683190D01*
X38981190Y-68635571D02*
X39314524Y-68635571D01*
X39457381Y-69159381D02*
X38981190Y-69159381D01*
X38981190Y-68159381D01*
X39457381Y-68159381D01*
X39838333Y-69111762D02*
X39981190Y-69159381D01*
X40219286Y-69159381D01*
X40314524Y-69111762D01*
X40362143Y-69064143D01*
X40409762Y-68968905D01*
X40409762Y-68873667D01*
X40362143Y-68778429D01*
X40314524Y-68730810D01*
X40219286Y-68683190D01*
X40028809Y-68635571D01*
X39933571Y-68587952D01*
X39885952Y-68540333D01*
X39838333Y-68445095D01*
X39838333Y-68349857D01*
X39885952Y-68254619D01*
X39933571Y-68207000D01*
X40028809Y-68159381D01*
X40266905Y-68159381D01*
X40409762Y-68207000D01*
X40838333Y-68635571D02*
X41171667Y-68635571D01*
X41314524Y-69159381D02*
X40838333Y-69159381D01*
X40838333Y-68159381D01*
X41314524Y-68159381D01*
X41600238Y-68159381D02*
X42171667Y-68159381D01*
X41885952Y-69159381D02*
X41885952Y-68159381D01*
X41072381Y-44290952D02*
X40072381Y-44290952D01*
X40072381Y-44052857D01*
X40120000Y-43909999D01*
X40215238Y-43814761D01*
X40310476Y-43767142D01*
X40500952Y-43719523D01*
X40643810Y-43719523D01*
X40834286Y-43767142D01*
X40929524Y-43814761D01*
X41024762Y-43909999D01*
X41072381Y-44052857D01*
X41072381Y-44290952D01*
X40977143Y-42719523D02*
X41024762Y-42767142D01*
X41072381Y-42909999D01*
X41072381Y-43005237D01*
X41024762Y-43148095D01*
X40929524Y-43243333D01*
X40834286Y-43290952D01*
X40643810Y-43338571D01*
X40500952Y-43338571D01*
X40310476Y-43290952D01*
X40215238Y-43243333D01*
X40120000Y-43148095D01*
X40072381Y-43005237D01*
X40072381Y-42909999D01*
X40120000Y-42767142D01*
X40167619Y-42719523D01*
X40691429Y-42290952D02*
X40691429Y-41529047D01*
X41072381Y-41052857D02*
X40072381Y-41052857D01*
X40072381Y-40814762D01*
X40120000Y-40671904D01*
X40215238Y-40576666D01*
X40310476Y-40529047D01*
X40500952Y-40481428D01*
X40643810Y-40481428D01*
X40834286Y-40529047D01*
X40929524Y-40576666D01*
X41024762Y-40671904D01*
X41072381Y-40814762D01*
X41072381Y-41052857D01*
X40977143Y-39481428D02*
X41024762Y-39529047D01*
X41072381Y-39671904D01*
X41072381Y-39767142D01*
X41024762Y-39910000D01*
X40929524Y-40005238D01*
X40834286Y-40052857D01*
X40643810Y-40100476D01*
X40500952Y-40100476D01*
X40310476Y-40052857D01*
X40215238Y-40005238D01*
X40120000Y-39910000D01*
X40072381Y-39767142D01*
X40072381Y-39671904D01*
X40120000Y-39529047D01*
X40167619Y-39481428D01*
X58316762Y-75659905D02*
X58364381Y-75517048D01*
X58364381Y-75278952D01*
X58316762Y-75183714D01*
X58269143Y-75136095D01*
X58173905Y-75088476D01*
X58078667Y-75088476D01*
X57983429Y-75136095D01*
X57935810Y-75183714D01*
X57888190Y-75278952D01*
X57840571Y-75469429D01*
X57792952Y-75564667D01*
X57745333Y-75612286D01*
X57650095Y-75659905D01*
X57554857Y-75659905D01*
X57459619Y-75612286D01*
X57412000Y-75564667D01*
X57364381Y-75469429D01*
X57364381Y-75231333D01*
X57412000Y-75088476D01*
X57364381Y-74755143D02*
X58364381Y-74517048D01*
X57650095Y-74326571D01*
X58364381Y-74136095D01*
X57364381Y-73898000D01*
X58364381Y-73517048D02*
X57364381Y-73517048D01*
X57364381Y-73278953D01*
X57412000Y-73136095D01*
X57507238Y-73040857D01*
X57602476Y-72993238D01*
X57792952Y-72945619D01*
X57935810Y-72945619D01*
X58126286Y-72993238D01*
X58221524Y-73040857D01*
X58316762Y-73136095D01*
X58364381Y-73278953D01*
X58364381Y-73517048D01*
X58269143Y-71945619D02*
X58316762Y-71993238D01*
X58364381Y-72136095D01*
X58364381Y-72231333D01*
X58316762Y-72374191D01*
X58221524Y-72469429D01*
X58126286Y-72517048D01*
X57935810Y-72564667D01*
X57792952Y-72564667D01*
X57602476Y-72517048D01*
X57507238Y-72469429D01*
X57412000Y-72374191D01*
X57364381Y-72231333D01*
X57364381Y-72136095D01*
X57412000Y-71993238D01*
X57459619Y-71945619D01*
X58364381Y-71040857D02*
X58364381Y-71517048D01*
X57364381Y-71517048D01*
X58364381Y-70707524D02*
X57364381Y-70707524D01*
X58364381Y-70136095D02*
X57792952Y-70564667D01*
X57364381Y-70136095D02*
X57935810Y-70707524D01*
X52284381Y-75787095D02*
X52284381Y-75168047D01*
X52665333Y-75501381D01*
X52665333Y-75358523D01*
X52712952Y-75263285D01*
X52760571Y-75215666D01*
X52855810Y-75168047D01*
X53093905Y-75168047D01*
X53189143Y-75215666D01*
X53236762Y-75263285D01*
X53284381Y-75358523D01*
X53284381Y-75644238D01*
X53236762Y-75739476D01*
X53189143Y-75787095D01*
X52284381Y-74882333D02*
X53284381Y-74549000D01*
X52284381Y-74215666D01*
X52284381Y-73977571D02*
X52284381Y-73358523D01*
X52665333Y-73691857D01*
X52665333Y-73548999D01*
X52712952Y-73453761D01*
X52760571Y-73406142D01*
X52855810Y-73358523D01*
X53093905Y-73358523D01*
X53189143Y-73406142D01*
X53236762Y-73453761D01*
X53284381Y-73548999D01*
X53284381Y-73834714D01*
X53236762Y-73929952D01*
X53189143Y-73977571D01*
X55776762Y-75779047D02*
X55824381Y-75636190D01*
X55824381Y-75398094D01*
X55776762Y-75302856D01*
X55729143Y-75255237D01*
X55633905Y-75207618D01*
X55538667Y-75207618D01*
X55443429Y-75255237D01*
X55395810Y-75302856D01*
X55348190Y-75398094D01*
X55300571Y-75588571D01*
X55252952Y-75683809D01*
X55205333Y-75731428D01*
X55110095Y-75779047D01*
X55014857Y-75779047D01*
X54919619Y-75731428D01*
X54872000Y-75683809D01*
X54824381Y-75588571D01*
X54824381Y-75350475D01*
X54872000Y-75207618D01*
X54824381Y-74874285D02*
X55824381Y-74636190D01*
X55110095Y-74445713D01*
X55824381Y-74255237D01*
X54824381Y-74017142D01*
X55824381Y-73636190D02*
X54824381Y-73636190D01*
X54824381Y-73398095D01*
X54872000Y-73255237D01*
X54967238Y-73159999D01*
X55062476Y-73112380D01*
X55252952Y-73064761D01*
X55395810Y-73064761D01*
X55586286Y-73112380D01*
X55681524Y-73159999D01*
X55776762Y-73255237D01*
X55824381Y-73398095D01*
X55824381Y-73636190D01*
X55824381Y-72636190D02*
X54824381Y-72636190D01*
X54824381Y-71969524D02*
X54824381Y-71779047D01*
X54872000Y-71683809D01*
X54967238Y-71588571D01*
X55157714Y-71540952D01*
X55491048Y-71540952D01*
X55681524Y-71588571D01*
X55776762Y-71683809D01*
X55824381Y-71779047D01*
X55824381Y-71969524D01*
X55776762Y-72064762D01*
X55681524Y-72160000D01*
X55491048Y-72207619D01*
X55157714Y-72207619D01*
X54967238Y-72160000D01*
X54872000Y-72064762D01*
X54824381Y-71969524D01*
X59952000Y-75183904D02*
X59904381Y-75279142D01*
X59904381Y-75421999D01*
X59952000Y-75564857D01*
X60047238Y-75660095D01*
X60142476Y-75707714D01*
X60332952Y-75755333D01*
X60475810Y-75755333D01*
X60666286Y-75707714D01*
X60761524Y-75660095D01*
X60856762Y-75564857D01*
X60904381Y-75421999D01*
X60904381Y-75326761D01*
X60856762Y-75183904D01*
X60809143Y-75136285D01*
X60475810Y-75136285D01*
X60475810Y-75326761D01*
X60904381Y-74707714D02*
X59904381Y-74707714D01*
X60904381Y-74136285D01*
X59904381Y-74136285D01*
X60904381Y-73660095D02*
X59904381Y-73660095D01*
X59904381Y-73422000D01*
X59952000Y-73279142D01*
X60047238Y-73183904D01*
X60142476Y-73136285D01*
X60332952Y-73088666D01*
X60475810Y-73088666D01*
X60666286Y-73136285D01*
X60761524Y-73183904D01*
X60856762Y-73279142D01*
X60904381Y-73422000D01*
X60904381Y-73660095D01*
X62638000Y-76979429D02*
X62352286Y-76979429D01*
X62352286Y-76379429D01*
X63095143Y-76579429D02*
X63095143Y-76979429D01*
X62952286Y-76350857D02*
X62809429Y-76779429D01*
X63180857Y-76779429D01*
X55880095Y-51045381D02*
X55880095Y-51854905D01*
X55927714Y-51950143D01*
X55975333Y-51997762D01*
X56070571Y-52045381D01*
X56261048Y-52045381D01*
X56356286Y-51997762D01*
X56403905Y-51950143D01*
X56451524Y-51854905D01*
X56451524Y-51045381D01*
X56832476Y-51045381D02*
X57451524Y-51045381D01*
X57118190Y-51426333D01*
X57261048Y-51426333D01*
X57356286Y-51473952D01*
X57403905Y-51521571D01*
X57451524Y-51616810D01*
X57451524Y-51854905D01*
X57403905Y-51950143D01*
X57356286Y-51997762D01*
X57261048Y-52045381D01*
X56975333Y-52045381D01*
X56880095Y-51997762D01*
X56832476Y-51950143D01*
X70675809Y-50696762D02*
X70818666Y-50744381D01*
X71056762Y-50744381D01*
X71152000Y-50696762D01*
X71199619Y-50649143D01*
X71247238Y-50553905D01*
X71247238Y-50458667D01*
X71199619Y-50363429D01*
X71152000Y-50315810D01*
X71056762Y-50268190D01*
X70866285Y-50220571D01*
X70771047Y-50172952D01*
X70723428Y-50125333D01*
X70675809Y-50030095D01*
X70675809Y-49934857D01*
X70723428Y-49839619D01*
X70771047Y-49792000D01*
X70866285Y-49744381D01*
X71104381Y-49744381D01*
X71247238Y-49792000D01*
X71675809Y-50220571D02*
X72009143Y-50220571D01*
X72152000Y-50744381D02*
X71675809Y-50744381D01*
X71675809Y-49744381D01*
X72152000Y-49744381D01*
X73056762Y-50744381D02*
X72580571Y-50744381D01*
X72580571Y-49744381D01*
X73390095Y-50220571D02*
X73723429Y-50220571D01*
X73866286Y-50744381D02*
X73390095Y-50744381D01*
X73390095Y-49744381D01*
X73866286Y-49744381D01*
X74866286Y-50649143D02*
X74818667Y-50696762D01*
X74675810Y-50744381D01*
X74580572Y-50744381D01*
X74437714Y-50696762D01*
X74342476Y-50601524D01*
X74294857Y-50506286D01*
X74247238Y-50315810D01*
X74247238Y-50172952D01*
X74294857Y-49982476D01*
X74342476Y-49887238D01*
X74437714Y-49792000D01*
X74580572Y-49744381D01*
X74675810Y-49744381D01*
X74818667Y-49792000D01*
X74866286Y-49839619D01*
X75152000Y-49744381D02*
X75723429Y-49744381D01*
X75437714Y-50744381D02*
X75437714Y-49744381D01*
X71175809Y-68984762D02*
X71318666Y-69032381D01*
X71556762Y-69032381D01*
X71652000Y-68984762D01*
X71699619Y-68937143D01*
X71747238Y-68841905D01*
X71747238Y-68746667D01*
X71699619Y-68651429D01*
X71652000Y-68603810D01*
X71556762Y-68556190D01*
X71366285Y-68508571D01*
X71271047Y-68460952D01*
X71223428Y-68413333D01*
X71175809Y-68318095D01*
X71175809Y-68222857D01*
X71223428Y-68127619D01*
X71271047Y-68080000D01*
X71366285Y-68032381D01*
X71604381Y-68032381D01*
X71747238Y-68080000D01*
X72032952Y-68032381D02*
X72604381Y-68032381D01*
X72318666Y-69032381D02*
X72318666Y-68032381D01*
X72890095Y-68746667D02*
X73366286Y-68746667D01*
X72794857Y-69032381D02*
X73128190Y-68032381D01*
X73461524Y-69032381D01*
X74366286Y-69032381D02*
X74032952Y-68556190D01*
X73794857Y-69032381D02*
X73794857Y-68032381D01*
X74175810Y-68032381D01*
X74271048Y-68080000D01*
X74318667Y-68127619D01*
X74366286Y-68222857D01*
X74366286Y-68365714D01*
X74318667Y-68460952D01*
X74271048Y-68508571D01*
X74175810Y-68556190D01*
X73794857Y-68556190D01*
X74652000Y-68032381D02*
X75223429Y-68032381D01*
X74937714Y-69032381D02*
X74937714Y-68032381D01*
X51379381Y-59737524D02*
X50379381Y-59737524D01*
X51093667Y-59404190D01*
X50379381Y-59070857D01*
X51379381Y-59070857D01*
X51379381Y-58070857D02*
X51379381Y-58642286D01*
X51379381Y-58356572D02*
X50379381Y-58356572D01*
X50522238Y-58451810D01*
X50617476Y-58547048D01*
X50665095Y-58642286D01*
X62174381Y-59737524D02*
X61174381Y-59737524D01*
X61888667Y-59404190D01*
X61174381Y-59070857D01*
X62174381Y-59070857D01*
X61269619Y-58642286D02*
X61222000Y-58594667D01*
X61174381Y-58499429D01*
X61174381Y-58261333D01*
X61222000Y-58166095D01*
X61269619Y-58118476D01*
X61364857Y-58070857D01*
X61460095Y-58070857D01*
X61602952Y-58118476D01*
X62174381Y-58689905D01*
X62174381Y-58070857D01*
X50446000Y-76979429D02*
X50160286Y-76979429D01*
X50160286Y-76379429D01*
X50588857Y-76379429D02*
X50960286Y-76379429D01*
X50760286Y-76608000D01*
X50846000Y-76608000D01*
X50903143Y-76636571D01*
X50931714Y-76665143D01*
X50960286Y-76722286D01*
X50960286Y-76865143D01*
X50931714Y-76922286D01*
X50903143Y-76950857D01*
X50846000Y-76979429D01*
X50674572Y-76979429D01*
X50617429Y-76950857D01*
X50588857Y-76922286D01*
X45366000Y-76979429D02*
X45080286Y-76979429D01*
X45080286Y-76379429D01*
X45537429Y-76436571D02*
X45566000Y-76408000D01*
X45623143Y-76379429D01*
X45766000Y-76379429D01*
X45823143Y-76408000D01*
X45851714Y-76436571D01*
X45880286Y-76493714D01*
X45880286Y-76550857D01*
X45851714Y-76636571D01*
X45508857Y-76979429D01*
X45880286Y-76979429D01*
X40286000Y-76979429D02*
X40000286Y-76979429D01*
X40000286Y-76379429D01*
X40800286Y-76979429D02*
X40457429Y-76979429D01*
X40628857Y-76979429D02*
X40628857Y-76379429D01*
X40571714Y-76465143D01*
X40514572Y-76522286D01*
X40457429Y-76550857D01*
X67718000Y-76979429D02*
X67432286Y-76979429D01*
X67432286Y-76379429D01*
X68203714Y-76379429D02*
X67918000Y-76379429D01*
X67889429Y-76665143D01*
X67918000Y-76636571D01*
X67975143Y-76608000D01*
X68118000Y-76608000D01*
X68175143Y-76636571D01*
X68203714Y-76665143D01*
X68232286Y-76722286D01*
X68232286Y-76865143D01*
X68203714Y-76922286D01*
X68175143Y-76950857D01*
X68118000Y-76979429D01*
X67975143Y-76979429D01*
X67918000Y-76950857D01*
X67889429Y-76922286D01*
X72798000Y-76979429D02*
X72512286Y-76979429D01*
X72512286Y-76379429D01*
X73255143Y-76379429D02*
X73140857Y-76379429D01*
X73083714Y-76408000D01*
X73055143Y-76436571D01*
X72998000Y-76522286D01*
X72969429Y-76636571D01*
X72969429Y-76865143D01*
X72998000Y-76922286D01*
X73026572Y-76950857D01*
X73083714Y-76979429D01*
X73198000Y-76979429D01*
X73255143Y-76950857D01*
X73283714Y-76922286D01*
X73312286Y-76865143D01*
X73312286Y-76722286D01*
X73283714Y-76665143D01*
X73255143Y-76636571D01*
X73198000Y-76608000D01*
X73083714Y-76608000D01*
X73026572Y-76636571D01*
X72998000Y-76665143D01*
X72969429Y-76722286D01*
X47617143Y-67921143D02*
X47569524Y-67968762D01*
X47426667Y-68016381D01*
X47331429Y-68016381D01*
X47188571Y-67968762D01*
X47093333Y-67873524D01*
X47045714Y-67778286D01*
X46998095Y-67587810D01*
X46998095Y-67444952D01*
X47045714Y-67254476D01*
X47093333Y-67159238D01*
X47188571Y-67064000D01*
X47331429Y-67016381D01*
X47426667Y-67016381D01*
X47569524Y-67064000D01*
X47617143Y-67111619D01*
X48569524Y-68016381D02*
X47998095Y-68016381D01*
X48283809Y-68016381D02*
X48283809Y-67016381D01*
X48188571Y-67159238D01*
X48093333Y-67254476D01*
X47998095Y-67302095D01*
X49426667Y-67349714D02*
X49426667Y-68016381D01*
X49188571Y-66968762D02*
X48950476Y-67683048D01*
X49569524Y-67683048D01*
X71207334Y-36144381D02*
X70874000Y-35668190D01*
X70635905Y-36144381D02*
X70635905Y-35144381D01*
X71016858Y-35144381D01*
X71112096Y-35192000D01*
X71159715Y-35239619D01*
X71207334Y-35334857D01*
X71207334Y-35477714D01*
X71159715Y-35572952D01*
X71112096Y-35620571D01*
X71016858Y-35668190D01*
X70635905Y-35668190D01*
X72159715Y-36144381D02*
X71588286Y-36144381D01*
X71874000Y-36144381D02*
X71874000Y-35144381D01*
X71778762Y-35287238D01*
X71683524Y-35382476D01*
X71588286Y-35430095D01*
X70635905Y-41722381D02*
X70635905Y-40722381D01*
X70874000Y-40722381D01*
X71016858Y-40770000D01*
X71112096Y-40865238D01*
X71159715Y-40960476D01*
X71207334Y-41150952D01*
X71207334Y-41293810D01*
X71159715Y-41484286D01*
X71112096Y-41579524D01*
X71016858Y-41674762D01*
X70874000Y-41722381D01*
X70635905Y-41722381D01*
X72159715Y-41722381D02*
X71588286Y-41722381D01*
X71874000Y-41722381D02*
X71874000Y-40722381D01*
X71778762Y-40865238D01*
X71683524Y-40960476D01*
X71588286Y-41008095D01*
M02*
