G04 #@! TF.FileFunction,Legend,Bot*
%FSLAX46Y46*%
G04 Gerber Fmt 4.6, Leading zero omitted, Abs format (unit mm)*
G04 Created by KiCad (PCBNEW 4.0.4+dfsg1-stable) date Mon Jul 31 00:00:22 2017*
%MOMM*%
%LPD*%
G01*
G04 APERTURE LIST*
%ADD10C,0.100000*%
%ADD11C,0.010000*%
%ADD12C,0.150000*%
G04 APERTURE END LIST*
D10*
D11*
G36*
X52578000Y-39687500D02*
X48895000Y-39687500D01*
X48895000Y-48537960D01*
X49866515Y-48537960D01*
X49867698Y-48265358D01*
X49960026Y-48015232D01*
X50125819Y-47804413D01*
X50347394Y-47649734D01*
X50607072Y-47568026D01*
X50887172Y-47576120D01*
X51161674Y-47685706D01*
X51402687Y-47897081D01*
X51547370Y-48162617D01*
X51589255Y-48454461D01*
X51521877Y-48744756D01*
X51440577Y-48887168D01*
X51207632Y-49119576D01*
X50933065Y-49244830D01*
X50641514Y-49264122D01*
X50357614Y-49178644D01*
X50106002Y-48989588D01*
X49974156Y-48816206D01*
X49866515Y-48537960D01*
X48895000Y-48537960D01*
X48895000Y-50228500D01*
X52578000Y-50228500D01*
X52578000Y-39687500D01*
X52578000Y-39687500D01*
G37*
X52578000Y-39687500D02*
X48895000Y-39687500D01*
X48895000Y-48537960D01*
X49866515Y-48537960D01*
X49867698Y-48265358D01*
X49960026Y-48015232D01*
X50125819Y-47804413D01*
X50347394Y-47649734D01*
X50607072Y-47568026D01*
X50887172Y-47576120D01*
X51161674Y-47685706D01*
X51402687Y-47897081D01*
X51547370Y-48162617D01*
X51589255Y-48454461D01*
X51521877Y-48744756D01*
X51440577Y-48887168D01*
X51207632Y-49119576D01*
X50933065Y-49244830D01*
X50641514Y-49264122D01*
X50357614Y-49178644D01*
X50106002Y-48989588D01*
X49974156Y-48816206D01*
X49866515Y-48537960D01*
X48895000Y-48537960D01*
X48895000Y-50228500D01*
X52578000Y-50228500D01*
X52578000Y-39687500D01*
G36*
X58039000Y-46672500D02*
X59753500Y-46672500D01*
X59753500Y-50228500D01*
X63436500Y-50228500D01*
X63436500Y-39687500D01*
X59753500Y-39687500D01*
X59753500Y-42989500D01*
X58039000Y-42989500D01*
X58039000Y-39687500D01*
X54292500Y-39687500D01*
X54292500Y-42989500D01*
X52832000Y-42989500D01*
X52832000Y-46672500D01*
X54292500Y-46672500D01*
X54292500Y-50228500D01*
X58039000Y-50228500D01*
X58039000Y-46672500D01*
X58039000Y-46672500D01*
G37*
X58039000Y-46672500D02*
X59753500Y-46672500D01*
X59753500Y-50228500D01*
X63436500Y-50228500D01*
X63436500Y-39687500D01*
X59753500Y-39687500D01*
X59753500Y-42989500D01*
X58039000Y-42989500D01*
X58039000Y-39687500D01*
X54292500Y-39687500D01*
X54292500Y-42989500D01*
X52832000Y-42989500D01*
X52832000Y-46672500D01*
X54292500Y-46672500D01*
X54292500Y-50228500D01*
X58039000Y-50228500D01*
X58039000Y-46672500D01*
D12*
X59904381Y-29210095D02*
X59904381Y-29781524D01*
X60904381Y-29495809D02*
X59904381Y-29495809D01*
X59904381Y-30019619D02*
X60904381Y-30686286D01*
X59904381Y-30686286D02*
X60904381Y-30019619D01*
X58364381Y-29805334D02*
X57888190Y-29472000D01*
X58364381Y-29233905D02*
X57364381Y-29233905D01*
X57364381Y-29614858D01*
X57412000Y-29710096D01*
X57459619Y-29757715D01*
X57554857Y-29805334D01*
X57697714Y-29805334D01*
X57792952Y-29757715D01*
X57840571Y-29710096D01*
X57888190Y-29614858D01*
X57888190Y-29233905D01*
X57364381Y-30138667D02*
X58364381Y-30805334D01*
X57364381Y-30805334D02*
X58364381Y-30138667D01*
X54872000Y-29718096D02*
X54824381Y-29622858D01*
X54824381Y-29480001D01*
X54872000Y-29337143D01*
X54967238Y-29241905D01*
X55062476Y-29194286D01*
X55252952Y-29146667D01*
X55395810Y-29146667D01*
X55586286Y-29194286D01*
X55681524Y-29241905D01*
X55776762Y-29337143D01*
X55824381Y-29480001D01*
X55824381Y-29575239D01*
X55776762Y-29718096D01*
X55729143Y-29765715D01*
X55395810Y-29765715D01*
X55395810Y-29575239D01*
X55824381Y-30194286D02*
X54824381Y-30194286D01*
X55824381Y-30765715D01*
X54824381Y-30765715D01*
X55824381Y-31241905D02*
X54824381Y-31241905D01*
X54824381Y-31480000D01*
X54872000Y-31622858D01*
X54967238Y-31718096D01*
X55062476Y-31765715D01*
X55252952Y-31813334D01*
X55395810Y-31813334D01*
X55586286Y-31765715D01*
X55681524Y-31718096D01*
X55776762Y-31622858D01*
X55824381Y-31480000D01*
X55824381Y-31241905D01*
X52284381Y-29210095D02*
X52284381Y-29829143D01*
X52665333Y-29495809D01*
X52665333Y-29638667D01*
X52712952Y-29733905D01*
X52760571Y-29781524D01*
X52855810Y-29829143D01*
X53093905Y-29829143D01*
X53189143Y-29781524D01*
X53236762Y-29733905D01*
X53284381Y-29638667D01*
X53284381Y-29352952D01*
X53236762Y-29257714D01*
X53189143Y-29210095D01*
X52284381Y-30114857D02*
X53284381Y-30448190D01*
X52284381Y-30781524D01*
X61618762Y-35306095D02*
X61666381Y-35448952D01*
X61666381Y-35687048D01*
X61618762Y-35782286D01*
X61571143Y-35829905D01*
X61475905Y-35877524D01*
X61380667Y-35877524D01*
X61285429Y-35829905D01*
X61237810Y-35782286D01*
X61190190Y-35687048D01*
X61142571Y-35496571D01*
X61094952Y-35401333D01*
X61047333Y-35353714D01*
X60952095Y-35306095D01*
X60856857Y-35306095D01*
X60761619Y-35353714D01*
X60714000Y-35401333D01*
X60666381Y-35496571D01*
X60666381Y-35734667D01*
X60714000Y-35877524D01*
X60666381Y-36210857D02*
X60666381Y-36829905D01*
X61047333Y-36496571D01*
X61047333Y-36639429D01*
X61094952Y-36734667D01*
X61142571Y-36782286D01*
X61237810Y-36829905D01*
X61475905Y-36829905D01*
X61571143Y-36782286D01*
X61618762Y-36734667D01*
X61666381Y-36639429D01*
X61666381Y-36353714D01*
X61618762Y-36258476D01*
X61571143Y-36210857D01*
X55649762Y-35306095D02*
X55697381Y-35448952D01*
X55697381Y-35687048D01*
X55649762Y-35782286D01*
X55602143Y-35829905D01*
X55506905Y-35877524D01*
X55411667Y-35877524D01*
X55316429Y-35829905D01*
X55268810Y-35782286D01*
X55221190Y-35687048D01*
X55173571Y-35496571D01*
X55125952Y-35401333D01*
X55078333Y-35353714D01*
X54983095Y-35306095D01*
X54887857Y-35306095D01*
X54792619Y-35353714D01*
X54745000Y-35401333D01*
X54697381Y-35496571D01*
X54697381Y-35734667D01*
X54745000Y-35877524D01*
X54792619Y-36258476D02*
X54745000Y-36306095D01*
X54697381Y-36401333D01*
X54697381Y-36639429D01*
X54745000Y-36734667D01*
X54792619Y-36782286D01*
X54887857Y-36829905D01*
X54983095Y-36829905D01*
X55125952Y-36782286D01*
X55697381Y-36210857D01*
X55697381Y-36829905D01*
X67587762Y-35306095D02*
X67635381Y-35448952D01*
X67635381Y-35687048D01*
X67587762Y-35782286D01*
X67540143Y-35829905D01*
X67444905Y-35877524D01*
X67349667Y-35877524D01*
X67254429Y-35829905D01*
X67206810Y-35782286D01*
X67159190Y-35687048D01*
X67111571Y-35496571D01*
X67063952Y-35401333D01*
X67016333Y-35353714D01*
X66921095Y-35306095D01*
X66825857Y-35306095D01*
X66730619Y-35353714D01*
X66683000Y-35401333D01*
X66635381Y-35496571D01*
X66635381Y-35734667D01*
X66683000Y-35877524D01*
X66968714Y-36734667D02*
X67635381Y-36734667D01*
X66587762Y-36496571D02*
X67302048Y-36258476D01*
X67302048Y-36877524D01*
X49680762Y-35306095D02*
X49728381Y-35448952D01*
X49728381Y-35687048D01*
X49680762Y-35782286D01*
X49633143Y-35829905D01*
X49537905Y-35877524D01*
X49442667Y-35877524D01*
X49347429Y-35829905D01*
X49299810Y-35782286D01*
X49252190Y-35687048D01*
X49204571Y-35496571D01*
X49156952Y-35401333D01*
X49109333Y-35353714D01*
X49014095Y-35306095D01*
X48918857Y-35306095D01*
X48823619Y-35353714D01*
X48776000Y-35401333D01*
X48728381Y-35496571D01*
X48728381Y-35734667D01*
X48776000Y-35877524D01*
X49728381Y-36829905D02*
X49728381Y-36258476D01*
X49728381Y-36544190D02*
X48728381Y-36544190D01*
X48871238Y-36448952D01*
X48966476Y-36353714D01*
X49014095Y-36258476D01*
M02*
