G04 #@! TF.FileFunction,Soldermask,Top*
%FSLAX46Y46*%
G04 Gerber Fmt 4.6, Leading zero omitted, Abs format (unit mm)*
G04 Created by KiCad (PCBNEW 4.0.4+dfsg1-stable) date Mon Jul 31 00:00:22 2017*
%MOMM*%
%LPD*%
G01*
G04 APERTURE LIST*
%ADD10C,0.100000*%
%ADD11C,1.901140*%
%ADD12R,1.797000X1.797000*%
%ADD13C,1.797000*%
%ADD14R,2.127200X2.432000*%
%ADD15O,2.127200X2.432000*%
%ADD16R,1.600000X1.150000*%
%ADD17R,2.100000X1.600000*%
%ADD18O,2.100000X1.600000*%
%ADD19C,2.400000*%
%ADD20C,2.432000*%
%ADD21O,2.432000X2.432000*%
%ADD22C,6.200000*%
%ADD23C,1.000000*%
%ADD24R,2.400000X2.400000*%
%ADD25R,0.850000X2.150000*%
%ADD26R,1.500000X2.150000*%
%ADD27R,1.700000X0.650000*%
%ADD28R,0.650000X1.700000*%
%ADD29R,2.300000X1.700000*%
%ADD30R,1.600000X1.300000*%
%ADD31R,1.924000X2.432000*%
%ADD32R,1.150000X1.600000*%
%ADD33R,1.400000X1.650000*%
G04 APERTURE END LIST*
D10*
D11*
X75946000Y-40485060D03*
X75946000Y-45366940D03*
D12*
X43180000Y-54419500D03*
D13*
X43180000Y-56896000D03*
X43180000Y-51896000D03*
X37180000Y-51896000D03*
X37180000Y-54396000D03*
X37180000Y-56896000D03*
D14*
X52832000Y-27686000D03*
D15*
X55372000Y-27686000D03*
X57912000Y-27686000D03*
X60452000Y-27686000D03*
D16*
X44770000Y-48006000D03*
X46670000Y-48006000D03*
D17*
X59055000Y-36068000D03*
D18*
X59055000Y-34068000D03*
X59055000Y-32068000D03*
D19*
X36830000Y-66730000D03*
X36830000Y-62230000D03*
X43330000Y-66730000D03*
X43330000Y-62230000D03*
D20*
X45720000Y-41910000D03*
D21*
X45720000Y-39370000D03*
D14*
X60452000Y-67818000D03*
D15*
X57912000Y-67818000D03*
X55372000Y-67818000D03*
X52832000Y-67818000D03*
D22*
X41148000Y-33020000D03*
D23*
X43348000Y-33020000D03*
X42708000Y-34580000D03*
X41148000Y-35220000D03*
X39588000Y-34580000D03*
X38948000Y-33020000D03*
X39588000Y-31460000D03*
X41148000Y-30820000D03*
X42708000Y-31460000D03*
D24*
X63627000Y-74803000D03*
D19*
X66167000Y-74803000D03*
D25*
X54763240Y-63808160D03*
X58663240Y-63808160D03*
D26*
X53136800Y-63799720D03*
X55737760Y-63799720D03*
X57033160Y-63799720D03*
X59639200Y-63804800D03*
D25*
X52813000Y-63798000D03*
X54113000Y-63798000D03*
X55413000Y-63798000D03*
X56713000Y-63798000D03*
X58013000Y-63798000D03*
X59313000Y-63798000D03*
X59963000Y-56598000D03*
X58663000Y-56598000D03*
X58013000Y-56598000D03*
X57363000Y-56598000D03*
X56713000Y-56598000D03*
X56063000Y-56598000D03*
X55413000Y-56598000D03*
X54763000Y-56598000D03*
X54113000Y-56598000D03*
X53463000Y-56598000D03*
X52813000Y-56598000D03*
D26*
X59639200Y-56603900D03*
D27*
X60992000Y-48343000D03*
X60992000Y-47843000D03*
X60992000Y-47343000D03*
X60992000Y-46843000D03*
X60992000Y-46343000D03*
X60992000Y-45843000D03*
X60992000Y-45343000D03*
X60992000Y-44843000D03*
X60992000Y-44343000D03*
X60992000Y-43843000D03*
X60992000Y-43343000D03*
X60992000Y-42843000D03*
D28*
X59392000Y-41243000D03*
X58892000Y-41243000D03*
X58392000Y-41243000D03*
X57892000Y-41243000D03*
X57392000Y-41243000D03*
X56892000Y-41243000D03*
X56392000Y-41243000D03*
X55892000Y-41243000D03*
X55392000Y-41243000D03*
X54892000Y-41243000D03*
X54392000Y-41243000D03*
X53892000Y-41243000D03*
D27*
X52292000Y-42843000D03*
X52292000Y-43343000D03*
X52292000Y-43843000D03*
X52292000Y-44343000D03*
X52292000Y-44843000D03*
X52292000Y-45343000D03*
X52292000Y-45843000D03*
X52292000Y-46343000D03*
X52292000Y-46843000D03*
X52292000Y-47343000D03*
X52292000Y-47843000D03*
X52292000Y-48343000D03*
D28*
X53892000Y-49943000D03*
X54392000Y-49943000D03*
X54892000Y-49943000D03*
X55392000Y-49943000D03*
X55892000Y-49943000D03*
X56392000Y-49943000D03*
X56892000Y-49943000D03*
X57392000Y-49943000D03*
X57892000Y-49943000D03*
X58392000Y-49943000D03*
X58892000Y-49943000D03*
X59392000Y-49943000D03*
D29*
X72339000Y-48216000D03*
X72339000Y-42716000D03*
X69139000Y-42716000D03*
X69139000Y-48216000D03*
D24*
X38100000Y-40640000D03*
D19*
X38100000Y-43180000D03*
X38100000Y-45680000D03*
D22*
X72136000Y-33020000D03*
D23*
X74336000Y-33020000D03*
X73696000Y-34580000D03*
X72136000Y-35220000D03*
X70576000Y-34580000D03*
X69936000Y-33020000D03*
X70576000Y-31460000D03*
X72136000Y-30820000D03*
X73696000Y-31460000D03*
D30*
X46820000Y-46736000D03*
X44620000Y-46736000D03*
X37127000Y-71628000D03*
X39327000Y-71628000D03*
X42207000Y-71628000D03*
X44407000Y-71628000D03*
X47287000Y-71628000D03*
X49487000Y-71628000D03*
X63797000Y-71628000D03*
X65997000Y-71628000D03*
X74592000Y-59563000D03*
X76792000Y-59563000D03*
X71712000Y-59563000D03*
X69512000Y-59563000D03*
X64686000Y-40386000D03*
X66886000Y-40386000D03*
D19*
X69850000Y-56570000D03*
X69850000Y-52070000D03*
X76350000Y-56570000D03*
X76350000Y-52070000D03*
X69850000Y-66730000D03*
X69850000Y-62230000D03*
X76350000Y-66730000D03*
X76350000Y-62230000D03*
D17*
X47117000Y-64008000D03*
D18*
X47117000Y-62008000D03*
X47117000Y-60008000D03*
X47117000Y-58008000D03*
X47117000Y-56008000D03*
X47117000Y-54008000D03*
D17*
X64897000Y-64008000D03*
D18*
X64897000Y-62008000D03*
X64897000Y-60008000D03*
X64897000Y-58008000D03*
X64897000Y-56008000D03*
X64897000Y-54008000D03*
D17*
X53086000Y-36068000D03*
D18*
X53086000Y-34068000D03*
X53086000Y-32068000D03*
D17*
X65024000Y-36068000D03*
D18*
X65024000Y-34068000D03*
X65024000Y-32068000D03*
D17*
X47117000Y-36068000D03*
D18*
X47117000Y-34068000D03*
X47117000Y-32068000D03*
D24*
X47117000Y-74803000D03*
D19*
X49657000Y-74803000D03*
D24*
X42037000Y-74803000D03*
D19*
X44577000Y-74803000D03*
D24*
X36957000Y-74803000D03*
D19*
X39497000Y-74803000D03*
D24*
X68707000Y-74803000D03*
D19*
X71247000Y-74803000D03*
D24*
X73787000Y-74803000D03*
D19*
X76327000Y-74803000D03*
D30*
X68877000Y-71628000D03*
X71077000Y-71628000D03*
X73957000Y-71628000D03*
X76157000Y-71628000D03*
D16*
X64963000Y-43180000D03*
X66863000Y-43180000D03*
X64963000Y-46990000D03*
X66863000Y-46990000D03*
X64963000Y-45720000D03*
X66863000Y-45720000D03*
D31*
X63373000Y-67564000D03*
X66675000Y-67564000D03*
X49911000Y-67564000D03*
X46609000Y-67564000D03*
D16*
X44770000Y-45212000D03*
X46670000Y-45212000D03*
X44770000Y-43942000D03*
X46670000Y-43942000D03*
X66863000Y-48260000D03*
X64963000Y-48260000D03*
D32*
X49784000Y-40828000D03*
X49784000Y-38928000D03*
X48514000Y-40828000D03*
X48514000Y-38928000D03*
D16*
X64963000Y-44450000D03*
X66863000Y-44450000D03*
D30*
X66886000Y-41783000D03*
X64686000Y-41783000D03*
X51478000Y-38862000D03*
X53678000Y-38862000D03*
D33*
X48244000Y-69596000D03*
X46244000Y-69596000D03*
X65040000Y-69596000D03*
X67040000Y-69596000D03*
D30*
X70274000Y-37592000D03*
X72474000Y-37592000D03*
X72474000Y-39370000D03*
X70274000Y-39370000D03*
M02*
