M48
INCH,TZ
T1C0.016
T2C0.020
T3C0.028
T4C0.032
T5C0.032
T6C0.039
T7C0.040
T8C0.043
T9C0.047
T10C0.126
%
G90
G05
T1
X15100Y-19100
X16900Y-17300
X16900Y-18100
X17100Y-17800
X19100Y-17300
X19600Y-27400
X20000Y-15800
X20300Y-20100
X20800Y-16200
X20800Y-19600
X21000Y-21200
X21400Y-15700
X21700Y-15500
X21800Y-24200
X22000Y-18600
X22100Y-21000
X22100Y-23000
X22900Y-18700
X23100Y-17900
X23300Y-20300
X23400Y-17400
X23800Y-19700
X24300Y-19400
X24600Y-17400
X24800Y-17100
X24900Y-15600
X26800Y-15400
X27000Y-15100
X28500Y-27100
X28800Y-27300
X29100Y-27500
T2
X15334Y-13000
X15586Y-12386
X15586Y-13614
X16200Y-12134
X16200Y-13866
X16814Y-12386
X16814Y-13614
X17066Y-13000
X27534Y-13000
X27786Y-12386
X27786Y-13614
X28400Y-12134
X28400Y-13866
X29014Y-12386
X29014Y-13614
X29266Y-13000
T3
X18550Y-12625
X18550Y-13413
X18550Y-14200
X18550Y-21263
X18550Y-22050
X18550Y-22838
X18550Y-23625
X18550Y-24413
X18550Y-25200
X20900Y-12625
X20900Y-13413
X20900Y-14200
X23250Y-12625
X23250Y-13413
X23250Y-14200
X25550Y-21263
X25550Y-22050
X25550Y-22838
X25550Y-23625
X25550Y-24413
X25550Y-25200
X25600Y-12625
X25600Y-13413
X25600Y-14200
T4
X29900Y-15939
X29900Y-17861
T5
X14638Y-20431
X14638Y-21416
X14638Y-22400
X17000Y-20431
X17000Y-21425
X17000Y-22400
T6
X14550Y-29450
X15550Y-29450
X16550Y-29450
X17550Y-29450
X18550Y-29450
X19550Y-29450
X25050Y-29450
X26050Y-29450
X27050Y-29450
X28050Y-29450
X29050Y-29450
X30050Y-29450
T7
X18000Y-15500
X18000Y-16500
X20800Y-10900
X20800Y-26700
X21800Y-10900
X21800Y-26700
X22800Y-10900
X22800Y-26700
X23800Y-10900
X23800Y-26700
T8
X14500Y-24500
X14500Y-26272
X17059Y-24500
X17059Y-26272
X27500Y-20500
X27500Y-22272
X27500Y-24500
X27500Y-26272
X30059Y-20500
X30059Y-22272
X30059Y-24500
X30059Y-26272
T9
X15000Y-16000
X15000Y-17000
X15000Y-17984
T10
X16200Y-13000
X28400Y-13000
T0
M30
