G04 #@! TF.FileFunction,Copper,L2,Bot,Signal*
%FSLAX46Y46*%
G04 Gerber Fmt 4.6, Leading zero omitted, Abs format (unit mm)*
G04 Created by KiCad (PCBNEW 4.0.4+dfsg1-stable) date Mon Jul 31 00:00:22 2017*
%MOMM*%
%LPD*%
G01*
G04 APERTURE LIST*
%ADD10C,0.100000*%
%ADD11C,1.501140*%
%ADD12R,1.397000X1.397000*%
%ADD13C,1.397000*%
%ADD14R,1.727200X2.032000*%
%ADD15O,1.727200X2.032000*%
%ADD16R,1.700000X1.200000*%
%ADD17O,1.700000X1.200000*%
%ADD18C,2.000000*%
%ADD19C,2.032000*%
%ADD20O,2.032000X2.032000*%
%ADD21C,5.800000*%
%ADD22C,0.600000*%
%ADD23R,2.000000X2.000000*%
%ADD24C,0.250000*%
%ADD25C,1.000000*%
%ADD26C,0.254000*%
G04 APERTURE END LIST*
D10*
D11*
X75946000Y-40485060D03*
X75946000Y-45366940D03*
D12*
X43180000Y-54419500D03*
D13*
X43180000Y-56896000D03*
X43180000Y-51896000D03*
X37180000Y-51896000D03*
X37180000Y-54396000D03*
X37180000Y-56896000D03*
D14*
X52832000Y-27686000D03*
D15*
X55372000Y-27686000D03*
X57912000Y-27686000D03*
X60452000Y-27686000D03*
D16*
X59055000Y-36068000D03*
D17*
X59055000Y-34068000D03*
X59055000Y-32068000D03*
D18*
X36830000Y-66730000D03*
X36830000Y-62230000D03*
X43330000Y-66730000D03*
X43330000Y-62230000D03*
D19*
X45720000Y-41910000D03*
D20*
X45720000Y-39370000D03*
D14*
X60452000Y-67818000D03*
D15*
X57912000Y-67818000D03*
X55372000Y-67818000D03*
X52832000Y-67818000D03*
D21*
X41148000Y-33020000D03*
D22*
X43348000Y-33020000D03*
X42708000Y-34580000D03*
X41148000Y-35220000D03*
X39588000Y-34580000D03*
X38948000Y-33020000D03*
X39588000Y-31460000D03*
X41148000Y-30820000D03*
X42708000Y-31460000D03*
D23*
X63627000Y-74803000D03*
D18*
X66167000Y-74803000D03*
D23*
X38100000Y-40640000D03*
D18*
X38100000Y-43180000D03*
X38100000Y-45680000D03*
D21*
X72136000Y-33020000D03*
D22*
X74336000Y-33020000D03*
X73696000Y-34580000D03*
X72136000Y-35220000D03*
X70576000Y-34580000D03*
X69936000Y-33020000D03*
X70576000Y-31460000D03*
X72136000Y-30820000D03*
X73696000Y-31460000D03*
D18*
X69850000Y-56570000D03*
X69850000Y-52070000D03*
X76350000Y-56570000D03*
X76350000Y-52070000D03*
X69850000Y-66730000D03*
X69850000Y-62230000D03*
X76350000Y-66730000D03*
X76350000Y-62230000D03*
D16*
X47117000Y-64008000D03*
D17*
X47117000Y-62008000D03*
X47117000Y-60008000D03*
X47117000Y-58008000D03*
X47117000Y-56008000D03*
X47117000Y-54008000D03*
D16*
X64897000Y-64008000D03*
D17*
X64897000Y-62008000D03*
X64897000Y-60008000D03*
X64897000Y-58008000D03*
X64897000Y-56008000D03*
X64897000Y-54008000D03*
D16*
X53086000Y-36068000D03*
D17*
X53086000Y-34068000D03*
X53086000Y-32068000D03*
D16*
X65024000Y-36068000D03*
D17*
X65024000Y-34068000D03*
X65024000Y-32068000D03*
D16*
X47117000Y-36068000D03*
D17*
X47117000Y-34068000D03*
X47117000Y-32068000D03*
D23*
X47117000Y-74803000D03*
D18*
X49657000Y-74803000D03*
D23*
X42037000Y-74803000D03*
D18*
X44577000Y-74803000D03*
D23*
X36957000Y-74803000D03*
D18*
X39497000Y-74803000D03*
D23*
X68707000Y-74803000D03*
D18*
X71247000Y-74803000D03*
D23*
X73787000Y-74803000D03*
D18*
X76327000Y-74803000D03*
D22*
X56134000Y-58420000D03*
X50800000Y-40132000D03*
X43434000Y-45212000D03*
X52832000Y-41148000D03*
X55880000Y-47244000D03*
X61722000Y-49276000D03*
X59436000Y-44196000D03*
X60452000Y-50038000D03*
X49784000Y-69596000D03*
X51562000Y-51054000D03*
X59182000Y-51562000D03*
X38354000Y-48514000D03*
X42926000Y-45974000D03*
X58674000Y-45466000D03*
X62484000Y-44196000D03*
X62992000Y-43434000D03*
X53340000Y-53848000D03*
X55372000Y-61468000D03*
X48514000Y-43942000D03*
X42926000Y-43942000D03*
X72390000Y-68834000D03*
X63246000Y-39624000D03*
X56134000Y-53340000D03*
X52832000Y-49784000D03*
X58166000Y-47498000D03*
X73152000Y-69342000D03*
X68072000Y-39116000D03*
X73914000Y-69850000D03*
X68580000Y-38354000D03*
X54356000Y-39878000D03*
X55118000Y-39370000D03*
D24*
X64897000Y-62008000D02*
X69628000Y-62008000D01*
X69628000Y-62008000D02*
X69850000Y-62230000D01*
X69628000Y-62008000D02*
X69850000Y-62230000D01*
D25*
X43180000Y-51896000D02*
X41990000Y-51896000D01*
X42672000Y-41910000D02*
X45720000Y-41910000D01*
X41148000Y-43434000D02*
X42672000Y-41910000D01*
X41148000Y-51054000D02*
X41148000Y-43434000D01*
X41990000Y-51896000D02*
X41148000Y-51054000D01*
X43180000Y-51896000D02*
X48848000Y-51896000D01*
X49784000Y-52832000D02*
X48848000Y-51896000D01*
X49784000Y-52832000D02*
X49784000Y-69596000D01*
X43180000Y-51896000D02*
X43180000Y-50800000D01*
X50292000Y-49784000D02*
X51562000Y-51054000D01*
X44196000Y-49784000D02*
X50292000Y-49784000D01*
X43180000Y-50800000D02*
X44196000Y-49784000D01*
X52070000Y-51562000D02*
X59182000Y-51562000D01*
X51562000Y-51054000D02*
X52070000Y-51562000D01*
D24*
X41402000Y-64802000D02*
X43330000Y-66730000D01*
X41402000Y-59690000D02*
X41402000Y-64802000D01*
X38354000Y-56642000D02*
X41402000Y-59690000D01*
X38354000Y-48514000D02*
X38354000Y-56642000D01*
X36830000Y-66730000D02*
X43330000Y-66730000D01*
X42854000Y-66730000D02*
X43330000Y-66730000D01*
X58166000Y-45974000D02*
X42926000Y-45974000D01*
X58674000Y-45466000D02*
X58166000Y-45974000D01*
X64897000Y-60008000D02*
X63818000Y-60008000D01*
X62484000Y-58674000D02*
X62484000Y-44196000D01*
X63818000Y-60008000D02*
X62484000Y-58674000D01*
X63850000Y-58008000D02*
X64897000Y-58008000D01*
X63246000Y-57404000D02*
X63850000Y-58008000D01*
X63246000Y-43688000D02*
X63246000Y-57404000D01*
X62992000Y-43434000D02*
X63246000Y-43688000D01*
X57912000Y-61468000D02*
X57912000Y-67818000D01*
X53340000Y-56896000D02*
X57912000Y-61468000D01*
X53340000Y-53848000D02*
X53340000Y-56896000D01*
X55372000Y-67818000D02*
X55372000Y-61468000D01*
X42926000Y-43942000D02*
X48514000Y-43942000D01*
X72390000Y-44704000D02*
X72390000Y-68834000D01*
X67310000Y-39624000D02*
X72390000Y-44704000D01*
X63246000Y-39624000D02*
X67310000Y-39624000D01*
X69850000Y-57912000D02*
X69850000Y-56570000D01*
X66802000Y-60960000D02*
X69850000Y-57912000D01*
X63754000Y-60960000D02*
X66802000Y-60960000D01*
X56134000Y-53340000D02*
X63754000Y-60960000D01*
X69850000Y-66730000D02*
X69850000Y-69850000D01*
X76350000Y-69954000D02*
X76350000Y-66730000D01*
X74930000Y-71374000D02*
X76350000Y-69954000D01*
X71374000Y-71374000D02*
X74930000Y-71374000D01*
X69850000Y-69850000D02*
X71374000Y-71374000D01*
X52832000Y-49530000D02*
X52832000Y-49784000D01*
X53594000Y-48768000D02*
X52832000Y-49530000D01*
X56896000Y-48768000D02*
X53594000Y-48768000D01*
X58166000Y-47498000D02*
X56896000Y-48768000D01*
X73152000Y-69342000D02*
X73152000Y-43942000D01*
X73152000Y-43942000D02*
X68326000Y-39116000D01*
X68326000Y-39116000D02*
X68072000Y-39116000D01*
X73914000Y-43688000D02*
X73914000Y-69850000D01*
X68580000Y-38354000D02*
X73914000Y-43688000D01*
D25*
X38100000Y-45680000D02*
X38100000Y-46228000D01*
X38100000Y-46228000D02*
X39624000Y-47752000D01*
X39624000Y-47752000D02*
X39624000Y-55372000D01*
X39624000Y-55372000D02*
X41148000Y-56896000D01*
X41148000Y-56896000D02*
X43180000Y-56896000D01*
D24*
X56388000Y-29972000D02*
X57912000Y-28448000D01*
X56388000Y-35814000D02*
X56388000Y-29972000D01*
X54356000Y-37846000D02*
X56388000Y-35814000D01*
X54356000Y-39878000D02*
X54356000Y-37846000D01*
X57912000Y-28448000D02*
X57912000Y-27686000D01*
X57150000Y-30988000D02*
X60452000Y-27686000D01*
X57150000Y-36068000D02*
X57150000Y-30988000D01*
X55118000Y-38100000D02*
X57150000Y-36068000D01*
X55118000Y-39370000D02*
X55118000Y-38100000D01*
X60452000Y-28448000D02*
X60452000Y-27686000D01*
D26*
G36*
X52857400Y-26384250D02*
X52857400Y-27660600D01*
X53981350Y-27660600D01*
X54076600Y-27565350D01*
X54076600Y-27507289D01*
X54181400Y-27507289D01*
X54181400Y-27864711D01*
X54272029Y-28320334D01*
X54530119Y-28706592D01*
X54916377Y-28964682D01*
X55372000Y-29055311D01*
X55827623Y-28964682D01*
X56213881Y-28706592D01*
X56471971Y-28320334D01*
X56562600Y-27864711D01*
X56562600Y-27507289D01*
X56471971Y-27051666D01*
X56213881Y-26665408D01*
X55827623Y-26407318D01*
X55372000Y-26316689D01*
X54916377Y-26407318D01*
X54530119Y-26665408D01*
X54272029Y-27051666D01*
X54181400Y-27507289D01*
X54076600Y-27507289D01*
X54076600Y-26594214D01*
X54018596Y-26454180D01*
X53911419Y-26347004D01*
X53771385Y-26289000D01*
X61316020Y-26289000D01*
X61687642Y-26362920D01*
X62196842Y-26703158D01*
X62537080Y-27212358D01*
X62669322Y-27877184D01*
X62669322Y-27877185D01*
X62765995Y-28363192D01*
X62815119Y-28481790D01*
X63090420Y-28893808D01*
X63181192Y-28984580D01*
X63593209Y-29259880D01*
X63711807Y-29309005D01*
X64197815Y-29405678D01*
X64230218Y-29405678D01*
X64262000Y-29412000D01*
X72484598Y-29412000D01*
X74575666Y-29827939D01*
X76199034Y-30912640D01*
X76402360Y-31115966D01*
X77487061Y-32739334D01*
X77851000Y-34568979D01*
X77851000Y-75667021D01*
X77777080Y-76038642D01*
X77548175Y-76381221D01*
X76910287Y-76891532D01*
X76294598Y-77014000D01*
X36989401Y-77014000D01*
X36356358Y-76888080D01*
X35847158Y-76547842D01*
X35506920Y-76038642D01*
X35433000Y-75667020D01*
X35433000Y-73803000D01*
X35623594Y-73803000D01*
X35623594Y-75803000D01*
X35646395Y-75924179D01*
X35718012Y-76035474D01*
X35827286Y-76110138D01*
X35957000Y-76136406D01*
X37957000Y-76136406D01*
X38078179Y-76113605D01*
X38189474Y-76041988D01*
X38264138Y-75932714D01*
X38290406Y-75803000D01*
X38290406Y-75357757D01*
X38371369Y-75553703D01*
X38744334Y-75927319D01*
X39231885Y-76129769D01*
X39759798Y-76130229D01*
X40247703Y-75928631D01*
X40621319Y-75555666D01*
X40703594Y-75357527D01*
X40703594Y-75803000D01*
X40726395Y-75924179D01*
X40798012Y-76035474D01*
X40907286Y-76110138D01*
X41037000Y-76136406D01*
X43037000Y-76136406D01*
X43158179Y-76113605D01*
X43269474Y-76041988D01*
X43344138Y-75932714D01*
X43370406Y-75803000D01*
X43370406Y-75357757D01*
X43451369Y-75553703D01*
X43824334Y-75927319D01*
X44311885Y-76129769D01*
X44839798Y-76130229D01*
X45327703Y-75928631D01*
X45701319Y-75555666D01*
X45783594Y-75357527D01*
X45783594Y-75803000D01*
X45806395Y-75924179D01*
X45878012Y-76035474D01*
X45987286Y-76110138D01*
X46117000Y-76136406D01*
X48117000Y-76136406D01*
X48238179Y-76113605D01*
X48349474Y-76041988D01*
X48424138Y-75932714D01*
X48450406Y-75803000D01*
X48450406Y-75357757D01*
X48531369Y-75553703D01*
X48904334Y-75927319D01*
X49391885Y-76129769D01*
X49919798Y-76130229D01*
X50407703Y-75928631D01*
X50781319Y-75555666D01*
X50983769Y-75068115D01*
X50984229Y-74540202D01*
X50782631Y-74052297D01*
X50533769Y-73803000D01*
X62293594Y-73803000D01*
X62293594Y-75803000D01*
X62316395Y-75924179D01*
X62388012Y-76035474D01*
X62497286Y-76110138D01*
X62627000Y-76136406D01*
X64627000Y-76136406D01*
X64748179Y-76113605D01*
X64859474Y-76041988D01*
X64934138Y-75932714D01*
X64960406Y-75803000D01*
X64960406Y-75357757D01*
X65041369Y-75553703D01*
X65414334Y-75927319D01*
X65901885Y-76129769D01*
X66429798Y-76130229D01*
X66917703Y-75928631D01*
X67291319Y-75555666D01*
X67373594Y-75357527D01*
X67373594Y-75803000D01*
X67396395Y-75924179D01*
X67468012Y-76035474D01*
X67577286Y-76110138D01*
X67707000Y-76136406D01*
X69707000Y-76136406D01*
X69828179Y-76113605D01*
X69939474Y-76041988D01*
X70014138Y-75932714D01*
X70040406Y-75803000D01*
X70040406Y-75357757D01*
X70121369Y-75553703D01*
X70494334Y-75927319D01*
X70981885Y-76129769D01*
X71509798Y-76130229D01*
X71997703Y-75928631D01*
X72371319Y-75555666D01*
X72453594Y-75357527D01*
X72453594Y-75803000D01*
X72476395Y-75924179D01*
X72548012Y-76035474D01*
X72657286Y-76110138D01*
X72787000Y-76136406D01*
X74787000Y-76136406D01*
X74908179Y-76113605D01*
X75019474Y-76041988D01*
X75094138Y-75932714D01*
X75120406Y-75803000D01*
X75120406Y-75357757D01*
X75201369Y-75553703D01*
X75574334Y-75927319D01*
X76061885Y-76129769D01*
X76589798Y-76130229D01*
X77077703Y-75928631D01*
X77451319Y-75555666D01*
X77653769Y-75068115D01*
X77654229Y-74540202D01*
X77452631Y-74052297D01*
X77079666Y-73678681D01*
X76592115Y-73476231D01*
X76064202Y-73475771D01*
X75576297Y-73677369D01*
X75202681Y-74050334D01*
X75120406Y-74248473D01*
X75120406Y-73803000D01*
X75097605Y-73681821D01*
X75025988Y-73570526D01*
X74916714Y-73495862D01*
X74787000Y-73469594D01*
X72787000Y-73469594D01*
X72665821Y-73492395D01*
X72554526Y-73564012D01*
X72479862Y-73673286D01*
X72453594Y-73803000D01*
X72453594Y-74248243D01*
X72372631Y-74052297D01*
X71999666Y-73678681D01*
X71512115Y-73476231D01*
X70984202Y-73475771D01*
X70496297Y-73677369D01*
X70122681Y-74050334D01*
X70040406Y-74248473D01*
X70040406Y-73803000D01*
X70017605Y-73681821D01*
X69945988Y-73570526D01*
X69836714Y-73495862D01*
X69707000Y-73469594D01*
X67707000Y-73469594D01*
X67585821Y-73492395D01*
X67474526Y-73564012D01*
X67399862Y-73673286D01*
X67373594Y-73803000D01*
X67373594Y-74248243D01*
X67292631Y-74052297D01*
X66919666Y-73678681D01*
X66432115Y-73476231D01*
X65904202Y-73475771D01*
X65416297Y-73677369D01*
X65042681Y-74050334D01*
X64960406Y-74248473D01*
X64960406Y-73803000D01*
X64937605Y-73681821D01*
X64865988Y-73570526D01*
X64756714Y-73495862D01*
X64627000Y-73469594D01*
X62627000Y-73469594D01*
X62505821Y-73492395D01*
X62394526Y-73564012D01*
X62319862Y-73673286D01*
X62293594Y-73803000D01*
X50533769Y-73803000D01*
X50409666Y-73678681D01*
X49922115Y-73476231D01*
X49394202Y-73475771D01*
X48906297Y-73677369D01*
X48532681Y-74050334D01*
X48450406Y-74248473D01*
X48450406Y-73803000D01*
X48427605Y-73681821D01*
X48355988Y-73570526D01*
X48246714Y-73495862D01*
X48117000Y-73469594D01*
X46117000Y-73469594D01*
X45995821Y-73492395D01*
X45884526Y-73564012D01*
X45809862Y-73673286D01*
X45783594Y-73803000D01*
X45783594Y-74248243D01*
X45702631Y-74052297D01*
X45329666Y-73678681D01*
X44842115Y-73476231D01*
X44314202Y-73475771D01*
X43826297Y-73677369D01*
X43452681Y-74050334D01*
X43370406Y-74248473D01*
X43370406Y-73803000D01*
X43347605Y-73681821D01*
X43275988Y-73570526D01*
X43166714Y-73495862D01*
X43037000Y-73469594D01*
X41037000Y-73469594D01*
X40915821Y-73492395D01*
X40804526Y-73564012D01*
X40729862Y-73673286D01*
X40703594Y-73803000D01*
X40703594Y-74248243D01*
X40622631Y-74052297D01*
X40249666Y-73678681D01*
X39762115Y-73476231D01*
X39234202Y-73475771D01*
X38746297Y-73677369D01*
X38372681Y-74050334D01*
X38290406Y-74248473D01*
X38290406Y-73803000D01*
X38267605Y-73681821D01*
X38195988Y-73570526D01*
X38086714Y-73495862D01*
X37957000Y-73469594D01*
X35957000Y-73469594D01*
X35835821Y-73492395D01*
X35724526Y-73564012D01*
X35649862Y-73673286D01*
X35623594Y-73803000D01*
X35433000Y-73803000D01*
X35433000Y-66992798D01*
X35502771Y-66992798D01*
X35704369Y-67480703D01*
X36077334Y-67854319D01*
X36564885Y-68056769D01*
X37092798Y-68057229D01*
X37580703Y-67855631D01*
X37954319Y-67482666D01*
X38079167Y-67182000D01*
X42080948Y-67182000D01*
X42204369Y-67480703D01*
X42577334Y-67854319D01*
X43064885Y-68056769D01*
X43592798Y-68057229D01*
X44080703Y-67855631D01*
X44454319Y-67482666D01*
X44656769Y-66995115D01*
X44657229Y-66467202D01*
X44455631Y-65979297D01*
X44082666Y-65605681D01*
X43595115Y-65403231D01*
X43067202Y-65402771D01*
X42766318Y-65527094D01*
X41854000Y-64614776D01*
X41854000Y-62492798D01*
X42002771Y-62492798D01*
X42204369Y-62980703D01*
X42577334Y-63354319D01*
X43064885Y-63556769D01*
X43592798Y-63557229D01*
X43953960Y-63408000D01*
X45933594Y-63408000D01*
X45933594Y-64608000D01*
X45956395Y-64729179D01*
X46028012Y-64840474D01*
X46137286Y-64915138D01*
X46267000Y-64941406D01*
X47967000Y-64941406D01*
X48088179Y-64918605D01*
X48199474Y-64846988D01*
X48274138Y-64737714D01*
X48300406Y-64608000D01*
X48300406Y-63408000D01*
X48277605Y-63286821D01*
X48205988Y-63175526D01*
X48096714Y-63100862D01*
X47967000Y-63074594D01*
X46267000Y-63074594D01*
X46145821Y-63097395D01*
X46034526Y-63169012D01*
X45959862Y-63278286D01*
X45933594Y-63408000D01*
X43953960Y-63408000D01*
X44080703Y-63355631D01*
X44454319Y-62982666D01*
X44656769Y-62495115D01*
X44657037Y-62186498D01*
X45902376Y-62186498D01*
X45950954Y-62359947D01*
X46155368Y-62683712D01*
X46468121Y-62904606D01*
X46841600Y-62989000D01*
X47091600Y-62989000D01*
X47091600Y-62033400D01*
X47142400Y-62033400D01*
X47142400Y-62989000D01*
X47392400Y-62989000D01*
X47765879Y-62904606D01*
X48078632Y-62683712D01*
X48283046Y-62359947D01*
X48331624Y-62186498D01*
X48252386Y-62033400D01*
X47142400Y-62033400D01*
X47091600Y-62033400D01*
X45981614Y-62033400D01*
X45902376Y-62186498D01*
X44657037Y-62186498D01*
X44657229Y-61967202D01*
X44600333Y-61829502D01*
X45902376Y-61829502D01*
X45981614Y-61982600D01*
X47091600Y-61982600D01*
X47091600Y-61027000D01*
X47142400Y-61027000D01*
X47142400Y-61982600D01*
X48252386Y-61982600D01*
X48331624Y-61829502D01*
X48283046Y-61656053D01*
X48078632Y-61332288D01*
X47765879Y-61111394D01*
X47392400Y-61027000D01*
X47142400Y-61027000D01*
X47091600Y-61027000D01*
X46841600Y-61027000D01*
X46468121Y-61111394D01*
X46155368Y-61332288D01*
X45950954Y-61656053D01*
X45902376Y-61829502D01*
X44600333Y-61829502D01*
X44455631Y-61479297D01*
X44082666Y-61105681D01*
X43595115Y-60903231D01*
X43067202Y-60902771D01*
X42579297Y-61104369D01*
X42205681Y-61477334D01*
X42003231Y-61964885D01*
X42002771Y-62492798D01*
X41854000Y-62492798D01*
X41854000Y-60008000D01*
X45916941Y-60008000D01*
X45987505Y-60362748D01*
X46188453Y-60663488D01*
X46489193Y-60864436D01*
X46843941Y-60935000D01*
X47390059Y-60935000D01*
X47744807Y-60864436D01*
X48045547Y-60663488D01*
X48246495Y-60362748D01*
X48317059Y-60008000D01*
X48246495Y-59653252D01*
X48045547Y-59352512D01*
X47744807Y-59151564D01*
X47390059Y-59081000D01*
X46843941Y-59081000D01*
X46489193Y-59151564D01*
X46188453Y-59352512D01*
X45987505Y-59653252D01*
X45916941Y-60008000D01*
X41854000Y-60008000D01*
X41854000Y-59690000D01*
X41819594Y-59517027D01*
X41721612Y-59370388D01*
X40359224Y-58008000D01*
X45916941Y-58008000D01*
X45987505Y-58362748D01*
X46188453Y-58663488D01*
X46489193Y-58864436D01*
X46843941Y-58935000D01*
X47390059Y-58935000D01*
X47744807Y-58864436D01*
X48045547Y-58663488D01*
X48246495Y-58362748D01*
X48317059Y-58008000D01*
X48246495Y-57653252D01*
X48045547Y-57352512D01*
X47744807Y-57151564D01*
X47390059Y-57081000D01*
X46843941Y-57081000D01*
X46489193Y-57151564D01*
X46188453Y-57352512D01*
X45987505Y-57653252D01*
X45916941Y-58008000D01*
X40359224Y-58008000D01*
X38806000Y-56454776D01*
X38806000Y-55417246D01*
X38859952Y-55688479D01*
X39039223Y-55956777D01*
X40563222Y-57480777D01*
X40821350Y-57653252D01*
X40831521Y-57660048D01*
X41148000Y-57723000D01*
X42556545Y-57723000D01*
X42598342Y-57764870D01*
X42975120Y-57921322D01*
X43383090Y-57921678D01*
X43760140Y-57765884D01*
X44048870Y-57477658D01*
X44205322Y-57100880D01*
X44205678Y-56692910D01*
X44049884Y-56315860D01*
X43761658Y-56027130D01*
X43715588Y-56008000D01*
X45916941Y-56008000D01*
X45987505Y-56362748D01*
X46188453Y-56663488D01*
X46489193Y-56864436D01*
X46843941Y-56935000D01*
X47390059Y-56935000D01*
X47744807Y-56864436D01*
X48045547Y-56663488D01*
X48246495Y-56362748D01*
X48317059Y-56008000D01*
X48246495Y-55653252D01*
X48045547Y-55352512D01*
X47744807Y-55151564D01*
X47390059Y-55081000D01*
X46843941Y-55081000D01*
X46489193Y-55151564D01*
X46188453Y-55352512D01*
X45987505Y-55653252D01*
X45916941Y-56008000D01*
X43715588Y-56008000D01*
X43384880Y-55870678D01*
X42976910Y-55870322D01*
X42599860Y-56026116D01*
X42556901Y-56069000D01*
X41490555Y-56069000D01*
X40451000Y-55029446D01*
X40451000Y-53721000D01*
X42148094Y-53721000D01*
X42148094Y-55118000D01*
X42170895Y-55239179D01*
X42242512Y-55350474D01*
X42351786Y-55425138D01*
X42481500Y-55451406D01*
X43878500Y-55451406D01*
X43999679Y-55428605D01*
X44110974Y-55356988D01*
X44185638Y-55247714D01*
X44211906Y-55118000D01*
X44211906Y-54008000D01*
X45916941Y-54008000D01*
X45987505Y-54362748D01*
X46188453Y-54663488D01*
X46489193Y-54864436D01*
X46843941Y-54935000D01*
X47390059Y-54935000D01*
X47744807Y-54864436D01*
X48045547Y-54663488D01*
X48246495Y-54362748D01*
X48317059Y-54008000D01*
X48246495Y-53653252D01*
X48045547Y-53352512D01*
X47744807Y-53151564D01*
X47390059Y-53081000D01*
X46843941Y-53081000D01*
X46489193Y-53151564D01*
X46188453Y-53352512D01*
X45987505Y-53653252D01*
X45916941Y-54008000D01*
X44211906Y-54008000D01*
X44211906Y-53721000D01*
X44189105Y-53599821D01*
X44117488Y-53488526D01*
X44008214Y-53413862D01*
X43878500Y-53387594D01*
X42481500Y-53387594D01*
X42360321Y-53410395D01*
X42249026Y-53482012D01*
X42174362Y-53591286D01*
X42148094Y-53721000D01*
X40451000Y-53721000D01*
X40451000Y-51470823D01*
X40563223Y-51638777D01*
X41405223Y-52480777D01*
X41673521Y-52660048D01*
X41990000Y-52723000D01*
X42556545Y-52723000D01*
X42598342Y-52764870D01*
X42975120Y-52921322D01*
X43383090Y-52921678D01*
X43760140Y-52765884D01*
X43803099Y-52723000D01*
X48505446Y-52723000D01*
X48957000Y-53174554D01*
X48957000Y-69596000D01*
X49019952Y-69912479D01*
X49199223Y-70180777D01*
X49467521Y-70360048D01*
X49784000Y-70423000D01*
X50100479Y-70360048D01*
X50368777Y-70180777D01*
X50548048Y-69912479D01*
X50611000Y-69596000D01*
X50611000Y-67843400D01*
X51587400Y-67843400D01*
X51587400Y-67995800D01*
X51691860Y-68470154D01*
X51969896Y-68868425D01*
X52379179Y-69129980D01*
X52612255Y-69195448D01*
X52806600Y-69119469D01*
X52806600Y-67843400D01*
X52857400Y-67843400D01*
X52857400Y-69119469D01*
X53051745Y-69195448D01*
X53284821Y-69129980D01*
X53694104Y-68868425D01*
X53972140Y-68470154D01*
X54076600Y-67995800D01*
X54076600Y-67843400D01*
X52857400Y-67843400D01*
X52806600Y-67843400D01*
X51587400Y-67843400D01*
X50611000Y-67843400D01*
X50611000Y-67640200D01*
X51587400Y-67640200D01*
X51587400Y-67792600D01*
X52806600Y-67792600D01*
X52806600Y-66516531D01*
X52857400Y-66516531D01*
X52857400Y-67792600D01*
X54076600Y-67792600D01*
X54076600Y-67640200D01*
X54076400Y-67639289D01*
X54181400Y-67639289D01*
X54181400Y-67996711D01*
X54272029Y-68452334D01*
X54530119Y-68838592D01*
X54916377Y-69096682D01*
X55372000Y-69187311D01*
X55827623Y-69096682D01*
X56213881Y-68838592D01*
X56471971Y-68452334D01*
X56562600Y-67996711D01*
X56562600Y-67639289D01*
X56471971Y-67183666D01*
X56213881Y-66797408D01*
X55827623Y-66539318D01*
X55824000Y-66538597D01*
X55824000Y-61902728D01*
X55903235Y-61823631D01*
X55998891Y-61593265D01*
X55999109Y-61343829D01*
X55903855Y-61113297D01*
X55727631Y-60936765D01*
X55497265Y-60841109D01*
X55247829Y-60840891D01*
X55017297Y-60936145D01*
X54840765Y-61112369D01*
X54745109Y-61342735D01*
X54744891Y-61592171D01*
X54840145Y-61822703D01*
X54920000Y-61902698D01*
X54920000Y-66538597D01*
X54916377Y-66539318D01*
X54530119Y-66797408D01*
X54272029Y-67183666D01*
X54181400Y-67639289D01*
X54076400Y-67639289D01*
X53972140Y-67165846D01*
X53694104Y-66767575D01*
X53284821Y-66506020D01*
X53051745Y-66440552D01*
X52857400Y-66516531D01*
X52806600Y-66516531D01*
X52612255Y-66440552D01*
X52379179Y-66506020D01*
X51969896Y-66767575D01*
X51691860Y-67165846D01*
X51587400Y-67640200D01*
X50611000Y-67640200D01*
X50611000Y-53972171D01*
X52712891Y-53972171D01*
X52808145Y-54202703D01*
X52888000Y-54282698D01*
X52888000Y-56896000D01*
X52922406Y-57068973D01*
X53020388Y-57215612D01*
X57460000Y-61655225D01*
X57460000Y-66538597D01*
X57456377Y-66539318D01*
X57070119Y-66797408D01*
X56812029Y-67183666D01*
X56721400Y-67639289D01*
X56721400Y-67996711D01*
X56812029Y-68452334D01*
X57070119Y-68838592D01*
X57456377Y-69096682D01*
X57912000Y-69187311D01*
X58367623Y-69096682D01*
X58753881Y-68838592D01*
X59011971Y-68452334D01*
X59102600Y-67996711D01*
X59102600Y-67639289D01*
X59011971Y-67183666D01*
X58756950Y-66802000D01*
X59254994Y-66802000D01*
X59254994Y-68834000D01*
X59277795Y-68955179D01*
X59349412Y-69066474D01*
X59458686Y-69141138D01*
X59588400Y-69167406D01*
X61315600Y-69167406D01*
X61436779Y-69144605D01*
X61548074Y-69072988D01*
X61622738Y-68963714D01*
X61649006Y-68834000D01*
X61649006Y-66992798D01*
X68522771Y-66992798D01*
X68724369Y-67480703D01*
X69097334Y-67854319D01*
X69398000Y-67979167D01*
X69398000Y-69850000D01*
X69432406Y-70022973D01*
X69530388Y-70169612D01*
X71054387Y-71693612D01*
X71201027Y-71791594D01*
X71374000Y-71826000D01*
X74930000Y-71826000D01*
X75102973Y-71791594D01*
X75249612Y-71693612D01*
X76669612Y-70273612D01*
X76767594Y-70126973D01*
X76802000Y-69954000D01*
X76802000Y-67979052D01*
X77100703Y-67855631D01*
X77474319Y-67482666D01*
X77676769Y-66995115D01*
X77677229Y-66467202D01*
X77475631Y-65979297D01*
X77102666Y-65605681D01*
X76615115Y-65403231D01*
X76087202Y-65402771D01*
X75599297Y-65604369D01*
X75225681Y-65977334D01*
X75023231Y-66464885D01*
X75022771Y-66992798D01*
X75224369Y-67480703D01*
X75597334Y-67854319D01*
X75898000Y-67979167D01*
X75898000Y-69766776D01*
X74742776Y-70922000D01*
X71561225Y-70922000D01*
X70302000Y-69662776D01*
X70302000Y-67979052D01*
X70600703Y-67855631D01*
X70974319Y-67482666D01*
X71176769Y-66995115D01*
X71177229Y-66467202D01*
X70975631Y-65979297D01*
X70602666Y-65605681D01*
X70115115Y-65403231D01*
X69587202Y-65402771D01*
X69099297Y-65604369D01*
X68725681Y-65977334D01*
X68523231Y-66464885D01*
X68522771Y-66992798D01*
X61649006Y-66992798D01*
X61649006Y-66802000D01*
X61626205Y-66680821D01*
X61554588Y-66569526D01*
X61445314Y-66494862D01*
X61315600Y-66468594D01*
X59588400Y-66468594D01*
X59467221Y-66491395D01*
X59355926Y-66563012D01*
X59281262Y-66672286D01*
X59254994Y-66802000D01*
X58756950Y-66802000D01*
X58753881Y-66797408D01*
X58367623Y-66539318D01*
X58364000Y-66538597D01*
X58364000Y-63408000D01*
X63713594Y-63408000D01*
X63713594Y-64608000D01*
X63736395Y-64729179D01*
X63808012Y-64840474D01*
X63917286Y-64915138D01*
X64047000Y-64941406D01*
X65747000Y-64941406D01*
X65868179Y-64918605D01*
X65979474Y-64846988D01*
X66054138Y-64737714D01*
X66080406Y-64608000D01*
X66080406Y-63408000D01*
X66057605Y-63286821D01*
X65986345Y-63176080D01*
X68939841Y-63176080D01*
X69043050Y-63383885D01*
X69546047Y-63604857D01*
X70095319Y-63616520D01*
X70607244Y-63417099D01*
X70656950Y-63383885D01*
X70760159Y-63176080D01*
X69850000Y-62265921D01*
X68939841Y-63176080D01*
X65986345Y-63176080D01*
X65985988Y-63175526D01*
X65876714Y-63100862D01*
X65747000Y-63074594D01*
X64047000Y-63074594D01*
X63925821Y-63097395D01*
X63814526Y-63169012D01*
X63739862Y-63278286D01*
X63713594Y-63408000D01*
X58364000Y-63408000D01*
X58364000Y-62186498D01*
X63682376Y-62186498D01*
X63730954Y-62359947D01*
X63935368Y-62683712D01*
X64248121Y-62904606D01*
X64621600Y-62989000D01*
X64871600Y-62989000D01*
X64871600Y-62033400D01*
X64922400Y-62033400D01*
X64922400Y-62989000D01*
X65172400Y-62989000D01*
X65545879Y-62904606D01*
X65858632Y-62683712D01*
X65990204Y-62475319D01*
X68463480Y-62475319D01*
X68662901Y-62987244D01*
X68696115Y-63036950D01*
X68903920Y-63140159D01*
X69814079Y-62230000D01*
X69885921Y-62230000D01*
X70796080Y-63140159D01*
X71003885Y-63036950D01*
X71224857Y-62533953D01*
X71236520Y-61984681D01*
X71037099Y-61472756D01*
X71003885Y-61423050D01*
X70796080Y-61319841D01*
X69885921Y-62230000D01*
X69814079Y-62230000D01*
X68903920Y-61319841D01*
X68696115Y-61423050D01*
X68475143Y-61926047D01*
X68463480Y-62475319D01*
X65990204Y-62475319D01*
X66063046Y-62359947D01*
X66111624Y-62186498D01*
X66032386Y-62033400D01*
X64922400Y-62033400D01*
X64871600Y-62033400D01*
X63761614Y-62033400D01*
X63682376Y-62186498D01*
X58364000Y-62186498D01*
X58364000Y-61468000D01*
X58329594Y-61295027D01*
X58231612Y-61148387D01*
X53792000Y-56708776D01*
X53792000Y-54282728D01*
X53871235Y-54203631D01*
X53966891Y-53973265D01*
X53967109Y-53723829D01*
X53871855Y-53493297D01*
X53842780Y-53464171D01*
X55506891Y-53464171D01*
X55602145Y-53694703D01*
X55778369Y-53871235D01*
X56008735Y-53966891D01*
X56121766Y-53966990D01*
X63434387Y-61279612D01*
X63581027Y-61377594D01*
X63754000Y-61412000D01*
X63885041Y-61412000D01*
X63730954Y-61656053D01*
X63682376Y-61829502D01*
X63761614Y-61982600D01*
X64871600Y-61982600D01*
X64871600Y-61962600D01*
X64922400Y-61962600D01*
X64922400Y-61982600D01*
X66032386Y-61982600D01*
X66111624Y-61829502D01*
X66063046Y-61656053D01*
X65908959Y-61412000D01*
X66802000Y-61412000D01*
X66974973Y-61377594D01*
X67115164Y-61283920D01*
X68939841Y-61283920D01*
X69850000Y-62194079D01*
X70760159Y-61283920D01*
X70656950Y-61076115D01*
X70153953Y-60855143D01*
X69604681Y-60843480D01*
X69092756Y-61042901D01*
X69043050Y-61076115D01*
X68939841Y-61283920D01*
X67115164Y-61283920D01*
X67121612Y-61279612D01*
X70169612Y-58231612D01*
X70267594Y-58084973D01*
X70302000Y-57912000D01*
X70302000Y-57819052D01*
X70600703Y-57695631D01*
X70974319Y-57322666D01*
X71176769Y-56835115D01*
X71177229Y-56307202D01*
X70975631Y-55819297D01*
X70602666Y-55445681D01*
X70115115Y-55243231D01*
X69587202Y-55242771D01*
X69099297Y-55444369D01*
X68725681Y-55817334D01*
X68523231Y-56304885D01*
X68522771Y-56832798D01*
X68724369Y-57320703D01*
X69097334Y-57694319D01*
X69331304Y-57791472D01*
X66614776Y-60508000D01*
X65929441Y-60508000D01*
X66026495Y-60362748D01*
X66097059Y-60008000D01*
X66026495Y-59653252D01*
X65825547Y-59352512D01*
X65524807Y-59151564D01*
X65170059Y-59081000D01*
X64623941Y-59081000D01*
X64269193Y-59151564D01*
X63968453Y-59352512D01*
X63901676Y-59452452D01*
X62936000Y-58486776D01*
X62936000Y-57733224D01*
X63530388Y-58327612D01*
X63677027Y-58425594D01*
X63829802Y-58455982D01*
X63968453Y-58663488D01*
X64269193Y-58864436D01*
X64623941Y-58935000D01*
X65170059Y-58935000D01*
X65524807Y-58864436D01*
X65825547Y-58663488D01*
X66026495Y-58362748D01*
X66097059Y-58008000D01*
X66026495Y-57653252D01*
X65825547Y-57352512D01*
X65524807Y-57151564D01*
X65170059Y-57081000D01*
X64623941Y-57081000D01*
X64269193Y-57151564D01*
X63968453Y-57352512D01*
X63914493Y-57433269D01*
X63698000Y-57216776D01*
X63698000Y-56013324D01*
X63767505Y-56362748D01*
X63968453Y-56663488D01*
X64269193Y-56864436D01*
X64623941Y-56935000D01*
X65170059Y-56935000D01*
X65524807Y-56864436D01*
X65825547Y-56663488D01*
X66026495Y-56362748D01*
X66097059Y-56008000D01*
X66026495Y-55653252D01*
X65825547Y-55352512D01*
X65524807Y-55151564D01*
X65170059Y-55081000D01*
X64623941Y-55081000D01*
X64269193Y-55151564D01*
X63968453Y-55352512D01*
X63767505Y-55653252D01*
X63698000Y-56002676D01*
X63698000Y-54013324D01*
X63767505Y-54362748D01*
X63968453Y-54663488D01*
X64269193Y-54864436D01*
X64623941Y-54935000D01*
X65170059Y-54935000D01*
X65524807Y-54864436D01*
X65825547Y-54663488D01*
X66026495Y-54362748D01*
X66097059Y-54008000D01*
X66026495Y-53653252D01*
X65825547Y-53352512D01*
X65524807Y-53151564D01*
X65170059Y-53081000D01*
X64623941Y-53081000D01*
X64269193Y-53151564D01*
X63968453Y-53352512D01*
X63767505Y-53653252D01*
X63698000Y-54002676D01*
X63698000Y-53016080D01*
X68939841Y-53016080D01*
X69043050Y-53223885D01*
X69546047Y-53444857D01*
X70095319Y-53456520D01*
X70607244Y-53257099D01*
X70656950Y-53223885D01*
X70760159Y-53016080D01*
X69850000Y-52105921D01*
X68939841Y-53016080D01*
X63698000Y-53016080D01*
X63698000Y-52315319D01*
X68463480Y-52315319D01*
X68662901Y-52827244D01*
X68696115Y-52876950D01*
X68903920Y-52980159D01*
X69814079Y-52070000D01*
X69885921Y-52070000D01*
X70796080Y-52980159D01*
X71003885Y-52876950D01*
X71224857Y-52373953D01*
X71236520Y-51824681D01*
X71037099Y-51312756D01*
X71003885Y-51263050D01*
X70796080Y-51159841D01*
X69885921Y-52070000D01*
X69814079Y-52070000D01*
X68903920Y-51159841D01*
X68696115Y-51263050D01*
X68475143Y-51766047D01*
X68463480Y-52315319D01*
X63698000Y-52315319D01*
X63698000Y-51123920D01*
X68939841Y-51123920D01*
X69850000Y-52034079D01*
X70760159Y-51123920D01*
X70656950Y-50916115D01*
X70153953Y-50695143D01*
X69604681Y-50683480D01*
X69092756Y-50882901D01*
X69043050Y-50916115D01*
X68939841Y-51123920D01*
X63698000Y-51123920D01*
X63698000Y-43688000D01*
X63663594Y-43515027D01*
X63618988Y-43448270D01*
X63619109Y-43309829D01*
X63523855Y-43079297D01*
X63347631Y-42902765D01*
X63117265Y-42807109D01*
X62867829Y-42806891D01*
X62637297Y-42902145D01*
X62460765Y-43078369D01*
X62365109Y-43308735D01*
X62364891Y-43558171D01*
X62369324Y-43568899D01*
X62359829Y-43568891D01*
X62129297Y-43664145D01*
X61952765Y-43840369D01*
X61857109Y-44070735D01*
X61856891Y-44320171D01*
X61952145Y-44550703D01*
X62032000Y-44630698D01*
X62032000Y-58598775D01*
X56761011Y-53327787D01*
X56761109Y-53215829D01*
X56665855Y-52985297D01*
X56489631Y-52808765D01*
X56259265Y-52713109D01*
X56009829Y-52712891D01*
X55779297Y-52808145D01*
X55602765Y-52984369D01*
X55507109Y-53214735D01*
X55506891Y-53464171D01*
X53842780Y-53464171D01*
X53695631Y-53316765D01*
X53465265Y-53221109D01*
X53215829Y-53220891D01*
X52985297Y-53316145D01*
X52808765Y-53492369D01*
X52713109Y-53722735D01*
X52712891Y-53972171D01*
X50611000Y-53972171D01*
X50611000Y-52832000D01*
X50548048Y-52515521D01*
X50368777Y-52247223D01*
X49432777Y-51311223D01*
X49164479Y-51131952D01*
X48848000Y-51069000D01*
X44080554Y-51069000D01*
X44538554Y-50611000D01*
X49949446Y-50611000D01*
X50977223Y-51638777D01*
X51485222Y-52146777D01*
X51635551Y-52247223D01*
X51753521Y-52326048D01*
X52070000Y-52389000D01*
X59182000Y-52389000D01*
X59498479Y-52326048D01*
X59766777Y-52146777D01*
X59946048Y-51878479D01*
X60009000Y-51562000D01*
X59946048Y-51245521D01*
X59766777Y-50977223D01*
X59498479Y-50797952D01*
X59182000Y-50735000D01*
X52412555Y-50735000D01*
X52146777Y-50469223D01*
X51585725Y-49908171D01*
X52204891Y-49908171D01*
X52300145Y-50138703D01*
X52476369Y-50315235D01*
X52706735Y-50410891D01*
X52956171Y-50411109D01*
X53186703Y-50315855D01*
X53363235Y-50139631D01*
X53458891Y-49909265D01*
X53459109Y-49659829D01*
X53424692Y-49576532D01*
X53781224Y-49220000D01*
X56896000Y-49220000D01*
X57068973Y-49185594D01*
X57215612Y-49087612D01*
X58178213Y-48125011D01*
X58290171Y-48125109D01*
X58520703Y-48029855D01*
X58697235Y-47853631D01*
X58792891Y-47623265D01*
X58793109Y-47373829D01*
X58697855Y-47143297D01*
X58521631Y-46966765D01*
X58291265Y-46871109D01*
X58041829Y-46870891D01*
X57811297Y-46966145D01*
X57634765Y-47142369D01*
X57539109Y-47372735D01*
X57539010Y-47485766D01*
X56708776Y-48316000D01*
X53594000Y-48316000D01*
X53421027Y-48350406D01*
X53274388Y-48448388D01*
X52512388Y-49210388D01*
X52487229Y-49248041D01*
X52477297Y-49252145D01*
X52300765Y-49428369D01*
X52205109Y-49658735D01*
X52204891Y-49908171D01*
X51585725Y-49908171D01*
X50876777Y-49199223D01*
X50608479Y-49019952D01*
X50292000Y-48957000D01*
X44196000Y-48957000D01*
X43879521Y-49019952D01*
X43611223Y-49199223D01*
X42595223Y-50215223D01*
X42415952Y-50483521D01*
X42353000Y-50800000D01*
X42353000Y-51069000D01*
X42332554Y-51069000D01*
X41975000Y-50711446D01*
X41975000Y-46098171D01*
X42298891Y-46098171D01*
X42394145Y-46328703D01*
X42570369Y-46505235D01*
X42800735Y-46600891D01*
X43050171Y-46601109D01*
X43280703Y-46505855D01*
X43360698Y-46426000D01*
X58166000Y-46426000D01*
X58338973Y-46391594D01*
X58485612Y-46293612D01*
X58686213Y-46093011D01*
X58798171Y-46093109D01*
X59028703Y-45997855D01*
X59205235Y-45821631D01*
X59300891Y-45591265D01*
X59301109Y-45341829D01*
X59205855Y-45111297D01*
X59029631Y-44934765D01*
X58799265Y-44839109D01*
X58549829Y-44838891D01*
X58319297Y-44934145D01*
X58142765Y-45110369D01*
X58047109Y-45340735D01*
X58047010Y-45453765D01*
X57978776Y-45522000D01*
X43360728Y-45522000D01*
X43281631Y-45442765D01*
X43051265Y-45347109D01*
X42801829Y-45346891D01*
X42571297Y-45442145D01*
X42394765Y-45618369D01*
X42299109Y-45848735D01*
X42298891Y-46098171D01*
X41975000Y-46098171D01*
X41975000Y-44066171D01*
X42298891Y-44066171D01*
X42394145Y-44296703D01*
X42570369Y-44473235D01*
X42800735Y-44568891D01*
X43050171Y-44569109D01*
X43280703Y-44473855D01*
X43360698Y-44394000D01*
X48079272Y-44394000D01*
X48158369Y-44473235D01*
X48388735Y-44568891D01*
X48638171Y-44569109D01*
X48868703Y-44473855D01*
X49045235Y-44297631D01*
X49140891Y-44067265D01*
X49141109Y-43817829D01*
X49045855Y-43587297D01*
X48869631Y-43410765D01*
X48639265Y-43315109D01*
X48389829Y-43314891D01*
X48159297Y-43410145D01*
X48079302Y-43490000D01*
X43360728Y-43490000D01*
X43281631Y-43410765D01*
X43051265Y-43315109D01*
X42801829Y-43314891D01*
X42571297Y-43410145D01*
X42394765Y-43586369D01*
X42299109Y-43816735D01*
X42298891Y-44066171D01*
X41975000Y-44066171D01*
X41975000Y-43776554D01*
X43014555Y-42737000D01*
X44647924Y-42737000D01*
X44958258Y-43047876D01*
X45451689Y-43252766D01*
X45985967Y-43253233D01*
X46479755Y-43049204D01*
X46857876Y-42671742D01*
X47062766Y-42178311D01*
X47063233Y-41644033D01*
X46859204Y-41150245D01*
X46481742Y-40772124D01*
X46181597Y-40647493D01*
X46233944Y-40637081D01*
X46669644Y-40345955D01*
X46899353Y-40002171D01*
X53728891Y-40002171D01*
X53824145Y-40232703D01*
X54000369Y-40409235D01*
X54230735Y-40504891D01*
X54480171Y-40505109D01*
X54710703Y-40409855D01*
X54887235Y-40233631D01*
X54982891Y-40003265D01*
X54982900Y-39992807D01*
X54992735Y-39996891D01*
X55242171Y-39997109D01*
X55472703Y-39901855D01*
X55626655Y-39748171D01*
X62618891Y-39748171D01*
X62714145Y-39978703D01*
X62890369Y-40155235D01*
X63120735Y-40250891D01*
X63370171Y-40251109D01*
X63600703Y-40155855D01*
X63680698Y-40076000D01*
X67122776Y-40076000D01*
X71938000Y-44891224D01*
X71938000Y-68399272D01*
X71858765Y-68478369D01*
X71763109Y-68708735D01*
X71762891Y-68958171D01*
X71858145Y-69188703D01*
X72034369Y-69365235D01*
X72264735Y-69460891D01*
X72514171Y-69461109D01*
X72524899Y-69456676D01*
X72524891Y-69466171D01*
X72620145Y-69696703D01*
X72796369Y-69873235D01*
X73026735Y-69968891D01*
X73276171Y-69969109D01*
X73286899Y-69964676D01*
X73286891Y-69974171D01*
X73382145Y-70204703D01*
X73558369Y-70381235D01*
X73788735Y-70476891D01*
X74038171Y-70477109D01*
X74268703Y-70381855D01*
X74445235Y-70205631D01*
X74540891Y-69975265D01*
X74541109Y-69725829D01*
X74445855Y-69495297D01*
X74366000Y-69415302D01*
X74366000Y-63176080D01*
X75439841Y-63176080D01*
X75543050Y-63383885D01*
X76046047Y-63604857D01*
X76595319Y-63616520D01*
X77107244Y-63417099D01*
X77156950Y-63383885D01*
X77260159Y-63176080D01*
X76350000Y-62265921D01*
X75439841Y-63176080D01*
X74366000Y-63176080D01*
X74366000Y-62475319D01*
X74963480Y-62475319D01*
X75162901Y-62987244D01*
X75196115Y-63036950D01*
X75403920Y-63140159D01*
X76314079Y-62230000D01*
X76385921Y-62230000D01*
X77296080Y-63140159D01*
X77503885Y-63036950D01*
X77724857Y-62533953D01*
X77736520Y-61984681D01*
X77537099Y-61472756D01*
X77503885Y-61423050D01*
X77296080Y-61319841D01*
X76385921Y-62230000D01*
X76314079Y-62230000D01*
X75403920Y-61319841D01*
X75196115Y-61423050D01*
X74975143Y-61926047D01*
X74963480Y-62475319D01*
X74366000Y-62475319D01*
X74366000Y-61283920D01*
X75439841Y-61283920D01*
X76350000Y-62194079D01*
X77260159Y-61283920D01*
X77156950Y-61076115D01*
X76653953Y-60855143D01*
X76104681Y-60843480D01*
X75592756Y-61042901D01*
X75543050Y-61076115D01*
X75439841Y-61283920D01*
X74366000Y-61283920D01*
X74366000Y-56832798D01*
X75022771Y-56832798D01*
X75224369Y-57320703D01*
X75597334Y-57694319D01*
X76084885Y-57896769D01*
X76612798Y-57897229D01*
X77100703Y-57695631D01*
X77474319Y-57322666D01*
X77676769Y-56835115D01*
X77677229Y-56307202D01*
X77475631Y-55819297D01*
X77102666Y-55445681D01*
X76615115Y-55243231D01*
X76087202Y-55242771D01*
X75599297Y-55444369D01*
X75225681Y-55817334D01*
X75023231Y-56304885D01*
X75022771Y-56832798D01*
X74366000Y-56832798D01*
X74366000Y-53016080D01*
X75439841Y-53016080D01*
X75543050Y-53223885D01*
X76046047Y-53444857D01*
X76595319Y-53456520D01*
X77107244Y-53257099D01*
X77156950Y-53223885D01*
X77260159Y-53016080D01*
X76350000Y-52105921D01*
X75439841Y-53016080D01*
X74366000Y-53016080D01*
X74366000Y-52315319D01*
X74963480Y-52315319D01*
X75162901Y-52827244D01*
X75196115Y-52876950D01*
X75403920Y-52980159D01*
X76314079Y-52070000D01*
X76385921Y-52070000D01*
X77296080Y-52980159D01*
X77503885Y-52876950D01*
X77724857Y-52373953D01*
X77736520Y-51824681D01*
X77537099Y-51312756D01*
X77503885Y-51263050D01*
X77296080Y-51159841D01*
X76385921Y-52070000D01*
X76314079Y-52070000D01*
X75403920Y-51159841D01*
X75196115Y-51263050D01*
X74975143Y-51766047D01*
X74963480Y-52315319D01*
X74366000Y-52315319D01*
X74366000Y-51123920D01*
X75439841Y-51123920D01*
X76350000Y-52034079D01*
X77260159Y-51123920D01*
X77156950Y-50916115D01*
X76653953Y-50695143D01*
X76104681Y-50683480D01*
X75592756Y-50882901D01*
X75543050Y-50916115D01*
X75439841Y-51123920D01*
X74366000Y-51123920D01*
X74366000Y-45580342D01*
X74868243Y-45580342D01*
X75031948Y-45976537D01*
X75334809Y-46279927D01*
X75730718Y-46444323D01*
X76159402Y-46444697D01*
X76555597Y-46280992D01*
X76858987Y-45978131D01*
X77023383Y-45582222D01*
X77023757Y-45153538D01*
X76860052Y-44757343D01*
X76557191Y-44453953D01*
X76161282Y-44289557D01*
X75732598Y-44289183D01*
X75336403Y-44452888D01*
X75033013Y-44755749D01*
X74868617Y-45151658D01*
X74868243Y-45580342D01*
X74366000Y-45580342D01*
X74366000Y-43688000D01*
X74331594Y-43515027D01*
X74233612Y-43368388D01*
X71563686Y-40698462D01*
X74868243Y-40698462D01*
X75031948Y-41094657D01*
X75334809Y-41398047D01*
X75730718Y-41562443D01*
X76159402Y-41562817D01*
X76555597Y-41399112D01*
X76858987Y-41096251D01*
X77023383Y-40700342D01*
X77023757Y-40271658D01*
X76860052Y-39875463D01*
X76557191Y-39572073D01*
X76161282Y-39407677D01*
X75732598Y-39407303D01*
X75336403Y-39571008D01*
X75033013Y-39873869D01*
X74868617Y-40269778D01*
X74868243Y-40698462D01*
X71563686Y-40698462D01*
X69207011Y-38341787D01*
X69207109Y-38229829D01*
X69111855Y-37999297D01*
X68935631Y-37822765D01*
X68705265Y-37727109D01*
X68455829Y-37726891D01*
X68225297Y-37822145D01*
X68048765Y-37998369D01*
X67953109Y-38228735D01*
X67952891Y-38478171D01*
X67957324Y-38488899D01*
X67947829Y-38488891D01*
X67717297Y-38584145D01*
X67540765Y-38760369D01*
X67445109Y-38990735D01*
X67444927Y-39198838D01*
X67310000Y-39172000D01*
X63680728Y-39172000D01*
X63601631Y-39092765D01*
X63371265Y-38997109D01*
X63121829Y-38996891D01*
X62891297Y-39092145D01*
X62714765Y-39268369D01*
X62619109Y-39498735D01*
X62618891Y-39748171D01*
X55626655Y-39748171D01*
X55649235Y-39725631D01*
X55744891Y-39495265D01*
X55745109Y-39245829D01*
X55649855Y-39015297D01*
X55570000Y-38935302D01*
X55570000Y-38287224D01*
X57469612Y-36387612D01*
X57567594Y-36240973D01*
X57602000Y-36068000D01*
X57602000Y-35468000D01*
X57871594Y-35468000D01*
X57871594Y-36668000D01*
X57894395Y-36789179D01*
X57966012Y-36900474D01*
X58075286Y-36975138D01*
X58205000Y-37001406D01*
X59905000Y-37001406D01*
X60026179Y-36978605D01*
X60137474Y-36906988D01*
X60212138Y-36797714D01*
X60238406Y-36668000D01*
X60238406Y-35468000D01*
X63840594Y-35468000D01*
X63840594Y-36668000D01*
X63863395Y-36789179D01*
X63935012Y-36900474D01*
X64044286Y-36975138D01*
X64174000Y-37001406D01*
X65874000Y-37001406D01*
X65995179Y-36978605D01*
X66106474Y-36906988D01*
X66181138Y-36797714D01*
X66207406Y-36668000D01*
X66207406Y-35468000D01*
X66184605Y-35346821D01*
X66112988Y-35235526D01*
X66003714Y-35160862D01*
X65874000Y-35134594D01*
X64174000Y-35134594D01*
X64052821Y-35157395D01*
X63941526Y-35229012D01*
X63866862Y-35338286D01*
X63840594Y-35468000D01*
X60238406Y-35468000D01*
X60215605Y-35346821D01*
X60143988Y-35235526D01*
X60034714Y-35160862D01*
X59905000Y-35134594D01*
X58205000Y-35134594D01*
X58083821Y-35157395D01*
X57972526Y-35229012D01*
X57897862Y-35338286D01*
X57871594Y-35468000D01*
X57602000Y-35468000D01*
X57602000Y-34068000D01*
X57854941Y-34068000D01*
X57925505Y-34422748D01*
X58126453Y-34723488D01*
X58427193Y-34924436D01*
X58781941Y-34995000D01*
X59328059Y-34995000D01*
X59682807Y-34924436D01*
X59983547Y-34723488D01*
X60184495Y-34422748D01*
X60255059Y-34068000D01*
X63823941Y-34068000D01*
X63894505Y-34422748D01*
X64095453Y-34723488D01*
X64396193Y-34924436D01*
X64750941Y-34995000D01*
X65297059Y-34995000D01*
X65651807Y-34924436D01*
X65952547Y-34723488D01*
X66153495Y-34422748D01*
X66224059Y-34068000D01*
X66153495Y-33713252D01*
X66117295Y-33659074D01*
X68908441Y-33659074D01*
X69398687Y-34845561D01*
X70305664Y-35754123D01*
X71491294Y-36246439D01*
X72775074Y-36247559D01*
X73961561Y-35757313D01*
X74870123Y-34850336D01*
X75362439Y-33664706D01*
X75363559Y-32380926D01*
X74873313Y-31194439D01*
X73966336Y-30285877D01*
X72780706Y-29793561D01*
X71496926Y-29792441D01*
X70310439Y-30282687D01*
X69401877Y-31189664D01*
X68909561Y-32375294D01*
X68908441Y-33659074D01*
X66117295Y-33659074D01*
X65952547Y-33412512D01*
X65651807Y-33211564D01*
X65297059Y-33141000D01*
X64750941Y-33141000D01*
X64396193Y-33211564D01*
X64095453Y-33412512D01*
X63894505Y-33713252D01*
X63823941Y-34068000D01*
X60255059Y-34068000D01*
X60184495Y-33713252D01*
X59983547Y-33412512D01*
X59682807Y-33211564D01*
X59328059Y-33141000D01*
X58781941Y-33141000D01*
X58427193Y-33211564D01*
X58126453Y-33412512D01*
X57925505Y-33713252D01*
X57854941Y-34068000D01*
X57602000Y-34068000D01*
X57602000Y-32246498D01*
X57840376Y-32246498D01*
X57888954Y-32419947D01*
X58093368Y-32743712D01*
X58406121Y-32964606D01*
X58779600Y-33049000D01*
X59029600Y-33049000D01*
X59029600Y-32093400D01*
X59080400Y-32093400D01*
X59080400Y-33049000D01*
X59330400Y-33049000D01*
X59703879Y-32964606D01*
X60016632Y-32743712D01*
X60221046Y-32419947D01*
X60269624Y-32246498D01*
X63809376Y-32246498D01*
X63857954Y-32419947D01*
X64062368Y-32743712D01*
X64375121Y-32964606D01*
X64748600Y-33049000D01*
X64998600Y-33049000D01*
X64998600Y-32093400D01*
X65049400Y-32093400D01*
X65049400Y-33049000D01*
X65299400Y-33049000D01*
X65672879Y-32964606D01*
X65985632Y-32743712D01*
X66190046Y-32419947D01*
X66238624Y-32246498D01*
X66159386Y-32093400D01*
X65049400Y-32093400D01*
X64998600Y-32093400D01*
X63888614Y-32093400D01*
X63809376Y-32246498D01*
X60269624Y-32246498D01*
X60190386Y-32093400D01*
X59080400Y-32093400D01*
X59029600Y-32093400D01*
X57919614Y-32093400D01*
X57840376Y-32246498D01*
X57602000Y-32246498D01*
X57602000Y-31889502D01*
X57840376Y-31889502D01*
X57919614Y-32042600D01*
X59029600Y-32042600D01*
X59029600Y-31087000D01*
X59080400Y-31087000D01*
X59080400Y-32042600D01*
X60190386Y-32042600D01*
X60269624Y-31889502D01*
X63809376Y-31889502D01*
X63888614Y-32042600D01*
X64998600Y-32042600D01*
X64998600Y-31087000D01*
X65049400Y-31087000D01*
X65049400Y-32042600D01*
X66159386Y-32042600D01*
X66238624Y-31889502D01*
X66190046Y-31716053D01*
X65985632Y-31392288D01*
X65672879Y-31171394D01*
X65299400Y-31087000D01*
X65049400Y-31087000D01*
X64998600Y-31087000D01*
X64748600Y-31087000D01*
X64375121Y-31171394D01*
X64062368Y-31392288D01*
X63857954Y-31716053D01*
X63809376Y-31889502D01*
X60269624Y-31889502D01*
X60221046Y-31716053D01*
X60016632Y-31392288D01*
X59703879Y-31171394D01*
X59330400Y-31087000D01*
X59080400Y-31087000D01*
X59029600Y-31087000D01*
X58779600Y-31087000D01*
X58406121Y-31171394D01*
X58093368Y-31392288D01*
X57888954Y-31716053D01*
X57840376Y-31889502D01*
X57602000Y-31889502D01*
X57602000Y-31175224D01*
X59886176Y-28891048D01*
X59996377Y-28964682D01*
X60452000Y-29055311D01*
X60907623Y-28964682D01*
X61293881Y-28706592D01*
X61551971Y-28320334D01*
X61642600Y-27864711D01*
X61642600Y-27507289D01*
X61551971Y-27051666D01*
X61293881Y-26665408D01*
X60907623Y-26407318D01*
X60452000Y-26316689D01*
X59996377Y-26407318D01*
X59610119Y-26665408D01*
X59352029Y-27051666D01*
X59261400Y-27507289D01*
X59261400Y-27864711D01*
X59323229Y-28175547D01*
X56840000Y-30658776D01*
X56840000Y-30159224D01*
X57951838Y-29047387D01*
X58367623Y-28964682D01*
X58753881Y-28706592D01*
X59011971Y-28320334D01*
X59102600Y-27864711D01*
X59102600Y-27507289D01*
X59011971Y-27051666D01*
X58753881Y-26665408D01*
X58367623Y-26407318D01*
X57912000Y-26316689D01*
X57456377Y-26407318D01*
X57070119Y-26665408D01*
X56812029Y-27051666D01*
X56721400Y-27507289D01*
X56721400Y-27864711D01*
X56812029Y-28320334D01*
X57047714Y-28673061D01*
X56068388Y-29652388D01*
X55970406Y-29799027D01*
X55936000Y-29972000D01*
X55936000Y-35626776D01*
X54036388Y-37526388D01*
X53938406Y-37673027D01*
X53904000Y-37846000D01*
X53904000Y-39443272D01*
X53824765Y-39522369D01*
X53729109Y-39752735D01*
X53728891Y-40002171D01*
X46899353Y-40002171D01*
X46960770Y-39910255D01*
X47063000Y-39396311D01*
X47063000Y-39343689D01*
X46960770Y-38829745D01*
X46669644Y-38394045D01*
X46233944Y-38102919D01*
X45720000Y-38000689D01*
X45206056Y-38102919D01*
X44770356Y-38394045D01*
X44479230Y-38829745D01*
X44377000Y-39343689D01*
X44377000Y-39396311D01*
X44479230Y-39910255D01*
X44770356Y-40345955D01*
X45206056Y-40637081D01*
X45258576Y-40647528D01*
X44960245Y-40770796D01*
X44647496Y-41083000D01*
X42672000Y-41083000D01*
X42355521Y-41145952D01*
X42087222Y-41325223D01*
X40563223Y-42849223D01*
X40383952Y-43117521D01*
X40321000Y-43434000D01*
X40321000Y-47335176D01*
X40208777Y-47167222D01*
X39297641Y-46256087D01*
X39426769Y-45945115D01*
X39427229Y-45417202D01*
X39225631Y-44929297D01*
X38852666Y-44555681D01*
X38549851Y-44429940D01*
X38850703Y-44305631D01*
X39224319Y-43932666D01*
X39426769Y-43445115D01*
X39427229Y-42917202D01*
X39225631Y-42429297D01*
X38852666Y-42055681D01*
X38769145Y-42021000D01*
X39175785Y-42021000D01*
X39315819Y-41962996D01*
X39422996Y-41855820D01*
X39481000Y-41715786D01*
X39481000Y-40760650D01*
X39385750Y-40665400D01*
X38125400Y-40665400D01*
X38125400Y-40685400D01*
X38074600Y-40685400D01*
X38074600Y-40665400D01*
X36814250Y-40665400D01*
X36719000Y-40760650D01*
X36719000Y-41715786D01*
X36777004Y-41855820D01*
X36884181Y-41962996D01*
X37024215Y-42021000D01*
X37430056Y-42021000D01*
X37349297Y-42054369D01*
X36975681Y-42427334D01*
X36773231Y-42914885D01*
X36772771Y-43442798D01*
X36974369Y-43930703D01*
X37347334Y-44304319D01*
X37650149Y-44430060D01*
X37349297Y-44554369D01*
X36975681Y-44927334D01*
X36773231Y-45414885D01*
X36772771Y-45942798D01*
X36974369Y-46430703D01*
X37347334Y-46804319D01*
X37619977Y-46917531D01*
X38667869Y-47965424D01*
X38479265Y-47887109D01*
X38229829Y-47886891D01*
X37999297Y-47982145D01*
X37822765Y-48158369D01*
X37727109Y-48388735D01*
X37726891Y-48638171D01*
X37822145Y-48868703D01*
X37902000Y-48948698D01*
X37902000Y-51167717D01*
X37761658Y-51027130D01*
X37384880Y-50870678D01*
X36976910Y-50870322D01*
X36599860Y-51026116D01*
X36311130Y-51314342D01*
X36154678Y-51691120D01*
X36154322Y-52099090D01*
X36310116Y-52476140D01*
X36598342Y-52764870D01*
X36975120Y-52921322D01*
X37383090Y-52921678D01*
X37760140Y-52765884D01*
X37902000Y-52624272D01*
X37902000Y-53667717D01*
X37761658Y-53527130D01*
X37384880Y-53370678D01*
X36976910Y-53370322D01*
X36599860Y-53526116D01*
X36311130Y-53814342D01*
X36154678Y-54191120D01*
X36154322Y-54599090D01*
X36310116Y-54976140D01*
X36598342Y-55264870D01*
X36975120Y-55421322D01*
X37383090Y-55421678D01*
X37760140Y-55265884D01*
X37902000Y-55124272D01*
X37902000Y-56167717D01*
X37761658Y-56027130D01*
X37384880Y-55870678D01*
X36976910Y-55870322D01*
X36599860Y-56026116D01*
X36311130Y-56314342D01*
X36154678Y-56691120D01*
X36154322Y-57099090D01*
X36310116Y-57476140D01*
X36598342Y-57764870D01*
X36975120Y-57921322D01*
X37383090Y-57921678D01*
X37760140Y-57765884D01*
X38048870Y-57477658D01*
X38196031Y-57123255D01*
X40950000Y-59877224D01*
X40950000Y-64802000D01*
X40984406Y-64974973D01*
X41082388Y-65121612D01*
X42127174Y-66166398D01*
X42080833Y-66278000D01*
X38079052Y-66278000D01*
X37955631Y-65979297D01*
X37582666Y-65605681D01*
X37095115Y-65403231D01*
X36567202Y-65402771D01*
X36079297Y-65604369D01*
X35705681Y-65977334D01*
X35503231Y-66464885D01*
X35502771Y-66992798D01*
X35433000Y-66992798D01*
X35433000Y-62492798D01*
X35502771Y-62492798D01*
X35704369Y-62980703D01*
X36077334Y-63354319D01*
X36564885Y-63556769D01*
X37092798Y-63557229D01*
X37580703Y-63355631D01*
X37954319Y-62982666D01*
X38156769Y-62495115D01*
X38157229Y-61967202D01*
X37955631Y-61479297D01*
X37582666Y-61105681D01*
X37095115Y-60903231D01*
X36567202Y-60902771D01*
X36079297Y-61104369D01*
X35705681Y-61477334D01*
X35503231Y-61964885D01*
X35502771Y-62492798D01*
X35433000Y-62492798D01*
X35433000Y-39564214D01*
X36719000Y-39564214D01*
X36719000Y-40519350D01*
X36814250Y-40614600D01*
X38074600Y-40614600D01*
X38074600Y-39354250D01*
X38125400Y-39354250D01*
X38125400Y-40614600D01*
X39385750Y-40614600D01*
X39481000Y-40519350D01*
X39481000Y-39564214D01*
X39422996Y-39424180D01*
X39315819Y-39317004D01*
X39175785Y-39259000D01*
X38220650Y-39259000D01*
X38125400Y-39354250D01*
X38074600Y-39354250D01*
X37979350Y-39259000D01*
X37024215Y-39259000D01*
X36884181Y-39317004D01*
X36777004Y-39424180D01*
X36719000Y-39564214D01*
X35433000Y-39564214D01*
X35433000Y-34568980D01*
X35613991Y-33659074D01*
X37920441Y-33659074D01*
X38410687Y-34845561D01*
X39317664Y-35754123D01*
X40503294Y-36246439D01*
X41787074Y-36247559D01*
X42973561Y-35757313D01*
X43263379Y-35468000D01*
X45933594Y-35468000D01*
X45933594Y-36668000D01*
X45956395Y-36789179D01*
X46028012Y-36900474D01*
X46137286Y-36975138D01*
X46267000Y-37001406D01*
X47967000Y-37001406D01*
X48088179Y-36978605D01*
X48199474Y-36906988D01*
X48274138Y-36797714D01*
X48300406Y-36668000D01*
X48300406Y-35468000D01*
X51902594Y-35468000D01*
X51902594Y-36668000D01*
X51925395Y-36789179D01*
X51997012Y-36900474D01*
X52106286Y-36975138D01*
X52236000Y-37001406D01*
X53936000Y-37001406D01*
X54057179Y-36978605D01*
X54168474Y-36906988D01*
X54243138Y-36797714D01*
X54269406Y-36668000D01*
X54269406Y-35468000D01*
X54246605Y-35346821D01*
X54174988Y-35235526D01*
X54065714Y-35160862D01*
X53936000Y-35134594D01*
X52236000Y-35134594D01*
X52114821Y-35157395D01*
X52003526Y-35229012D01*
X51928862Y-35338286D01*
X51902594Y-35468000D01*
X48300406Y-35468000D01*
X48277605Y-35346821D01*
X48205988Y-35235526D01*
X48096714Y-35160862D01*
X47967000Y-35134594D01*
X46267000Y-35134594D01*
X46145821Y-35157395D01*
X46034526Y-35229012D01*
X45959862Y-35338286D01*
X45933594Y-35468000D01*
X43263379Y-35468000D01*
X43882123Y-34850336D01*
X44206976Y-34068000D01*
X45916941Y-34068000D01*
X45987505Y-34422748D01*
X46188453Y-34723488D01*
X46489193Y-34924436D01*
X46843941Y-34995000D01*
X47390059Y-34995000D01*
X47744807Y-34924436D01*
X48045547Y-34723488D01*
X48246495Y-34422748D01*
X48317059Y-34068000D01*
X51885941Y-34068000D01*
X51956505Y-34422748D01*
X52157453Y-34723488D01*
X52458193Y-34924436D01*
X52812941Y-34995000D01*
X53359059Y-34995000D01*
X53713807Y-34924436D01*
X54014547Y-34723488D01*
X54215495Y-34422748D01*
X54286059Y-34068000D01*
X54215495Y-33713252D01*
X54014547Y-33412512D01*
X53713807Y-33211564D01*
X53359059Y-33141000D01*
X52812941Y-33141000D01*
X52458193Y-33211564D01*
X52157453Y-33412512D01*
X51956505Y-33713252D01*
X51885941Y-34068000D01*
X48317059Y-34068000D01*
X48246495Y-33713252D01*
X48045547Y-33412512D01*
X47744807Y-33211564D01*
X47390059Y-33141000D01*
X46843941Y-33141000D01*
X46489193Y-33211564D01*
X46188453Y-33412512D01*
X45987505Y-33713252D01*
X45916941Y-34068000D01*
X44206976Y-34068000D01*
X44374439Y-33664706D01*
X44375559Y-32380926D01*
X44320015Y-32246498D01*
X45902376Y-32246498D01*
X45950954Y-32419947D01*
X46155368Y-32743712D01*
X46468121Y-32964606D01*
X46841600Y-33049000D01*
X47091600Y-33049000D01*
X47091600Y-32093400D01*
X47142400Y-32093400D01*
X47142400Y-33049000D01*
X47392400Y-33049000D01*
X47765879Y-32964606D01*
X48078632Y-32743712D01*
X48283046Y-32419947D01*
X48331624Y-32246498D01*
X51871376Y-32246498D01*
X51919954Y-32419947D01*
X52124368Y-32743712D01*
X52437121Y-32964606D01*
X52810600Y-33049000D01*
X53060600Y-33049000D01*
X53060600Y-32093400D01*
X53111400Y-32093400D01*
X53111400Y-33049000D01*
X53361400Y-33049000D01*
X53734879Y-32964606D01*
X54047632Y-32743712D01*
X54252046Y-32419947D01*
X54300624Y-32246498D01*
X54221386Y-32093400D01*
X53111400Y-32093400D01*
X53060600Y-32093400D01*
X51950614Y-32093400D01*
X51871376Y-32246498D01*
X48331624Y-32246498D01*
X48252386Y-32093400D01*
X47142400Y-32093400D01*
X47091600Y-32093400D01*
X45981614Y-32093400D01*
X45902376Y-32246498D01*
X44320015Y-32246498D01*
X44172508Y-31889502D01*
X45902376Y-31889502D01*
X45981614Y-32042600D01*
X47091600Y-32042600D01*
X47091600Y-31087000D01*
X47142400Y-31087000D01*
X47142400Y-32042600D01*
X48252386Y-32042600D01*
X48331624Y-31889502D01*
X51871376Y-31889502D01*
X51950614Y-32042600D01*
X53060600Y-32042600D01*
X53060600Y-31087000D01*
X53111400Y-31087000D01*
X53111400Y-32042600D01*
X54221386Y-32042600D01*
X54300624Y-31889502D01*
X54252046Y-31716053D01*
X54047632Y-31392288D01*
X53734879Y-31171394D01*
X53361400Y-31087000D01*
X53111400Y-31087000D01*
X53060600Y-31087000D01*
X52810600Y-31087000D01*
X52437121Y-31171394D01*
X52124368Y-31392288D01*
X51919954Y-31716053D01*
X51871376Y-31889502D01*
X48331624Y-31889502D01*
X48283046Y-31716053D01*
X48078632Y-31392288D01*
X47765879Y-31171394D01*
X47392400Y-31087000D01*
X47142400Y-31087000D01*
X47091600Y-31087000D01*
X46841600Y-31087000D01*
X46468121Y-31171394D01*
X46155368Y-31392288D01*
X45950954Y-31716053D01*
X45902376Y-31889502D01*
X44172508Y-31889502D01*
X43885313Y-31194439D01*
X42978336Y-30285877D01*
X41792706Y-29793561D01*
X40508926Y-29792441D01*
X39322439Y-30282687D01*
X38413877Y-31189664D01*
X37921561Y-32375294D01*
X37920441Y-33659074D01*
X35613991Y-33659074D01*
X35796939Y-32739334D01*
X36881640Y-31115966D01*
X37084966Y-30912640D01*
X38708334Y-29827939D01*
X40799401Y-29412000D01*
X49022000Y-29412000D01*
X49053782Y-29405678D01*
X49086185Y-29405678D01*
X49572192Y-29309005D01*
X49690790Y-29259881D01*
X50102808Y-28984580D01*
X50193580Y-28893808D01*
X50468880Y-28481791D01*
X50487237Y-28437473D01*
X50518005Y-28363193D01*
X50545495Y-28224989D01*
X50659592Y-27996796D01*
X50673000Y-27940000D01*
X50673000Y-27806650D01*
X51587400Y-27806650D01*
X51587400Y-28777786D01*
X51645404Y-28917820D01*
X51752581Y-29024996D01*
X51892615Y-29083000D01*
X52711350Y-29083000D01*
X52806600Y-28987750D01*
X52806600Y-27711400D01*
X52857400Y-27711400D01*
X52857400Y-28987750D01*
X52952650Y-29083000D01*
X53771385Y-29083000D01*
X53911419Y-29024996D01*
X54018596Y-28917820D01*
X54076600Y-28777786D01*
X54076600Y-27806650D01*
X53981350Y-27711400D01*
X52857400Y-27711400D01*
X52806600Y-27711400D01*
X51682650Y-27711400D01*
X51587400Y-27806650D01*
X50673000Y-27806650D01*
X50673000Y-27583979D01*
X50746920Y-27212358D01*
X51087158Y-26703158D01*
X51596358Y-26362920D01*
X51822988Y-26317840D01*
X51752581Y-26347004D01*
X51645404Y-26454180D01*
X51587400Y-26594214D01*
X51587400Y-27565350D01*
X51682650Y-27660600D01*
X52806600Y-27660600D01*
X52806600Y-26384250D01*
X52711350Y-26289000D01*
X52952650Y-26289000D01*
X52857400Y-26384250D01*
X52857400Y-26384250D01*
G37*
X52857400Y-26384250D02*
X52857400Y-27660600D01*
X53981350Y-27660600D01*
X54076600Y-27565350D01*
X54076600Y-27507289D01*
X54181400Y-27507289D01*
X54181400Y-27864711D01*
X54272029Y-28320334D01*
X54530119Y-28706592D01*
X54916377Y-28964682D01*
X55372000Y-29055311D01*
X55827623Y-28964682D01*
X56213881Y-28706592D01*
X56471971Y-28320334D01*
X56562600Y-27864711D01*
X56562600Y-27507289D01*
X56471971Y-27051666D01*
X56213881Y-26665408D01*
X55827623Y-26407318D01*
X55372000Y-26316689D01*
X54916377Y-26407318D01*
X54530119Y-26665408D01*
X54272029Y-27051666D01*
X54181400Y-27507289D01*
X54076600Y-27507289D01*
X54076600Y-26594214D01*
X54018596Y-26454180D01*
X53911419Y-26347004D01*
X53771385Y-26289000D01*
X61316020Y-26289000D01*
X61687642Y-26362920D01*
X62196842Y-26703158D01*
X62537080Y-27212358D01*
X62669322Y-27877184D01*
X62669322Y-27877185D01*
X62765995Y-28363192D01*
X62815119Y-28481790D01*
X63090420Y-28893808D01*
X63181192Y-28984580D01*
X63593209Y-29259880D01*
X63711807Y-29309005D01*
X64197815Y-29405678D01*
X64230218Y-29405678D01*
X64262000Y-29412000D01*
X72484598Y-29412000D01*
X74575666Y-29827939D01*
X76199034Y-30912640D01*
X76402360Y-31115966D01*
X77487061Y-32739334D01*
X77851000Y-34568979D01*
X77851000Y-75667021D01*
X77777080Y-76038642D01*
X77548175Y-76381221D01*
X76910287Y-76891532D01*
X76294598Y-77014000D01*
X36989401Y-77014000D01*
X36356358Y-76888080D01*
X35847158Y-76547842D01*
X35506920Y-76038642D01*
X35433000Y-75667020D01*
X35433000Y-73803000D01*
X35623594Y-73803000D01*
X35623594Y-75803000D01*
X35646395Y-75924179D01*
X35718012Y-76035474D01*
X35827286Y-76110138D01*
X35957000Y-76136406D01*
X37957000Y-76136406D01*
X38078179Y-76113605D01*
X38189474Y-76041988D01*
X38264138Y-75932714D01*
X38290406Y-75803000D01*
X38290406Y-75357757D01*
X38371369Y-75553703D01*
X38744334Y-75927319D01*
X39231885Y-76129769D01*
X39759798Y-76130229D01*
X40247703Y-75928631D01*
X40621319Y-75555666D01*
X40703594Y-75357527D01*
X40703594Y-75803000D01*
X40726395Y-75924179D01*
X40798012Y-76035474D01*
X40907286Y-76110138D01*
X41037000Y-76136406D01*
X43037000Y-76136406D01*
X43158179Y-76113605D01*
X43269474Y-76041988D01*
X43344138Y-75932714D01*
X43370406Y-75803000D01*
X43370406Y-75357757D01*
X43451369Y-75553703D01*
X43824334Y-75927319D01*
X44311885Y-76129769D01*
X44839798Y-76130229D01*
X45327703Y-75928631D01*
X45701319Y-75555666D01*
X45783594Y-75357527D01*
X45783594Y-75803000D01*
X45806395Y-75924179D01*
X45878012Y-76035474D01*
X45987286Y-76110138D01*
X46117000Y-76136406D01*
X48117000Y-76136406D01*
X48238179Y-76113605D01*
X48349474Y-76041988D01*
X48424138Y-75932714D01*
X48450406Y-75803000D01*
X48450406Y-75357757D01*
X48531369Y-75553703D01*
X48904334Y-75927319D01*
X49391885Y-76129769D01*
X49919798Y-76130229D01*
X50407703Y-75928631D01*
X50781319Y-75555666D01*
X50983769Y-75068115D01*
X50984229Y-74540202D01*
X50782631Y-74052297D01*
X50533769Y-73803000D01*
X62293594Y-73803000D01*
X62293594Y-75803000D01*
X62316395Y-75924179D01*
X62388012Y-76035474D01*
X62497286Y-76110138D01*
X62627000Y-76136406D01*
X64627000Y-76136406D01*
X64748179Y-76113605D01*
X64859474Y-76041988D01*
X64934138Y-75932714D01*
X64960406Y-75803000D01*
X64960406Y-75357757D01*
X65041369Y-75553703D01*
X65414334Y-75927319D01*
X65901885Y-76129769D01*
X66429798Y-76130229D01*
X66917703Y-75928631D01*
X67291319Y-75555666D01*
X67373594Y-75357527D01*
X67373594Y-75803000D01*
X67396395Y-75924179D01*
X67468012Y-76035474D01*
X67577286Y-76110138D01*
X67707000Y-76136406D01*
X69707000Y-76136406D01*
X69828179Y-76113605D01*
X69939474Y-76041988D01*
X70014138Y-75932714D01*
X70040406Y-75803000D01*
X70040406Y-75357757D01*
X70121369Y-75553703D01*
X70494334Y-75927319D01*
X70981885Y-76129769D01*
X71509798Y-76130229D01*
X71997703Y-75928631D01*
X72371319Y-75555666D01*
X72453594Y-75357527D01*
X72453594Y-75803000D01*
X72476395Y-75924179D01*
X72548012Y-76035474D01*
X72657286Y-76110138D01*
X72787000Y-76136406D01*
X74787000Y-76136406D01*
X74908179Y-76113605D01*
X75019474Y-76041988D01*
X75094138Y-75932714D01*
X75120406Y-75803000D01*
X75120406Y-75357757D01*
X75201369Y-75553703D01*
X75574334Y-75927319D01*
X76061885Y-76129769D01*
X76589798Y-76130229D01*
X77077703Y-75928631D01*
X77451319Y-75555666D01*
X77653769Y-75068115D01*
X77654229Y-74540202D01*
X77452631Y-74052297D01*
X77079666Y-73678681D01*
X76592115Y-73476231D01*
X76064202Y-73475771D01*
X75576297Y-73677369D01*
X75202681Y-74050334D01*
X75120406Y-74248473D01*
X75120406Y-73803000D01*
X75097605Y-73681821D01*
X75025988Y-73570526D01*
X74916714Y-73495862D01*
X74787000Y-73469594D01*
X72787000Y-73469594D01*
X72665821Y-73492395D01*
X72554526Y-73564012D01*
X72479862Y-73673286D01*
X72453594Y-73803000D01*
X72453594Y-74248243D01*
X72372631Y-74052297D01*
X71999666Y-73678681D01*
X71512115Y-73476231D01*
X70984202Y-73475771D01*
X70496297Y-73677369D01*
X70122681Y-74050334D01*
X70040406Y-74248473D01*
X70040406Y-73803000D01*
X70017605Y-73681821D01*
X69945988Y-73570526D01*
X69836714Y-73495862D01*
X69707000Y-73469594D01*
X67707000Y-73469594D01*
X67585821Y-73492395D01*
X67474526Y-73564012D01*
X67399862Y-73673286D01*
X67373594Y-73803000D01*
X67373594Y-74248243D01*
X67292631Y-74052297D01*
X66919666Y-73678681D01*
X66432115Y-73476231D01*
X65904202Y-73475771D01*
X65416297Y-73677369D01*
X65042681Y-74050334D01*
X64960406Y-74248473D01*
X64960406Y-73803000D01*
X64937605Y-73681821D01*
X64865988Y-73570526D01*
X64756714Y-73495862D01*
X64627000Y-73469594D01*
X62627000Y-73469594D01*
X62505821Y-73492395D01*
X62394526Y-73564012D01*
X62319862Y-73673286D01*
X62293594Y-73803000D01*
X50533769Y-73803000D01*
X50409666Y-73678681D01*
X49922115Y-73476231D01*
X49394202Y-73475771D01*
X48906297Y-73677369D01*
X48532681Y-74050334D01*
X48450406Y-74248473D01*
X48450406Y-73803000D01*
X48427605Y-73681821D01*
X48355988Y-73570526D01*
X48246714Y-73495862D01*
X48117000Y-73469594D01*
X46117000Y-73469594D01*
X45995821Y-73492395D01*
X45884526Y-73564012D01*
X45809862Y-73673286D01*
X45783594Y-73803000D01*
X45783594Y-74248243D01*
X45702631Y-74052297D01*
X45329666Y-73678681D01*
X44842115Y-73476231D01*
X44314202Y-73475771D01*
X43826297Y-73677369D01*
X43452681Y-74050334D01*
X43370406Y-74248473D01*
X43370406Y-73803000D01*
X43347605Y-73681821D01*
X43275988Y-73570526D01*
X43166714Y-73495862D01*
X43037000Y-73469594D01*
X41037000Y-73469594D01*
X40915821Y-73492395D01*
X40804526Y-73564012D01*
X40729862Y-73673286D01*
X40703594Y-73803000D01*
X40703594Y-74248243D01*
X40622631Y-74052297D01*
X40249666Y-73678681D01*
X39762115Y-73476231D01*
X39234202Y-73475771D01*
X38746297Y-73677369D01*
X38372681Y-74050334D01*
X38290406Y-74248473D01*
X38290406Y-73803000D01*
X38267605Y-73681821D01*
X38195988Y-73570526D01*
X38086714Y-73495862D01*
X37957000Y-73469594D01*
X35957000Y-73469594D01*
X35835821Y-73492395D01*
X35724526Y-73564012D01*
X35649862Y-73673286D01*
X35623594Y-73803000D01*
X35433000Y-73803000D01*
X35433000Y-66992798D01*
X35502771Y-66992798D01*
X35704369Y-67480703D01*
X36077334Y-67854319D01*
X36564885Y-68056769D01*
X37092798Y-68057229D01*
X37580703Y-67855631D01*
X37954319Y-67482666D01*
X38079167Y-67182000D01*
X42080948Y-67182000D01*
X42204369Y-67480703D01*
X42577334Y-67854319D01*
X43064885Y-68056769D01*
X43592798Y-68057229D01*
X44080703Y-67855631D01*
X44454319Y-67482666D01*
X44656769Y-66995115D01*
X44657229Y-66467202D01*
X44455631Y-65979297D01*
X44082666Y-65605681D01*
X43595115Y-65403231D01*
X43067202Y-65402771D01*
X42766318Y-65527094D01*
X41854000Y-64614776D01*
X41854000Y-62492798D01*
X42002771Y-62492798D01*
X42204369Y-62980703D01*
X42577334Y-63354319D01*
X43064885Y-63556769D01*
X43592798Y-63557229D01*
X43953960Y-63408000D01*
X45933594Y-63408000D01*
X45933594Y-64608000D01*
X45956395Y-64729179D01*
X46028012Y-64840474D01*
X46137286Y-64915138D01*
X46267000Y-64941406D01*
X47967000Y-64941406D01*
X48088179Y-64918605D01*
X48199474Y-64846988D01*
X48274138Y-64737714D01*
X48300406Y-64608000D01*
X48300406Y-63408000D01*
X48277605Y-63286821D01*
X48205988Y-63175526D01*
X48096714Y-63100862D01*
X47967000Y-63074594D01*
X46267000Y-63074594D01*
X46145821Y-63097395D01*
X46034526Y-63169012D01*
X45959862Y-63278286D01*
X45933594Y-63408000D01*
X43953960Y-63408000D01*
X44080703Y-63355631D01*
X44454319Y-62982666D01*
X44656769Y-62495115D01*
X44657037Y-62186498D01*
X45902376Y-62186498D01*
X45950954Y-62359947D01*
X46155368Y-62683712D01*
X46468121Y-62904606D01*
X46841600Y-62989000D01*
X47091600Y-62989000D01*
X47091600Y-62033400D01*
X47142400Y-62033400D01*
X47142400Y-62989000D01*
X47392400Y-62989000D01*
X47765879Y-62904606D01*
X48078632Y-62683712D01*
X48283046Y-62359947D01*
X48331624Y-62186498D01*
X48252386Y-62033400D01*
X47142400Y-62033400D01*
X47091600Y-62033400D01*
X45981614Y-62033400D01*
X45902376Y-62186498D01*
X44657037Y-62186498D01*
X44657229Y-61967202D01*
X44600333Y-61829502D01*
X45902376Y-61829502D01*
X45981614Y-61982600D01*
X47091600Y-61982600D01*
X47091600Y-61027000D01*
X47142400Y-61027000D01*
X47142400Y-61982600D01*
X48252386Y-61982600D01*
X48331624Y-61829502D01*
X48283046Y-61656053D01*
X48078632Y-61332288D01*
X47765879Y-61111394D01*
X47392400Y-61027000D01*
X47142400Y-61027000D01*
X47091600Y-61027000D01*
X46841600Y-61027000D01*
X46468121Y-61111394D01*
X46155368Y-61332288D01*
X45950954Y-61656053D01*
X45902376Y-61829502D01*
X44600333Y-61829502D01*
X44455631Y-61479297D01*
X44082666Y-61105681D01*
X43595115Y-60903231D01*
X43067202Y-60902771D01*
X42579297Y-61104369D01*
X42205681Y-61477334D01*
X42003231Y-61964885D01*
X42002771Y-62492798D01*
X41854000Y-62492798D01*
X41854000Y-60008000D01*
X45916941Y-60008000D01*
X45987505Y-60362748D01*
X46188453Y-60663488D01*
X46489193Y-60864436D01*
X46843941Y-60935000D01*
X47390059Y-60935000D01*
X47744807Y-60864436D01*
X48045547Y-60663488D01*
X48246495Y-60362748D01*
X48317059Y-60008000D01*
X48246495Y-59653252D01*
X48045547Y-59352512D01*
X47744807Y-59151564D01*
X47390059Y-59081000D01*
X46843941Y-59081000D01*
X46489193Y-59151564D01*
X46188453Y-59352512D01*
X45987505Y-59653252D01*
X45916941Y-60008000D01*
X41854000Y-60008000D01*
X41854000Y-59690000D01*
X41819594Y-59517027D01*
X41721612Y-59370388D01*
X40359224Y-58008000D01*
X45916941Y-58008000D01*
X45987505Y-58362748D01*
X46188453Y-58663488D01*
X46489193Y-58864436D01*
X46843941Y-58935000D01*
X47390059Y-58935000D01*
X47744807Y-58864436D01*
X48045547Y-58663488D01*
X48246495Y-58362748D01*
X48317059Y-58008000D01*
X48246495Y-57653252D01*
X48045547Y-57352512D01*
X47744807Y-57151564D01*
X47390059Y-57081000D01*
X46843941Y-57081000D01*
X46489193Y-57151564D01*
X46188453Y-57352512D01*
X45987505Y-57653252D01*
X45916941Y-58008000D01*
X40359224Y-58008000D01*
X38806000Y-56454776D01*
X38806000Y-55417246D01*
X38859952Y-55688479D01*
X39039223Y-55956777D01*
X40563222Y-57480777D01*
X40821350Y-57653252D01*
X40831521Y-57660048D01*
X41148000Y-57723000D01*
X42556545Y-57723000D01*
X42598342Y-57764870D01*
X42975120Y-57921322D01*
X43383090Y-57921678D01*
X43760140Y-57765884D01*
X44048870Y-57477658D01*
X44205322Y-57100880D01*
X44205678Y-56692910D01*
X44049884Y-56315860D01*
X43761658Y-56027130D01*
X43715588Y-56008000D01*
X45916941Y-56008000D01*
X45987505Y-56362748D01*
X46188453Y-56663488D01*
X46489193Y-56864436D01*
X46843941Y-56935000D01*
X47390059Y-56935000D01*
X47744807Y-56864436D01*
X48045547Y-56663488D01*
X48246495Y-56362748D01*
X48317059Y-56008000D01*
X48246495Y-55653252D01*
X48045547Y-55352512D01*
X47744807Y-55151564D01*
X47390059Y-55081000D01*
X46843941Y-55081000D01*
X46489193Y-55151564D01*
X46188453Y-55352512D01*
X45987505Y-55653252D01*
X45916941Y-56008000D01*
X43715588Y-56008000D01*
X43384880Y-55870678D01*
X42976910Y-55870322D01*
X42599860Y-56026116D01*
X42556901Y-56069000D01*
X41490555Y-56069000D01*
X40451000Y-55029446D01*
X40451000Y-53721000D01*
X42148094Y-53721000D01*
X42148094Y-55118000D01*
X42170895Y-55239179D01*
X42242512Y-55350474D01*
X42351786Y-55425138D01*
X42481500Y-55451406D01*
X43878500Y-55451406D01*
X43999679Y-55428605D01*
X44110974Y-55356988D01*
X44185638Y-55247714D01*
X44211906Y-55118000D01*
X44211906Y-54008000D01*
X45916941Y-54008000D01*
X45987505Y-54362748D01*
X46188453Y-54663488D01*
X46489193Y-54864436D01*
X46843941Y-54935000D01*
X47390059Y-54935000D01*
X47744807Y-54864436D01*
X48045547Y-54663488D01*
X48246495Y-54362748D01*
X48317059Y-54008000D01*
X48246495Y-53653252D01*
X48045547Y-53352512D01*
X47744807Y-53151564D01*
X47390059Y-53081000D01*
X46843941Y-53081000D01*
X46489193Y-53151564D01*
X46188453Y-53352512D01*
X45987505Y-53653252D01*
X45916941Y-54008000D01*
X44211906Y-54008000D01*
X44211906Y-53721000D01*
X44189105Y-53599821D01*
X44117488Y-53488526D01*
X44008214Y-53413862D01*
X43878500Y-53387594D01*
X42481500Y-53387594D01*
X42360321Y-53410395D01*
X42249026Y-53482012D01*
X42174362Y-53591286D01*
X42148094Y-53721000D01*
X40451000Y-53721000D01*
X40451000Y-51470823D01*
X40563223Y-51638777D01*
X41405223Y-52480777D01*
X41673521Y-52660048D01*
X41990000Y-52723000D01*
X42556545Y-52723000D01*
X42598342Y-52764870D01*
X42975120Y-52921322D01*
X43383090Y-52921678D01*
X43760140Y-52765884D01*
X43803099Y-52723000D01*
X48505446Y-52723000D01*
X48957000Y-53174554D01*
X48957000Y-69596000D01*
X49019952Y-69912479D01*
X49199223Y-70180777D01*
X49467521Y-70360048D01*
X49784000Y-70423000D01*
X50100479Y-70360048D01*
X50368777Y-70180777D01*
X50548048Y-69912479D01*
X50611000Y-69596000D01*
X50611000Y-67843400D01*
X51587400Y-67843400D01*
X51587400Y-67995800D01*
X51691860Y-68470154D01*
X51969896Y-68868425D01*
X52379179Y-69129980D01*
X52612255Y-69195448D01*
X52806600Y-69119469D01*
X52806600Y-67843400D01*
X52857400Y-67843400D01*
X52857400Y-69119469D01*
X53051745Y-69195448D01*
X53284821Y-69129980D01*
X53694104Y-68868425D01*
X53972140Y-68470154D01*
X54076600Y-67995800D01*
X54076600Y-67843400D01*
X52857400Y-67843400D01*
X52806600Y-67843400D01*
X51587400Y-67843400D01*
X50611000Y-67843400D01*
X50611000Y-67640200D01*
X51587400Y-67640200D01*
X51587400Y-67792600D01*
X52806600Y-67792600D01*
X52806600Y-66516531D01*
X52857400Y-66516531D01*
X52857400Y-67792600D01*
X54076600Y-67792600D01*
X54076600Y-67640200D01*
X54076400Y-67639289D01*
X54181400Y-67639289D01*
X54181400Y-67996711D01*
X54272029Y-68452334D01*
X54530119Y-68838592D01*
X54916377Y-69096682D01*
X55372000Y-69187311D01*
X55827623Y-69096682D01*
X56213881Y-68838592D01*
X56471971Y-68452334D01*
X56562600Y-67996711D01*
X56562600Y-67639289D01*
X56471971Y-67183666D01*
X56213881Y-66797408D01*
X55827623Y-66539318D01*
X55824000Y-66538597D01*
X55824000Y-61902728D01*
X55903235Y-61823631D01*
X55998891Y-61593265D01*
X55999109Y-61343829D01*
X55903855Y-61113297D01*
X55727631Y-60936765D01*
X55497265Y-60841109D01*
X55247829Y-60840891D01*
X55017297Y-60936145D01*
X54840765Y-61112369D01*
X54745109Y-61342735D01*
X54744891Y-61592171D01*
X54840145Y-61822703D01*
X54920000Y-61902698D01*
X54920000Y-66538597D01*
X54916377Y-66539318D01*
X54530119Y-66797408D01*
X54272029Y-67183666D01*
X54181400Y-67639289D01*
X54076400Y-67639289D01*
X53972140Y-67165846D01*
X53694104Y-66767575D01*
X53284821Y-66506020D01*
X53051745Y-66440552D01*
X52857400Y-66516531D01*
X52806600Y-66516531D01*
X52612255Y-66440552D01*
X52379179Y-66506020D01*
X51969896Y-66767575D01*
X51691860Y-67165846D01*
X51587400Y-67640200D01*
X50611000Y-67640200D01*
X50611000Y-53972171D01*
X52712891Y-53972171D01*
X52808145Y-54202703D01*
X52888000Y-54282698D01*
X52888000Y-56896000D01*
X52922406Y-57068973D01*
X53020388Y-57215612D01*
X57460000Y-61655225D01*
X57460000Y-66538597D01*
X57456377Y-66539318D01*
X57070119Y-66797408D01*
X56812029Y-67183666D01*
X56721400Y-67639289D01*
X56721400Y-67996711D01*
X56812029Y-68452334D01*
X57070119Y-68838592D01*
X57456377Y-69096682D01*
X57912000Y-69187311D01*
X58367623Y-69096682D01*
X58753881Y-68838592D01*
X59011971Y-68452334D01*
X59102600Y-67996711D01*
X59102600Y-67639289D01*
X59011971Y-67183666D01*
X58756950Y-66802000D01*
X59254994Y-66802000D01*
X59254994Y-68834000D01*
X59277795Y-68955179D01*
X59349412Y-69066474D01*
X59458686Y-69141138D01*
X59588400Y-69167406D01*
X61315600Y-69167406D01*
X61436779Y-69144605D01*
X61548074Y-69072988D01*
X61622738Y-68963714D01*
X61649006Y-68834000D01*
X61649006Y-66992798D01*
X68522771Y-66992798D01*
X68724369Y-67480703D01*
X69097334Y-67854319D01*
X69398000Y-67979167D01*
X69398000Y-69850000D01*
X69432406Y-70022973D01*
X69530388Y-70169612D01*
X71054387Y-71693612D01*
X71201027Y-71791594D01*
X71374000Y-71826000D01*
X74930000Y-71826000D01*
X75102973Y-71791594D01*
X75249612Y-71693612D01*
X76669612Y-70273612D01*
X76767594Y-70126973D01*
X76802000Y-69954000D01*
X76802000Y-67979052D01*
X77100703Y-67855631D01*
X77474319Y-67482666D01*
X77676769Y-66995115D01*
X77677229Y-66467202D01*
X77475631Y-65979297D01*
X77102666Y-65605681D01*
X76615115Y-65403231D01*
X76087202Y-65402771D01*
X75599297Y-65604369D01*
X75225681Y-65977334D01*
X75023231Y-66464885D01*
X75022771Y-66992798D01*
X75224369Y-67480703D01*
X75597334Y-67854319D01*
X75898000Y-67979167D01*
X75898000Y-69766776D01*
X74742776Y-70922000D01*
X71561225Y-70922000D01*
X70302000Y-69662776D01*
X70302000Y-67979052D01*
X70600703Y-67855631D01*
X70974319Y-67482666D01*
X71176769Y-66995115D01*
X71177229Y-66467202D01*
X70975631Y-65979297D01*
X70602666Y-65605681D01*
X70115115Y-65403231D01*
X69587202Y-65402771D01*
X69099297Y-65604369D01*
X68725681Y-65977334D01*
X68523231Y-66464885D01*
X68522771Y-66992798D01*
X61649006Y-66992798D01*
X61649006Y-66802000D01*
X61626205Y-66680821D01*
X61554588Y-66569526D01*
X61445314Y-66494862D01*
X61315600Y-66468594D01*
X59588400Y-66468594D01*
X59467221Y-66491395D01*
X59355926Y-66563012D01*
X59281262Y-66672286D01*
X59254994Y-66802000D01*
X58756950Y-66802000D01*
X58753881Y-66797408D01*
X58367623Y-66539318D01*
X58364000Y-66538597D01*
X58364000Y-63408000D01*
X63713594Y-63408000D01*
X63713594Y-64608000D01*
X63736395Y-64729179D01*
X63808012Y-64840474D01*
X63917286Y-64915138D01*
X64047000Y-64941406D01*
X65747000Y-64941406D01*
X65868179Y-64918605D01*
X65979474Y-64846988D01*
X66054138Y-64737714D01*
X66080406Y-64608000D01*
X66080406Y-63408000D01*
X66057605Y-63286821D01*
X65986345Y-63176080D01*
X68939841Y-63176080D01*
X69043050Y-63383885D01*
X69546047Y-63604857D01*
X70095319Y-63616520D01*
X70607244Y-63417099D01*
X70656950Y-63383885D01*
X70760159Y-63176080D01*
X69850000Y-62265921D01*
X68939841Y-63176080D01*
X65986345Y-63176080D01*
X65985988Y-63175526D01*
X65876714Y-63100862D01*
X65747000Y-63074594D01*
X64047000Y-63074594D01*
X63925821Y-63097395D01*
X63814526Y-63169012D01*
X63739862Y-63278286D01*
X63713594Y-63408000D01*
X58364000Y-63408000D01*
X58364000Y-62186498D01*
X63682376Y-62186498D01*
X63730954Y-62359947D01*
X63935368Y-62683712D01*
X64248121Y-62904606D01*
X64621600Y-62989000D01*
X64871600Y-62989000D01*
X64871600Y-62033400D01*
X64922400Y-62033400D01*
X64922400Y-62989000D01*
X65172400Y-62989000D01*
X65545879Y-62904606D01*
X65858632Y-62683712D01*
X65990204Y-62475319D01*
X68463480Y-62475319D01*
X68662901Y-62987244D01*
X68696115Y-63036950D01*
X68903920Y-63140159D01*
X69814079Y-62230000D01*
X69885921Y-62230000D01*
X70796080Y-63140159D01*
X71003885Y-63036950D01*
X71224857Y-62533953D01*
X71236520Y-61984681D01*
X71037099Y-61472756D01*
X71003885Y-61423050D01*
X70796080Y-61319841D01*
X69885921Y-62230000D01*
X69814079Y-62230000D01*
X68903920Y-61319841D01*
X68696115Y-61423050D01*
X68475143Y-61926047D01*
X68463480Y-62475319D01*
X65990204Y-62475319D01*
X66063046Y-62359947D01*
X66111624Y-62186498D01*
X66032386Y-62033400D01*
X64922400Y-62033400D01*
X64871600Y-62033400D01*
X63761614Y-62033400D01*
X63682376Y-62186498D01*
X58364000Y-62186498D01*
X58364000Y-61468000D01*
X58329594Y-61295027D01*
X58231612Y-61148387D01*
X53792000Y-56708776D01*
X53792000Y-54282728D01*
X53871235Y-54203631D01*
X53966891Y-53973265D01*
X53967109Y-53723829D01*
X53871855Y-53493297D01*
X53842780Y-53464171D01*
X55506891Y-53464171D01*
X55602145Y-53694703D01*
X55778369Y-53871235D01*
X56008735Y-53966891D01*
X56121766Y-53966990D01*
X63434387Y-61279612D01*
X63581027Y-61377594D01*
X63754000Y-61412000D01*
X63885041Y-61412000D01*
X63730954Y-61656053D01*
X63682376Y-61829502D01*
X63761614Y-61982600D01*
X64871600Y-61982600D01*
X64871600Y-61962600D01*
X64922400Y-61962600D01*
X64922400Y-61982600D01*
X66032386Y-61982600D01*
X66111624Y-61829502D01*
X66063046Y-61656053D01*
X65908959Y-61412000D01*
X66802000Y-61412000D01*
X66974973Y-61377594D01*
X67115164Y-61283920D01*
X68939841Y-61283920D01*
X69850000Y-62194079D01*
X70760159Y-61283920D01*
X70656950Y-61076115D01*
X70153953Y-60855143D01*
X69604681Y-60843480D01*
X69092756Y-61042901D01*
X69043050Y-61076115D01*
X68939841Y-61283920D01*
X67115164Y-61283920D01*
X67121612Y-61279612D01*
X70169612Y-58231612D01*
X70267594Y-58084973D01*
X70302000Y-57912000D01*
X70302000Y-57819052D01*
X70600703Y-57695631D01*
X70974319Y-57322666D01*
X71176769Y-56835115D01*
X71177229Y-56307202D01*
X70975631Y-55819297D01*
X70602666Y-55445681D01*
X70115115Y-55243231D01*
X69587202Y-55242771D01*
X69099297Y-55444369D01*
X68725681Y-55817334D01*
X68523231Y-56304885D01*
X68522771Y-56832798D01*
X68724369Y-57320703D01*
X69097334Y-57694319D01*
X69331304Y-57791472D01*
X66614776Y-60508000D01*
X65929441Y-60508000D01*
X66026495Y-60362748D01*
X66097059Y-60008000D01*
X66026495Y-59653252D01*
X65825547Y-59352512D01*
X65524807Y-59151564D01*
X65170059Y-59081000D01*
X64623941Y-59081000D01*
X64269193Y-59151564D01*
X63968453Y-59352512D01*
X63901676Y-59452452D01*
X62936000Y-58486776D01*
X62936000Y-57733224D01*
X63530388Y-58327612D01*
X63677027Y-58425594D01*
X63829802Y-58455982D01*
X63968453Y-58663488D01*
X64269193Y-58864436D01*
X64623941Y-58935000D01*
X65170059Y-58935000D01*
X65524807Y-58864436D01*
X65825547Y-58663488D01*
X66026495Y-58362748D01*
X66097059Y-58008000D01*
X66026495Y-57653252D01*
X65825547Y-57352512D01*
X65524807Y-57151564D01*
X65170059Y-57081000D01*
X64623941Y-57081000D01*
X64269193Y-57151564D01*
X63968453Y-57352512D01*
X63914493Y-57433269D01*
X63698000Y-57216776D01*
X63698000Y-56013324D01*
X63767505Y-56362748D01*
X63968453Y-56663488D01*
X64269193Y-56864436D01*
X64623941Y-56935000D01*
X65170059Y-56935000D01*
X65524807Y-56864436D01*
X65825547Y-56663488D01*
X66026495Y-56362748D01*
X66097059Y-56008000D01*
X66026495Y-55653252D01*
X65825547Y-55352512D01*
X65524807Y-55151564D01*
X65170059Y-55081000D01*
X64623941Y-55081000D01*
X64269193Y-55151564D01*
X63968453Y-55352512D01*
X63767505Y-55653252D01*
X63698000Y-56002676D01*
X63698000Y-54013324D01*
X63767505Y-54362748D01*
X63968453Y-54663488D01*
X64269193Y-54864436D01*
X64623941Y-54935000D01*
X65170059Y-54935000D01*
X65524807Y-54864436D01*
X65825547Y-54663488D01*
X66026495Y-54362748D01*
X66097059Y-54008000D01*
X66026495Y-53653252D01*
X65825547Y-53352512D01*
X65524807Y-53151564D01*
X65170059Y-53081000D01*
X64623941Y-53081000D01*
X64269193Y-53151564D01*
X63968453Y-53352512D01*
X63767505Y-53653252D01*
X63698000Y-54002676D01*
X63698000Y-53016080D01*
X68939841Y-53016080D01*
X69043050Y-53223885D01*
X69546047Y-53444857D01*
X70095319Y-53456520D01*
X70607244Y-53257099D01*
X70656950Y-53223885D01*
X70760159Y-53016080D01*
X69850000Y-52105921D01*
X68939841Y-53016080D01*
X63698000Y-53016080D01*
X63698000Y-52315319D01*
X68463480Y-52315319D01*
X68662901Y-52827244D01*
X68696115Y-52876950D01*
X68903920Y-52980159D01*
X69814079Y-52070000D01*
X69885921Y-52070000D01*
X70796080Y-52980159D01*
X71003885Y-52876950D01*
X71224857Y-52373953D01*
X71236520Y-51824681D01*
X71037099Y-51312756D01*
X71003885Y-51263050D01*
X70796080Y-51159841D01*
X69885921Y-52070000D01*
X69814079Y-52070000D01*
X68903920Y-51159841D01*
X68696115Y-51263050D01*
X68475143Y-51766047D01*
X68463480Y-52315319D01*
X63698000Y-52315319D01*
X63698000Y-51123920D01*
X68939841Y-51123920D01*
X69850000Y-52034079D01*
X70760159Y-51123920D01*
X70656950Y-50916115D01*
X70153953Y-50695143D01*
X69604681Y-50683480D01*
X69092756Y-50882901D01*
X69043050Y-50916115D01*
X68939841Y-51123920D01*
X63698000Y-51123920D01*
X63698000Y-43688000D01*
X63663594Y-43515027D01*
X63618988Y-43448270D01*
X63619109Y-43309829D01*
X63523855Y-43079297D01*
X63347631Y-42902765D01*
X63117265Y-42807109D01*
X62867829Y-42806891D01*
X62637297Y-42902145D01*
X62460765Y-43078369D01*
X62365109Y-43308735D01*
X62364891Y-43558171D01*
X62369324Y-43568899D01*
X62359829Y-43568891D01*
X62129297Y-43664145D01*
X61952765Y-43840369D01*
X61857109Y-44070735D01*
X61856891Y-44320171D01*
X61952145Y-44550703D01*
X62032000Y-44630698D01*
X62032000Y-58598775D01*
X56761011Y-53327787D01*
X56761109Y-53215829D01*
X56665855Y-52985297D01*
X56489631Y-52808765D01*
X56259265Y-52713109D01*
X56009829Y-52712891D01*
X55779297Y-52808145D01*
X55602765Y-52984369D01*
X55507109Y-53214735D01*
X55506891Y-53464171D01*
X53842780Y-53464171D01*
X53695631Y-53316765D01*
X53465265Y-53221109D01*
X53215829Y-53220891D01*
X52985297Y-53316145D01*
X52808765Y-53492369D01*
X52713109Y-53722735D01*
X52712891Y-53972171D01*
X50611000Y-53972171D01*
X50611000Y-52832000D01*
X50548048Y-52515521D01*
X50368777Y-52247223D01*
X49432777Y-51311223D01*
X49164479Y-51131952D01*
X48848000Y-51069000D01*
X44080554Y-51069000D01*
X44538554Y-50611000D01*
X49949446Y-50611000D01*
X50977223Y-51638777D01*
X51485222Y-52146777D01*
X51635551Y-52247223D01*
X51753521Y-52326048D01*
X52070000Y-52389000D01*
X59182000Y-52389000D01*
X59498479Y-52326048D01*
X59766777Y-52146777D01*
X59946048Y-51878479D01*
X60009000Y-51562000D01*
X59946048Y-51245521D01*
X59766777Y-50977223D01*
X59498479Y-50797952D01*
X59182000Y-50735000D01*
X52412555Y-50735000D01*
X52146777Y-50469223D01*
X51585725Y-49908171D01*
X52204891Y-49908171D01*
X52300145Y-50138703D01*
X52476369Y-50315235D01*
X52706735Y-50410891D01*
X52956171Y-50411109D01*
X53186703Y-50315855D01*
X53363235Y-50139631D01*
X53458891Y-49909265D01*
X53459109Y-49659829D01*
X53424692Y-49576532D01*
X53781224Y-49220000D01*
X56896000Y-49220000D01*
X57068973Y-49185594D01*
X57215612Y-49087612D01*
X58178213Y-48125011D01*
X58290171Y-48125109D01*
X58520703Y-48029855D01*
X58697235Y-47853631D01*
X58792891Y-47623265D01*
X58793109Y-47373829D01*
X58697855Y-47143297D01*
X58521631Y-46966765D01*
X58291265Y-46871109D01*
X58041829Y-46870891D01*
X57811297Y-46966145D01*
X57634765Y-47142369D01*
X57539109Y-47372735D01*
X57539010Y-47485766D01*
X56708776Y-48316000D01*
X53594000Y-48316000D01*
X53421027Y-48350406D01*
X53274388Y-48448388D01*
X52512388Y-49210388D01*
X52487229Y-49248041D01*
X52477297Y-49252145D01*
X52300765Y-49428369D01*
X52205109Y-49658735D01*
X52204891Y-49908171D01*
X51585725Y-49908171D01*
X50876777Y-49199223D01*
X50608479Y-49019952D01*
X50292000Y-48957000D01*
X44196000Y-48957000D01*
X43879521Y-49019952D01*
X43611223Y-49199223D01*
X42595223Y-50215223D01*
X42415952Y-50483521D01*
X42353000Y-50800000D01*
X42353000Y-51069000D01*
X42332554Y-51069000D01*
X41975000Y-50711446D01*
X41975000Y-46098171D01*
X42298891Y-46098171D01*
X42394145Y-46328703D01*
X42570369Y-46505235D01*
X42800735Y-46600891D01*
X43050171Y-46601109D01*
X43280703Y-46505855D01*
X43360698Y-46426000D01*
X58166000Y-46426000D01*
X58338973Y-46391594D01*
X58485612Y-46293612D01*
X58686213Y-46093011D01*
X58798171Y-46093109D01*
X59028703Y-45997855D01*
X59205235Y-45821631D01*
X59300891Y-45591265D01*
X59301109Y-45341829D01*
X59205855Y-45111297D01*
X59029631Y-44934765D01*
X58799265Y-44839109D01*
X58549829Y-44838891D01*
X58319297Y-44934145D01*
X58142765Y-45110369D01*
X58047109Y-45340735D01*
X58047010Y-45453765D01*
X57978776Y-45522000D01*
X43360728Y-45522000D01*
X43281631Y-45442765D01*
X43051265Y-45347109D01*
X42801829Y-45346891D01*
X42571297Y-45442145D01*
X42394765Y-45618369D01*
X42299109Y-45848735D01*
X42298891Y-46098171D01*
X41975000Y-46098171D01*
X41975000Y-44066171D01*
X42298891Y-44066171D01*
X42394145Y-44296703D01*
X42570369Y-44473235D01*
X42800735Y-44568891D01*
X43050171Y-44569109D01*
X43280703Y-44473855D01*
X43360698Y-44394000D01*
X48079272Y-44394000D01*
X48158369Y-44473235D01*
X48388735Y-44568891D01*
X48638171Y-44569109D01*
X48868703Y-44473855D01*
X49045235Y-44297631D01*
X49140891Y-44067265D01*
X49141109Y-43817829D01*
X49045855Y-43587297D01*
X48869631Y-43410765D01*
X48639265Y-43315109D01*
X48389829Y-43314891D01*
X48159297Y-43410145D01*
X48079302Y-43490000D01*
X43360728Y-43490000D01*
X43281631Y-43410765D01*
X43051265Y-43315109D01*
X42801829Y-43314891D01*
X42571297Y-43410145D01*
X42394765Y-43586369D01*
X42299109Y-43816735D01*
X42298891Y-44066171D01*
X41975000Y-44066171D01*
X41975000Y-43776554D01*
X43014555Y-42737000D01*
X44647924Y-42737000D01*
X44958258Y-43047876D01*
X45451689Y-43252766D01*
X45985967Y-43253233D01*
X46479755Y-43049204D01*
X46857876Y-42671742D01*
X47062766Y-42178311D01*
X47063233Y-41644033D01*
X46859204Y-41150245D01*
X46481742Y-40772124D01*
X46181597Y-40647493D01*
X46233944Y-40637081D01*
X46669644Y-40345955D01*
X46899353Y-40002171D01*
X53728891Y-40002171D01*
X53824145Y-40232703D01*
X54000369Y-40409235D01*
X54230735Y-40504891D01*
X54480171Y-40505109D01*
X54710703Y-40409855D01*
X54887235Y-40233631D01*
X54982891Y-40003265D01*
X54982900Y-39992807D01*
X54992735Y-39996891D01*
X55242171Y-39997109D01*
X55472703Y-39901855D01*
X55626655Y-39748171D01*
X62618891Y-39748171D01*
X62714145Y-39978703D01*
X62890369Y-40155235D01*
X63120735Y-40250891D01*
X63370171Y-40251109D01*
X63600703Y-40155855D01*
X63680698Y-40076000D01*
X67122776Y-40076000D01*
X71938000Y-44891224D01*
X71938000Y-68399272D01*
X71858765Y-68478369D01*
X71763109Y-68708735D01*
X71762891Y-68958171D01*
X71858145Y-69188703D01*
X72034369Y-69365235D01*
X72264735Y-69460891D01*
X72514171Y-69461109D01*
X72524899Y-69456676D01*
X72524891Y-69466171D01*
X72620145Y-69696703D01*
X72796369Y-69873235D01*
X73026735Y-69968891D01*
X73276171Y-69969109D01*
X73286899Y-69964676D01*
X73286891Y-69974171D01*
X73382145Y-70204703D01*
X73558369Y-70381235D01*
X73788735Y-70476891D01*
X74038171Y-70477109D01*
X74268703Y-70381855D01*
X74445235Y-70205631D01*
X74540891Y-69975265D01*
X74541109Y-69725829D01*
X74445855Y-69495297D01*
X74366000Y-69415302D01*
X74366000Y-63176080D01*
X75439841Y-63176080D01*
X75543050Y-63383885D01*
X76046047Y-63604857D01*
X76595319Y-63616520D01*
X77107244Y-63417099D01*
X77156950Y-63383885D01*
X77260159Y-63176080D01*
X76350000Y-62265921D01*
X75439841Y-63176080D01*
X74366000Y-63176080D01*
X74366000Y-62475319D01*
X74963480Y-62475319D01*
X75162901Y-62987244D01*
X75196115Y-63036950D01*
X75403920Y-63140159D01*
X76314079Y-62230000D01*
X76385921Y-62230000D01*
X77296080Y-63140159D01*
X77503885Y-63036950D01*
X77724857Y-62533953D01*
X77736520Y-61984681D01*
X77537099Y-61472756D01*
X77503885Y-61423050D01*
X77296080Y-61319841D01*
X76385921Y-62230000D01*
X76314079Y-62230000D01*
X75403920Y-61319841D01*
X75196115Y-61423050D01*
X74975143Y-61926047D01*
X74963480Y-62475319D01*
X74366000Y-62475319D01*
X74366000Y-61283920D01*
X75439841Y-61283920D01*
X76350000Y-62194079D01*
X77260159Y-61283920D01*
X77156950Y-61076115D01*
X76653953Y-60855143D01*
X76104681Y-60843480D01*
X75592756Y-61042901D01*
X75543050Y-61076115D01*
X75439841Y-61283920D01*
X74366000Y-61283920D01*
X74366000Y-56832798D01*
X75022771Y-56832798D01*
X75224369Y-57320703D01*
X75597334Y-57694319D01*
X76084885Y-57896769D01*
X76612798Y-57897229D01*
X77100703Y-57695631D01*
X77474319Y-57322666D01*
X77676769Y-56835115D01*
X77677229Y-56307202D01*
X77475631Y-55819297D01*
X77102666Y-55445681D01*
X76615115Y-55243231D01*
X76087202Y-55242771D01*
X75599297Y-55444369D01*
X75225681Y-55817334D01*
X75023231Y-56304885D01*
X75022771Y-56832798D01*
X74366000Y-56832798D01*
X74366000Y-53016080D01*
X75439841Y-53016080D01*
X75543050Y-53223885D01*
X76046047Y-53444857D01*
X76595319Y-53456520D01*
X77107244Y-53257099D01*
X77156950Y-53223885D01*
X77260159Y-53016080D01*
X76350000Y-52105921D01*
X75439841Y-53016080D01*
X74366000Y-53016080D01*
X74366000Y-52315319D01*
X74963480Y-52315319D01*
X75162901Y-52827244D01*
X75196115Y-52876950D01*
X75403920Y-52980159D01*
X76314079Y-52070000D01*
X76385921Y-52070000D01*
X77296080Y-52980159D01*
X77503885Y-52876950D01*
X77724857Y-52373953D01*
X77736520Y-51824681D01*
X77537099Y-51312756D01*
X77503885Y-51263050D01*
X77296080Y-51159841D01*
X76385921Y-52070000D01*
X76314079Y-52070000D01*
X75403920Y-51159841D01*
X75196115Y-51263050D01*
X74975143Y-51766047D01*
X74963480Y-52315319D01*
X74366000Y-52315319D01*
X74366000Y-51123920D01*
X75439841Y-51123920D01*
X76350000Y-52034079D01*
X77260159Y-51123920D01*
X77156950Y-50916115D01*
X76653953Y-50695143D01*
X76104681Y-50683480D01*
X75592756Y-50882901D01*
X75543050Y-50916115D01*
X75439841Y-51123920D01*
X74366000Y-51123920D01*
X74366000Y-45580342D01*
X74868243Y-45580342D01*
X75031948Y-45976537D01*
X75334809Y-46279927D01*
X75730718Y-46444323D01*
X76159402Y-46444697D01*
X76555597Y-46280992D01*
X76858987Y-45978131D01*
X77023383Y-45582222D01*
X77023757Y-45153538D01*
X76860052Y-44757343D01*
X76557191Y-44453953D01*
X76161282Y-44289557D01*
X75732598Y-44289183D01*
X75336403Y-44452888D01*
X75033013Y-44755749D01*
X74868617Y-45151658D01*
X74868243Y-45580342D01*
X74366000Y-45580342D01*
X74366000Y-43688000D01*
X74331594Y-43515027D01*
X74233612Y-43368388D01*
X71563686Y-40698462D01*
X74868243Y-40698462D01*
X75031948Y-41094657D01*
X75334809Y-41398047D01*
X75730718Y-41562443D01*
X76159402Y-41562817D01*
X76555597Y-41399112D01*
X76858987Y-41096251D01*
X77023383Y-40700342D01*
X77023757Y-40271658D01*
X76860052Y-39875463D01*
X76557191Y-39572073D01*
X76161282Y-39407677D01*
X75732598Y-39407303D01*
X75336403Y-39571008D01*
X75033013Y-39873869D01*
X74868617Y-40269778D01*
X74868243Y-40698462D01*
X71563686Y-40698462D01*
X69207011Y-38341787D01*
X69207109Y-38229829D01*
X69111855Y-37999297D01*
X68935631Y-37822765D01*
X68705265Y-37727109D01*
X68455829Y-37726891D01*
X68225297Y-37822145D01*
X68048765Y-37998369D01*
X67953109Y-38228735D01*
X67952891Y-38478171D01*
X67957324Y-38488899D01*
X67947829Y-38488891D01*
X67717297Y-38584145D01*
X67540765Y-38760369D01*
X67445109Y-38990735D01*
X67444927Y-39198838D01*
X67310000Y-39172000D01*
X63680728Y-39172000D01*
X63601631Y-39092765D01*
X63371265Y-38997109D01*
X63121829Y-38996891D01*
X62891297Y-39092145D01*
X62714765Y-39268369D01*
X62619109Y-39498735D01*
X62618891Y-39748171D01*
X55626655Y-39748171D01*
X55649235Y-39725631D01*
X55744891Y-39495265D01*
X55745109Y-39245829D01*
X55649855Y-39015297D01*
X55570000Y-38935302D01*
X55570000Y-38287224D01*
X57469612Y-36387612D01*
X57567594Y-36240973D01*
X57602000Y-36068000D01*
X57602000Y-35468000D01*
X57871594Y-35468000D01*
X57871594Y-36668000D01*
X57894395Y-36789179D01*
X57966012Y-36900474D01*
X58075286Y-36975138D01*
X58205000Y-37001406D01*
X59905000Y-37001406D01*
X60026179Y-36978605D01*
X60137474Y-36906988D01*
X60212138Y-36797714D01*
X60238406Y-36668000D01*
X60238406Y-35468000D01*
X63840594Y-35468000D01*
X63840594Y-36668000D01*
X63863395Y-36789179D01*
X63935012Y-36900474D01*
X64044286Y-36975138D01*
X64174000Y-37001406D01*
X65874000Y-37001406D01*
X65995179Y-36978605D01*
X66106474Y-36906988D01*
X66181138Y-36797714D01*
X66207406Y-36668000D01*
X66207406Y-35468000D01*
X66184605Y-35346821D01*
X66112988Y-35235526D01*
X66003714Y-35160862D01*
X65874000Y-35134594D01*
X64174000Y-35134594D01*
X64052821Y-35157395D01*
X63941526Y-35229012D01*
X63866862Y-35338286D01*
X63840594Y-35468000D01*
X60238406Y-35468000D01*
X60215605Y-35346821D01*
X60143988Y-35235526D01*
X60034714Y-35160862D01*
X59905000Y-35134594D01*
X58205000Y-35134594D01*
X58083821Y-35157395D01*
X57972526Y-35229012D01*
X57897862Y-35338286D01*
X57871594Y-35468000D01*
X57602000Y-35468000D01*
X57602000Y-34068000D01*
X57854941Y-34068000D01*
X57925505Y-34422748D01*
X58126453Y-34723488D01*
X58427193Y-34924436D01*
X58781941Y-34995000D01*
X59328059Y-34995000D01*
X59682807Y-34924436D01*
X59983547Y-34723488D01*
X60184495Y-34422748D01*
X60255059Y-34068000D01*
X63823941Y-34068000D01*
X63894505Y-34422748D01*
X64095453Y-34723488D01*
X64396193Y-34924436D01*
X64750941Y-34995000D01*
X65297059Y-34995000D01*
X65651807Y-34924436D01*
X65952547Y-34723488D01*
X66153495Y-34422748D01*
X66224059Y-34068000D01*
X66153495Y-33713252D01*
X66117295Y-33659074D01*
X68908441Y-33659074D01*
X69398687Y-34845561D01*
X70305664Y-35754123D01*
X71491294Y-36246439D01*
X72775074Y-36247559D01*
X73961561Y-35757313D01*
X74870123Y-34850336D01*
X75362439Y-33664706D01*
X75363559Y-32380926D01*
X74873313Y-31194439D01*
X73966336Y-30285877D01*
X72780706Y-29793561D01*
X71496926Y-29792441D01*
X70310439Y-30282687D01*
X69401877Y-31189664D01*
X68909561Y-32375294D01*
X68908441Y-33659074D01*
X66117295Y-33659074D01*
X65952547Y-33412512D01*
X65651807Y-33211564D01*
X65297059Y-33141000D01*
X64750941Y-33141000D01*
X64396193Y-33211564D01*
X64095453Y-33412512D01*
X63894505Y-33713252D01*
X63823941Y-34068000D01*
X60255059Y-34068000D01*
X60184495Y-33713252D01*
X59983547Y-33412512D01*
X59682807Y-33211564D01*
X59328059Y-33141000D01*
X58781941Y-33141000D01*
X58427193Y-33211564D01*
X58126453Y-33412512D01*
X57925505Y-33713252D01*
X57854941Y-34068000D01*
X57602000Y-34068000D01*
X57602000Y-32246498D01*
X57840376Y-32246498D01*
X57888954Y-32419947D01*
X58093368Y-32743712D01*
X58406121Y-32964606D01*
X58779600Y-33049000D01*
X59029600Y-33049000D01*
X59029600Y-32093400D01*
X59080400Y-32093400D01*
X59080400Y-33049000D01*
X59330400Y-33049000D01*
X59703879Y-32964606D01*
X60016632Y-32743712D01*
X60221046Y-32419947D01*
X60269624Y-32246498D01*
X63809376Y-32246498D01*
X63857954Y-32419947D01*
X64062368Y-32743712D01*
X64375121Y-32964606D01*
X64748600Y-33049000D01*
X64998600Y-33049000D01*
X64998600Y-32093400D01*
X65049400Y-32093400D01*
X65049400Y-33049000D01*
X65299400Y-33049000D01*
X65672879Y-32964606D01*
X65985632Y-32743712D01*
X66190046Y-32419947D01*
X66238624Y-32246498D01*
X66159386Y-32093400D01*
X65049400Y-32093400D01*
X64998600Y-32093400D01*
X63888614Y-32093400D01*
X63809376Y-32246498D01*
X60269624Y-32246498D01*
X60190386Y-32093400D01*
X59080400Y-32093400D01*
X59029600Y-32093400D01*
X57919614Y-32093400D01*
X57840376Y-32246498D01*
X57602000Y-32246498D01*
X57602000Y-31889502D01*
X57840376Y-31889502D01*
X57919614Y-32042600D01*
X59029600Y-32042600D01*
X59029600Y-31087000D01*
X59080400Y-31087000D01*
X59080400Y-32042600D01*
X60190386Y-32042600D01*
X60269624Y-31889502D01*
X63809376Y-31889502D01*
X63888614Y-32042600D01*
X64998600Y-32042600D01*
X64998600Y-31087000D01*
X65049400Y-31087000D01*
X65049400Y-32042600D01*
X66159386Y-32042600D01*
X66238624Y-31889502D01*
X66190046Y-31716053D01*
X65985632Y-31392288D01*
X65672879Y-31171394D01*
X65299400Y-31087000D01*
X65049400Y-31087000D01*
X64998600Y-31087000D01*
X64748600Y-31087000D01*
X64375121Y-31171394D01*
X64062368Y-31392288D01*
X63857954Y-31716053D01*
X63809376Y-31889502D01*
X60269624Y-31889502D01*
X60221046Y-31716053D01*
X60016632Y-31392288D01*
X59703879Y-31171394D01*
X59330400Y-31087000D01*
X59080400Y-31087000D01*
X59029600Y-31087000D01*
X58779600Y-31087000D01*
X58406121Y-31171394D01*
X58093368Y-31392288D01*
X57888954Y-31716053D01*
X57840376Y-31889502D01*
X57602000Y-31889502D01*
X57602000Y-31175224D01*
X59886176Y-28891048D01*
X59996377Y-28964682D01*
X60452000Y-29055311D01*
X60907623Y-28964682D01*
X61293881Y-28706592D01*
X61551971Y-28320334D01*
X61642600Y-27864711D01*
X61642600Y-27507289D01*
X61551971Y-27051666D01*
X61293881Y-26665408D01*
X60907623Y-26407318D01*
X60452000Y-26316689D01*
X59996377Y-26407318D01*
X59610119Y-26665408D01*
X59352029Y-27051666D01*
X59261400Y-27507289D01*
X59261400Y-27864711D01*
X59323229Y-28175547D01*
X56840000Y-30658776D01*
X56840000Y-30159224D01*
X57951838Y-29047387D01*
X58367623Y-28964682D01*
X58753881Y-28706592D01*
X59011971Y-28320334D01*
X59102600Y-27864711D01*
X59102600Y-27507289D01*
X59011971Y-27051666D01*
X58753881Y-26665408D01*
X58367623Y-26407318D01*
X57912000Y-26316689D01*
X57456377Y-26407318D01*
X57070119Y-26665408D01*
X56812029Y-27051666D01*
X56721400Y-27507289D01*
X56721400Y-27864711D01*
X56812029Y-28320334D01*
X57047714Y-28673061D01*
X56068388Y-29652388D01*
X55970406Y-29799027D01*
X55936000Y-29972000D01*
X55936000Y-35626776D01*
X54036388Y-37526388D01*
X53938406Y-37673027D01*
X53904000Y-37846000D01*
X53904000Y-39443272D01*
X53824765Y-39522369D01*
X53729109Y-39752735D01*
X53728891Y-40002171D01*
X46899353Y-40002171D01*
X46960770Y-39910255D01*
X47063000Y-39396311D01*
X47063000Y-39343689D01*
X46960770Y-38829745D01*
X46669644Y-38394045D01*
X46233944Y-38102919D01*
X45720000Y-38000689D01*
X45206056Y-38102919D01*
X44770356Y-38394045D01*
X44479230Y-38829745D01*
X44377000Y-39343689D01*
X44377000Y-39396311D01*
X44479230Y-39910255D01*
X44770356Y-40345955D01*
X45206056Y-40637081D01*
X45258576Y-40647528D01*
X44960245Y-40770796D01*
X44647496Y-41083000D01*
X42672000Y-41083000D01*
X42355521Y-41145952D01*
X42087222Y-41325223D01*
X40563223Y-42849223D01*
X40383952Y-43117521D01*
X40321000Y-43434000D01*
X40321000Y-47335176D01*
X40208777Y-47167222D01*
X39297641Y-46256087D01*
X39426769Y-45945115D01*
X39427229Y-45417202D01*
X39225631Y-44929297D01*
X38852666Y-44555681D01*
X38549851Y-44429940D01*
X38850703Y-44305631D01*
X39224319Y-43932666D01*
X39426769Y-43445115D01*
X39427229Y-42917202D01*
X39225631Y-42429297D01*
X38852666Y-42055681D01*
X38769145Y-42021000D01*
X39175785Y-42021000D01*
X39315819Y-41962996D01*
X39422996Y-41855820D01*
X39481000Y-41715786D01*
X39481000Y-40760650D01*
X39385750Y-40665400D01*
X38125400Y-40665400D01*
X38125400Y-40685400D01*
X38074600Y-40685400D01*
X38074600Y-40665400D01*
X36814250Y-40665400D01*
X36719000Y-40760650D01*
X36719000Y-41715786D01*
X36777004Y-41855820D01*
X36884181Y-41962996D01*
X37024215Y-42021000D01*
X37430056Y-42021000D01*
X37349297Y-42054369D01*
X36975681Y-42427334D01*
X36773231Y-42914885D01*
X36772771Y-43442798D01*
X36974369Y-43930703D01*
X37347334Y-44304319D01*
X37650149Y-44430060D01*
X37349297Y-44554369D01*
X36975681Y-44927334D01*
X36773231Y-45414885D01*
X36772771Y-45942798D01*
X36974369Y-46430703D01*
X37347334Y-46804319D01*
X37619977Y-46917531D01*
X38667869Y-47965424D01*
X38479265Y-47887109D01*
X38229829Y-47886891D01*
X37999297Y-47982145D01*
X37822765Y-48158369D01*
X37727109Y-48388735D01*
X37726891Y-48638171D01*
X37822145Y-48868703D01*
X37902000Y-48948698D01*
X37902000Y-51167717D01*
X37761658Y-51027130D01*
X37384880Y-50870678D01*
X36976910Y-50870322D01*
X36599860Y-51026116D01*
X36311130Y-51314342D01*
X36154678Y-51691120D01*
X36154322Y-52099090D01*
X36310116Y-52476140D01*
X36598342Y-52764870D01*
X36975120Y-52921322D01*
X37383090Y-52921678D01*
X37760140Y-52765884D01*
X37902000Y-52624272D01*
X37902000Y-53667717D01*
X37761658Y-53527130D01*
X37384880Y-53370678D01*
X36976910Y-53370322D01*
X36599860Y-53526116D01*
X36311130Y-53814342D01*
X36154678Y-54191120D01*
X36154322Y-54599090D01*
X36310116Y-54976140D01*
X36598342Y-55264870D01*
X36975120Y-55421322D01*
X37383090Y-55421678D01*
X37760140Y-55265884D01*
X37902000Y-55124272D01*
X37902000Y-56167717D01*
X37761658Y-56027130D01*
X37384880Y-55870678D01*
X36976910Y-55870322D01*
X36599860Y-56026116D01*
X36311130Y-56314342D01*
X36154678Y-56691120D01*
X36154322Y-57099090D01*
X36310116Y-57476140D01*
X36598342Y-57764870D01*
X36975120Y-57921322D01*
X37383090Y-57921678D01*
X37760140Y-57765884D01*
X38048870Y-57477658D01*
X38196031Y-57123255D01*
X40950000Y-59877224D01*
X40950000Y-64802000D01*
X40984406Y-64974973D01*
X41082388Y-65121612D01*
X42127174Y-66166398D01*
X42080833Y-66278000D01*
X38079052Y-66278000D01*
X37955631Y-65979297D01*
X37582666Y-65605681D01*
X37095115Y-65403231D01*
X36567202Y-65402771D01*
X36079297Y-65604369D01*
X35705681Y-65977334D01*
X35503231Y-66464885D01*
X35502771Y-66992798D01*
X35433000Y-66992798D01*
X35433000Y-62492798D01*
X35502771Y-62492798D01*
X35704369Y-62980703D01*
X36077334Y-63354319D01*
X36564885Y-63556769D01*
X37092798Y-63557229D01*
X37580703Y-63355631D01*
X37954319Y-62982666D01*
X38156769Y-62495115D01*
X38157229Y-61967202D01*
X37955631Y-61479297D01*
X37582666Y-61105681D01*
X37095115Y-60903231D01*
X36567202Y-60902771D01*
X36079297Y-61104369D01*
X35705681Y-61477334D01*
X35503231Y-61964885D01*
X35502771Y-62492798D01*
X35433000Y-62492798D01*
X35433000Y-39564214D01*
X36719000Y-39564214D01*
X36719000Y-40519350D01*
X36814250Y-40614600D01*
X38074600Y-40614600D01*
X38074600Y-39354250D01*
X38125400Y-39354250D01*
X38125400Y-40614600D01*
X39385750Y-40614600D01*
X39481000Y-40519350D01*
X39481000Y-39564214D01*
X39422996Y-39424180D01*
X39315819Y-39317004D01*
X39175785Y-39259000D01*
X38220650Y-39259000D01*
X38125400Y-39354250D01*
X38074600Y-39354250D01*
X37979350Y-39259000D01*
X37024215Y-39259000D01*
X36884181Y-39317004D01*
X36777004Y-39424180D01*
X36719000Y-39564214D01*
X35433000Y-39564214D01*
X35433000Y-34568980D01*
X35613991Y-33659074D01*
X37920441Y-33659074D01*
X38410687Y-34845561D01*
X39317664Y-35754123D01*
X40503294Y-36246439D01*
X41787074Y-36247559D01*
X42973561Y-35757313D01*
X43263379Y-35468000D01*
X45933594Y-35468000D01*
X45933594Y-36668000D01*
X45956395Y-36789179D01*
X46028012Y-36900474D01*
X46137286Y-36975138D01*
X46267000Y-37001406D01*
X47967000Y-37001406D01*
X48088179Y-36978605D01*
X48199474Y-36906988D01*
X48274138Y-36797714D01*
X48300406Y-36668000D01*
X48300406Y-35468000D01*
X51902594Y-35468000D01*
X51902594Y-36668000D01*
X51925395Y-36789179D01*
X51997012Y-36900474D01*
X52106286Y-36975138D01*
X52236000Y-37001406D01*
X53936000Y-37001406D01*
X54057179Y-36978605D01*
X54168474Y-36906988D01*
X54243138Y-36797714D01*
X54269406Y-36668000D01*
X54269406Y-35468000D01*
X54246605Y-35346821D01*
X54174988Y-35235526D01*
X54065714Y-35160862D01*
X53936000Y-35134594D01*
X52236000Y-35134594D01*
X52114821Y-35157395D01*
X52003526Y-35229012D01*
X51928862Y-35338286D01*
X51902594Y-35468000D01*
X48300406Y-35468000D01*
X48277605Y-35346821D01*
X48205988Y-35235526D01*
X48096714Y-35160862D01*
X47967000Y-35134594D01*
X46267000Y-35134594D01*
X46145821Y-35157395D01*
X46034526Y-35229012D01*
X45959862Y-35338286D01*
X45933594Y-35468000D01*
X43263379Y-35468000D01*
X43882123Y-34850336D01*
X44206976Y-34068000D01*
X45916941Y-34068000D01*
X45987505Y-34422748D01*
X46188453Y-34723488D01*
X46489193Y-34924436D01*
X46843941Y-34995000D01*
X47390059Y-34995000D01*
X47744807Y-34924436D01*
X48045547Y-34723488D01*
X48246495Y-34422748D01*
X48317059Y-34068000D01*
X51885941Y-34068000D01*
X51956505Y-34422748D01*
X52157453Y-34723488D01*
X52458193Y-34924436D01*
X52812941Y-34995000D01*
X53359059Y-34995000D01*
X53713807Y-34924436D01*
X54014547Y-34723488D01*
X54215495Y-34422748D01*
X54286059Y-34068000D01*
X54215495Y-33713252D01*
X54014547Y-33412512D01*
X53713807Y-33211564D01*
X53359059Y-33141000D01*
X52812941Y-33141000D01*
X52458193Y-33211564D01*
X52157453Y-33412512D01*
X51956505Y-33713252D01*
X51885941Y-34068000D01*
X48317059Y-34068000D01*
X48246495Y-33713252D01*
X48045547Y-33412512D01*
X47744807Y-33211564D01*
X47390059Y-33141000D01*
X46843941Y-33141000D01*
X46489193Y-33211564D01*
X46188453Y-33412512D01*
X45987505Y-33713252D01*
X45916941Y-34068000D01*
X44206976Y-34068000D01*
X44374439Y-33664706D01*
X44375559Y-32380926D01*
X44320015Y-32246498D01*
X45902376Y-32246498D01*
X45950954Y-32419947D01*
X46155368Y-32743712D01*
X46468121Y-32964606D01*
X46841600Y-33049000D01*
X47091600Y-33049000D01*
X47091600Y-32093400D01*
X47142400Y-32093400D01*
X47142400Y-33049000D01*
X47392400Y-33049000D01*
X47765879Y-32964606D01*
X48078632Y-32743712D01*
X48283046Y-32419947D01*
X48331624Y-32246498D01*
X51871376Y-32246498D01*
X51919954Y-32419947D01*
X52124368Y-32743712D01*
X52437121Y-32964606D01*
X52810600Y-33049000D01*
X53060600Y-33049000D01*
X53060600Y-32093400D01*
X53111400Y-32093400D01*
X53111400Y-33049000D01*
X53361400Y-33049000D01*
X53734879Y-32964606D01*
X54047632Y-32743712D01*
X54252046Y-32419947D01*
X54300624Y-32246498D01*
X54221386Y-32093400D01*
X53111400Y-32093400D01*
X53060600Y-32093400D01*
X51950614Y-32093400D01*
X51871376Y-32246498D01*
X48331624Y-32246498D01*
X48252386Y-32093400D01*
X47142400Y-32093400D01*
X47091600Y-32093400D01*
X45981614Y-32093400D01*
X45902376Y-32246498D01*
X44320015Y-32246498D01*
X44172508Y-31889502D01*
X45902376Y-31889502D01*
X45981614Y-32042600D01*
X47091600Y-32042600D01*
X47091600Y-31087000D01*
X47142400Y-31087000D01*
X47142400Y-32042600D01*
X48252386Y-32042600D01*
X48331624Y-31889502D01*
X51871376Y-31889502D01*
X51950614Y-32042600D01*
X53060600Y-32042600D01*
X53060600Y-31087000D01*
X53111400Y-31087000D01*
X53111400Y-32042600D01*
X54221386Y-32042600D01*
X54300624Y-31889502D01*
X54252046Y-31716053D01*
X54047632Y-31392288D01*
X53734879Y-31171394D01*
X53361400Y-31087000D01*
X53111400Y-31087000D01*
X53060600Y-31087000D01*
X52810600Y-31087000D01*
X52437121Y-31171394D01*
X52124368Y-31392288D01*
X51919954Y-31716053D01*
X51871376Y-31889502D01*
X48331624Y-31889502D01*
X48283046Y-31716053D01*
X48078632Y-31392288D01*
X47765879Y-31171394D01*
X47392400Y-31087000D01*
X47142400Y-31087000D01*
X47091600Y-31087000D01*
X46841600Y-31087000D01*
X46468121Y-31171394D01*
X46155368Y-31392288D01*
X45950954Y-31716053D01*
X45902376Y-31889502D01*
X44172508Y-31889502D01*
X43885313Y-31194439D01*
X42978336Y-30285877D01*
X41792706Y-29793561D01*
X40508926Y-29792441D01*
X39322439Y-30282687D01*
X38413877Y-31189664D01*
X37921561Y-32375294D01*
X37920441Y-33659074D01*
X35613991Y-33659074D01*
X35796939Y-32739334D01*
X36881640Y-31115966D01*
X37084966Y-30912640D01*
X38708334Y-29827939D01*
X40799401Y-29412000D01*
X49022000Y-29412000D01*
X49053782Y-29405678D01*
X49086185Y-29405678D01*
X49572192Y-29309005D01*
X49690790Y-29259881D01*
X50102808Y-28984580D01*
X50193580Y-28893808D01*
X50468880Y-28481791D01*
X50487237Y-28437473D01*
X50518005Y-28363193D01*
X50545495Y-28224989D01*
X50659592Y-27996796D01*
X50673000Y-27940000D01*
X50673000Y-27806650D01*
X51587400Y-27806650D01*
X51587400Y-28777786D01*
X51645404Y-28917820D01*
X51752581Y-29024996D01*
X51892615Y-29083000D01*
X52711350Y-29083000D01*
X52806600Y-28987750D01*
X52806600Y-27711400D01*
X52857400Y-27711400D01*
X52857400Y-28987750D01*
X52952650Y-29083000D01*
X53771385Y-29083000D01*
X53911419Y-29024996D01*
X54018596Y-28917820D01*
X54076600Y-28777786D01*
X54076600Y-27806650D01*
X53981350Y-27711400D01*
X52857400Y-27711400D01*
X52806600Y-27711400D01*
X51682650Y-27711400D01*
X51587400Y-27806650D01*
X50673000Y-27806650D01*
X50673000Y-27583979D01*
X50746920Y-27212358D01*
X51087158Y-26703158D01*
X51596358Y-26362920D01*
X51822988Y-26317840D01*
X51752581Y-26347004D01*
X51645404Y-26454180D01*
X51587400Y-26594214D01*
X51587400Y-27565350D01*
X51682650Y-27660600D01*
X52806600Y-27660600D01*
X52806600Y-26384250D01*
X52711350Y-26289000D01*
X52952650Y-26289000D01*
X52857400Y-26384250D01*
M02*
